<svg width="1920" height="128" viewBox="0 0 1920 128" fill="none" xmlns="http://www.w3.org/2000/svg">
<g opacity="0.25" clip-path="url(#clip0_1_212)">
<path d="M2303 128H-383L167.301 0H1752.7L1753.01 0.071747L2303 128ZM2049.19 125.228H2278.52L2155.07 96.5132H1948.19L2049.19 125.228ZM1807.34 125.228H2038.66L1937.65 96.5132H1728.78L1807.34 125.228ZM1565.54 125.228H1798.77L1720.21 96.5132H1509.43L1565.54 125.228ZM1323.88 125.228H1558.82L1502.71 96.5132H1290.21L1323.88 125.228ZM1082.5 125.228H1318.74L1285.07 96.5132H1071.28L1082.5 125.228ZM841.628 125.228H1078.37L1067.15 96.5132H852.85L841.628 125.228ZM601.263 125.228H837.501L848.723 96.5132H634.931L601.263 125.228ZM361.181 125.228H596.121L629.79 96.5132H417.295L361.181 125.228ZM121.231 125.228H354.458L410.571 96.5132H199.79L121.231 125.228ZM-118.659 125.228H112.664L191.223 96.5132H-17.6539L-118.659 125.228ZM-358.514 125.228H-129.193L-28.1877 96.5132H-235.064L-358.514 125.228ZM1938.44 93.7409H2143.15L2044.69 70.8404H1857.88L1938.44 93.7409ZM1721.19 93.7409H1927.9L1847.35 70.8404H1658.54L1721.19 93.7409ZM1504.01 93.7409H1712.63L1649.97 70.8404H1459.26L1504.01 93.7409ZM1286.96 93.7409H1497.29L1452.54 70.8404H1260.11L1286.96 93.7409ZM1070.19 93.7409H1281.82L1254.97 70.8404H1061.24L1070.19 93.7409ZM853.934 93.7409H1066.07L1057.12 70.8404H862.885L853.934 93.7409ZM638.181 93.7409H849.807L858.757 70.8404H665.032L638.181 93.7409ZM422.712 93.7409H633.04L659.892 70.8404H467.464L422.712 93.7409ZM207.375 93.7409H415.989L460.741 70.8404H270.028L207.375 93.7409ZM-7.90274 93.7409H198.808L261.461 70.8404H72.6518L-7.90274 93.7409ZM-223.146 93.7409H-18.4355L62.118 70.8404H-124.691L-223.146 93.7409ZM1848.13 68.0681H2032.77L1952.98 49.5081H1782.85L1848.13 68.0681ZM1650.96 68.0681H1837.6L1772.31 49.5081H1600.18L1650.96 68.0681ZM1453.84 68.0681H1642.39L1591.61 49.5081H1417.57L1453.84 68.0681ZM1256.86 68.0681H1447.12L1410.85 49.5081H1235.1L1256.86 68.0681ZM1060.16 68.0681H1251.72L1229.96 49.5081H1052.91L1060.16 68.0681ZM863.969 68.0681H1056.03L1048.78 49.5081H871.222L863.969 68.0681ZM668.283 68.0681H859.842L867.095 49.5081H690.045L668.283 68.0681ZM472.882 68.0681H663.142L684.904 49.5081H509.152L472.882 68.0681ZM277.612 68.0681H466.159L502.429 49.5081H328.389L277.612 68.0681ZM82.403 68.0681H269.045L319.823 49.5081H147.688L82.403 68.0681ZM-112.772 68.0681H71.8702L137.155 49.5081H-32.9797L-112.772 68.0681ZM1773.09 46.7358H1941.06L1875.56 31.5011H1719.5L1773.09 46.7358ZM1592.59 46.7358H1762.56L1708.97 31.5011H1550.91L1592.59 46.7358ZM1412.16 46.7358H1584.03L1542.35 31.501H1382.38L1412.16 46.7358ZM1231.85 46.7358H1405.43L1375.66 31.501H1213.98L1231.85 46.7358ZM1051.82 46.7358H1226.71L1208.84 31.5011H1045.87L1051.82 46.7358ZM872.305 46.7358H1047.7L1041.74 31.5011H878.26L872.305 46.7358ZM693.295 46.7358H868.178L874.133 31.5011H711.158L693.295 46.7358ZM514.569 46.7358H688.155L706.018 31.5011H544.342L514.569 46.7358ZM335.974 46.7358H507.846L537.618 31.5011H377.654L335.974 46.7358ZM157.44 46.7358H327.407L369.088 31.5011H211.03L157.44 46.7358ZM-21.0605 46.7358H146.907L200.496 31.5011H44.4376L-21.0605 46.7358ZM1709.75 28.7288H1863.65L1809.34 16.0978H1665.32L1709.75 28.7288ZM1543.33 28.7288H1699.22L1654.79 16.0978H1508.77L1543.33 28.7288ZM1376.97 28.7288H1534.76L1500.2 16.0978H1352.28L1376.97 28.7288ZM1210.73 28.7288H1370.24L1345.56 16.0978H1195.92L1210.73 28.7288ZM1044.79 28.7288H1205.59L1190.78 16.0978H1039.85L1044.79 28.7288ZM879.343 28.7288H1040.66L1035.72 16.0978H884.28L879.343 28.7288ZM714.408 28.7288H875.216L880.153 16.0978H729.219L714.408 28.7288ZM549.759 28.7288H709.268L724.079 16.0978H574.443L549.759 28.7288ZM385.24 28.7288H543.036L567.72 16.0978H419.796L385.24 28.7288ZM220.781 28.7288H376.673L411.229 16.0978H265.212L220.781 28.7288ZM56.3558 28.7288H210.248L254.678 16.0978H110.66L56.3558 28.7288ZM1655.57 13.3254H1797.42L1752.05 2.77229H1618.45L1655.57 13.3254ZM1501.19 13.3254H1645.04L1607.92 2.77229H1472.32L1501.19 13.3254ZM1346.86 13.3254H1492.62L1463.75 2.77229H1326.24L1346.86 13.3254ZM1192.67 13.3254H1340.14L1319.52 2.77229H1180.3L1192.67 13.3254ZM1038.76 13.3254H1187.53L1175.16 2.77229H1034.64L1038.76 13.3254ZM885.364 13.3254H1034.64L1030.51 2.77229H889.488L885.364 13.3254ZM732.469 13.3254H881.237L885.361 2.77229H744.843L732.469 13.3254ZM579.86 13.3254H727.329L739.703 2.77229H600.483L579.86 13.3254ZM427.381 13.3254H573.137L593.76 2.77229H456.253L427.381 13.3254ZM274.963 13.3254H418.814L447.686 2.77229H312.083L274.963 13.3254ZM122.578 13.3254H264.43L301.551 2.77229H167.948L122.578 13.3254Z" fill="url(#paint0_linear_1_212)"/>
</g>
<defs>
<linearGradient id="paint0_linear_1_212" x1="-383" y1="64" x2="2303" y2="64" gradientUnits="userSpaceOnUse">
<stop stop-color="#C72AC4"/>
<stop offset="0.16592" stop-color="#C329C2"/>
<stop offset="0.32659" stop-color="#B727BB"/>
<stop offset="0.48515" stop-color="#A424B0"/>
<stop offset="0.64239" stop-color="#891FA1"/>
<stop offset="0.7988" stop-color="#65198D"/>
<stop offset="0.95246" stop-color="#3B1274"/>
<stop offset="1" stop-color="#2C0F6C"/>
</linearGradient>
<clipPath id="clip0_1_212">
<rect width="2686" height="128" fill="white" transform="translate(-383)"/>
</clipPath>
</defs>
</svg>
