<svg width="84" height="84" viewBox="0 0 84 84" fill="none" xmlns="http://www.w3.org/2000/svg">
<g clip-path="url(#clip0_877_9)">
<g clip-path="url(#clip1_877_9)">
<path d="M55.0624 25.0002V27.6364H73.3382L47.5498 53.2902L35.6367 40.8139C35.3792 40.556 35.0733 40.3513 34.7367 40.2117C34.4 40.0721 34.0392 40.0002 33.6748 40.0002C33.3104 40.0002 32.9495 40.0721 32.6129 40.2117C32.2763 40.3513 31.9704 40.556 31.7129 40.8139L19.3938 53.2902L5.1123 67.5802L7.07391 69.615L33.6748 42.9982L45.5879 54.9181C45.8455 55.1761 46.1513 55.3807 46.4879 55.5203C46.8246 55.6599 47.1854 55.7318 47.5498 55.7318C47.9142 55.7318 48.2751 55.6599 48.6117 55.5203C48.9484 55.3807 49.2542 55.1761 49.5118 54.9181L75.2998 29.1148V47.4017H77.999V25.0002H55.0624Z" fill="white"/>
</g>
</g>
<defs>
<clipPath id="clip0_877_9">
<rect width="84" height="84" fill="white"/>
</clipPath>
<clipPath id="clip1_877_9">
<rect width="84" height="84" fill="white"/>
</clipPath>
</defs>
</svg>
