<svg width="84" height="84" viewBox="0 0 84 84" fill="none" xmlns="http://www.w3.org/2000/svg">
<g clip-path="url(#clip0_877_729)">
<g clip-path="url(#clip1_877_729)">
<path d="M2.5 66.5C2.5 54.5 17.85 39 31.5 39C40.25 39 53 47 56.5 52L58.8 50.75C55.3 44.8 43.95 39.45 38 37C43.25 33.15 48.5 29.5 48.5 21C48.5 14.5 43.05 4 31.5 4C22.5 4 14.5 10 14.5 21C14.5 29.5 19.75 33.15 25 37C13.8 41.9 0 53.55 0 66.5V84H42V81H2.5V66.5ZM17.5 21C17.5 13.3 23.8 7 31.5 7C39.2 7 45.5 13.3 45.5 21C45.5 28.7 39.2 35 31.5 35C23.8 35 17.5 28.7 17.5 21Z" fill="#E4E2DD"/>
<path d="M84.3498 55.3L57.7498 81.9L41.2998 65.45L43.999 63.0001L57.7498 77.0001L81.499 53.0001L84.3498 55.3Z" fill="#E4E2DD"/>
</g>
</g>
<defs>
<clipPath id="clip0_877_729">
<rect width="84" height="84" fill="white"/>
</clipPath>
<clipPath id="clip1_877_729">
<rect width="84" height="84" fill="white"/>
</clipPath>
</defs>
</svg>
