<svg width="84" height="84" viewBox="0 0 84 84" fill="none" xmlns="http://www.w3.org/2000/svg">
<path d="M80.257 51.8394C80.2574 54.1214 79.6123 56.3569 78.3961 58.2877C77.1798 60.2185 75.4422 61.7659 73.3839 62.7511C71.3256 63.7363 69.0305 64.1191 66.7639 63.8553C64.4972 63.5915 62.3514 62.6918 60.5744 61.2603V80.2574H3.74219V61.1646C5.51129 62.6278 7.66018 63.5575 9.93789 63.845C12.2156 64.1325 14.5281 63.7661 16.6053 62.7885C18.6826 61.8109 20.4388 60.2625 21.6689 58.324C22.899 56.3856 23.5522 54.1372 23.5522 51.8414C23.5522 49.5456 22.899 47.2972 21.6689 45.3588C20.4388 43.4204 18.6826 41.872 16.6053 40.8943C14.5281 39.9167 12.2156 39.5503 9.93789 39.8378C7.66018 40.1254 5.51129 41.055 3.74219 42.5182V23.4254H22.7314C21.3011 21.6475 20.4027 19.5014 20.1399 17.2347C19.8771 14.9681 20.2607 12.6733 21.2463 10.6153C22.232 8.55731 23.7795 6.82001 25.7103 5.60393C27.6411 4.38784 29.8764 3.74255 32.1583 3.74255C34.4401 3.74255 36.6755 4.38784 38.6063 5.60393C40.5371 6.82001 42.0846 8.55731 43.0703 10.6153C44.0559 12.6733 44.4395 14.9681 44.1767 17.2347C43.9139 19.5014 43.0155 21.6475 41.5852 23.4254H60.5744V42.4226C62.3512 40.9912 64.4966 40.0916 66.7629 39.8277C69.0292 39.5637 71.3239 39.9462 73.3821 40.9309C75.4403 41.9156 77.178 43.4624 78.3945 45.3926C79.611 47.3229 80.2567 49.5578 80.257 51.8394Z" stroke="#E4E2DD" stroke-width="2.5" stroke-linecap="round" stroke-linejoin="round"/>
</svg>
