<svg width="84" height="84" viewBox="0 0 84 84" fill="none" xmlns="http://www.w3.org/2000/svg">
<g clip-path="url(#clip0_877_355)">
<path d="M77.5975 5.25H6.29958C5.72021 5.25 5.25 5.72061 5.25 6.30047V39.8147C5.25 40.3946 5.72021 40.8652 6.29958 40.8652H17.8282C14.7529 42.7624 12.681 46.1365 12.681 50.0106V50.9245C12.681 51.5044 13.1512 51.975 13.7306 51.975H33.152C33.7314 51.975 34.2016 51.5044 34.2016 50.9245V50.0106C34.2016 46.1365 32.1297 42.7624 29.0545 40.8652H77.5954C78.1748 40.8652 78.645 40.3946 78.645 39.8147V6.30047C78.6471 5.72061 78.1769 5.25 77.5975 5.25ZM23.4434 39.2391C20.154 39.2391 17.4755 36.5604 17.4755 33.2661C17.4755 29.9718 20.1519 27.2931 23.4434 27.2931C26.7349 27.2931 29.4113 29.9718 29.4113 33.2661C29.4113 36.5604 26.7328 39.2391 23.4434 39.2391ZM32.1024 49.8741H14.7823C14.8558 45.1553 18.7119 41.34 23.4413 41.34C28.1728 41.34 32.0311 45.1553 32.1024 49.8741ZM76.5479 38.7643H29.3169C30.6666 37.3209 31.5084 35.3965 31.5084 33.2682C31.5084 28.8163 27.8894 25.1943 23.4413 25.1943C18.9932 25.1943 15.3742 28.8163 15.3742 33.2682C15.3742 35.3965 16.2181 37.3209 17.5658 38.7643H7.34916V7.35094H76.5479V38.7643Z" fill="#E4E2DD"/>
<path d="M12.915 77.0384V77.6987C12.915 78.279 13.3847 78.75 13.9634 78.75H27.9817H42H56.0184H70.0367C70.6154 78.75 71.085 78.279 71.085 77.6987V77.0384C71.085 73.8908 69.263 71.1868 66.6359 69.8537C68.1476 68.7372 69.1414 66.9541 69.1414 64.9313C69.1414 61.5524 66.399 58.8 63.0275 58.8C59.6561 58.8 56.9136 61.5503 56.9136 64.9313C56.9136 66.9541 57.9075 68.7372 59.4192 69.8537C57.9809 70.5833 56.8025 71.725 56.0184 73.1317C55.2342 71.7229 54.0559 70.5833 52.6176 69.8537C54.1293 68.7372 55.1231 66.9541 55.1231 64.9313C55.1231 61.5524 52.3806 58.8 49.0092 58.8C45.6378 58.8 42.8953 61.5503 42.8953 64.9313C42.8953 66.9541 43.8891 68.7372 45.4008 69.8537C43.9625 70.5833 42.7842 71.725 42 73.1317C41.2159 71.7229 40.0376 70.5833 38.5992 69.8537C40.1109 68.7372 41.1048 66.9541 41.1048 64.9313C41.1048 61.5524 38.3623 58.8 34.9909 58.8C31.6194 58.8 28.877 61.5503 28.877 64.9313C28.877 66.9541 29.8708 68.7372 31.3825 69.8537C29.9442 70.5833 28.7659 71.725 27.9817 73.1317C27.1975 71.7229 26.0192 70.5833 24.5809 69.8537C26.0926 68.7372 27.0864 66.9541 27.0864 64.9313C27.0864 61.5524 24.344 58.8 20.9725 58.8C17.6011 58.8 14.8587 61.5503 14.8587 64.9313C14.8587 66.9541 15.8525 68.7372 17.3642 69.8537C14.7391 71.1846 12.915 73.8887 12.915 77.0384ZM59.0103 64.9292C59.0103 62.7088 60.8114 60.9006 63.0275 60.9006C65.2437 60.9006 67.0448 62.7067 67.0448 64.9292C67.0448 67.1517 65.2437 68.9579 63.0275 68.9579C60.8114 68.9579 59.0103 67.1496 59.0103 64.9292ZM63.0275 71.0606C66.183 71.0606 68.7745 73.5333 68.9758 76.6473H57.0793C57.2806 73.5333 59.8699 71.0606 63.0275 71.0606ZM44.992 64.9292C44.992 62.7088 46.793 60.9006 49.0092 60.9006C51.2254 60.9006 53.0264 62.7067 53.0264 64.9292C53.0264 67.1517 51.2254 68.9579 49.0092 68.9579C46.793 68.9579 44.992 67.1496 44.992 64.9292ZM49.0092 71.0606C52.1647 71.0606 54.7562 73.5333 54.9575 76.6473H43.061C43.2622 73.5333 45.8516 71.0606 49.0092 71.0606ZM30.9757 64.9292C30.9757 62.7088 32.7768 60.9006 34.993 60.9006C37.2091 60.9006 39.0102 62.7067 39.0102 64.9292C39.0102 67.1517 37.2091 68.9579 34.993 68.9579C32.7768 68.9579 30.9757 67.1496 30.9757 64.9292ZM34.9909 71.0606C38.1464 71.0606 40.7378 73.5333 40.9391 76.6473H29.0426C29.2439 73.5333 31.8354 71.0606 34.9909 71.0606ZM16.9574 64.9292C16.9574 62.7088 18.7585 60.9006 20.9746 60.9006C23.1908 60.9006 24.9919 62.7067 24.9919 64.9292C24.9919 67.1517 23.1908 68.9579 20.9746 68.9579C18.7585 68.9579 16.9574 67.1496 16.9574 64.9292ZM20.9725 71.0606C24.128 71.0606 26.7195 73.5333 26.9208 76.6473H15.0243C15.2256 73.5333 17.8171 71.0606 20.9725 71.0606Z" fill="#E4E2DD"/>
<path d="M16.8 15.96H67.2C67.7796 15.96 68.25 15.4896 68.25 14.91C68.25 14.3304 67.7796 13.86 67.2 13.86H16.8C16.2204 13.86 15.75 14.3304 15.75 14.91C15.75 15.4896 16.2183 15.96 16.8 15.96Z" fill="#E4E2DD"/>
<path d="M67.2016 22.05H40.1075C39.5291 22.05 39.0596 22.5204 39.0596 23.1C39.0596 23.6796 39.5291 24.15 40.1075 24.15H67.2016C67.7801 24.15 68.2496 23.6796 68.2496 23.1C68.2496 22.5204 67.7801 22.05 67.2016 22.05Z" fill="#E4E2DD"/>
<path d="M67.2016 30.24H40.1075C39.5291 30.24 39.0596 30.7104 39.0596 31.29C39.0596 31.8696 39.5291 32.34 40.1075 32.34H67.2016C67.7801 32.34 68.2496 31.8696 68.2496 31.29C68.2496 30.7104 67.7801 30.24 67.2016 30.24Z" fill="#E4E2DD"/>
</g>
<defs>
<clipPath id="clip0_877_355">
<rect width="84" height="84" fill="white"/>
</clipPath>
</defs>
</svg>
