<svg width="129" height="14" viewBox="0 0 129 14" fill="none" xmlns="http://www.w3.org/2000/svg">
<g clip-path="url(#clip0_667_2189)">
<path d="M19.1047 11.1765V1.2685C19.1047 1.21756 19.0792 1.16662 19.0538 1.14115C19.0283 1.11568 18.9774 1.09021 18.9264 1.09021H17.5001C17.4491 1.09021 17.3982 1.11568 17.3727 1.14115C17.3472 1.16662 17.3218 1.21756 17.3218 1.2685V12.7811C17.3218 12.8321 17.3472 12.883 17.3727 12.9085C17.3982 12.9339 17.4491 12.9594 17.5001 12.9594H24.8355C24.8865 12.9594 24.9374 12.9339 24.9629 12.9085C24.9884 12.883 25.0138 12.8321 25.0138 12.7811V11.3548C25.0138 11.3038 24.9884 11.2529 24.9629 11.2274C24.9374 11.202 24.8865 11.1765 24.8355 11.1765H19.1047Z" fill="black"/>
<path d="M37.4689 1.11572H28.9364C28.8345 1.11572 28.7581 1.19213 28.7581 1.29401V2.72036C28.7581 2.82224 28.8345 2.89865 28.9364 2.89865H37.4689C37.5708 2.89865 37.6472 2.82224 37.6472 2.72036V1.29401C37.6472 1.19213 37.5708 1.11572 37.4689 1.11572Z" fill="black"/>
<path d="M37.4689 11.1765H28.9364C28.8345 11.1765 28.7581 11.2529 28.7581 11.3548V12.7811C28.7581 12.883 28.8345 12.9594 28.9364 12.9594H37.4689C37.5708 12.9594 37.6472 12.883 37.6472 12.7811V11.3548C37.6472 11.2529 37.5708 11.1765 37.4689 11.1765Z" fill="black"/>
<path d="M37.4689 6.13342H28.9364C28.8345 6.13342 28.7581 6.20984 28.7581 6.31172V7.73806C28.7581 7.83994 28.8345 7.91635 28.9364 7.91635H37.4689C37.5708 7.91635 37.6472 7.83994 37.6472 7.73806V6.31172C37.6472 6.20984 37.5708 6.13342 37.4689 6.13342Z" fill="black"/>
<path d="M100.024 1.11572H91.4915C91.3896 1.11572 91.3132 1.19213 91.3132 1.29401V2.72036C91.3132 2.82224 91.3896 2.89865 91.4915 2.89865H100.024C100.126 2.89865 100.202 2.82224 100.202 2.72036V1.29401C100.202 1.19213 100.126 1.11572 100.024 1.11572Z" fill="black"/>
<path d="M100.024 11.1765H91.4915C91.3896 11.1765 91.3132 11.2529 91.3132 11.3548V12.7811C91.3132 12.883 91.3896 12.9594 91.4915 12.9594H100.024C100.126 12.9594 100.202 12.883 100.202 12.7811V11.3548C100.202 11.2529 100.126 11.1765 100.024 11.1765Z" fill="black"/>
<path d="M100.024 6.13342H91.4915C91.3896 6.13342 91.3132 6.20984 91.3132 6.31172V7.73806C91.3132 7.83994 91.3896 7.91635 91.4915 7.91635H100.024C100.126 7.91635 100.202 7.83994 100.202 7.73806V6.31172C100.202 6.20984 100.126 6.13342 100.024 6.13342Z" fill="black"/>
<path d="M65.7409 1.11572H64.3145C64.2126 1.11572 64.1362 1.19213 64.1362 1.29401V12.7812C64.1362 12.883 64.2126 12.9595 64.3145 12.9595H65.7409C65.8428 12.9595 65.9192 12.883 65.9192 12.7812V1.26855C65.9192 1.19214 65.8428 1.11572 65.7409 1.11572Z" fill="black"/>
<path d="M62.1751 6.13334H57.6159V1.2685C57.6159 1.21756 57.5904 1.16662 57.565 1.14115C57.5395 1.11568 57.4885 1.09021 57.4376 1.09021H56.0113C55.9603 1.09021 55.9094 1.11568 55.8839 1.14115C55.8584 1.16662 55.833 1.21756 55.833 1.2685V6.13334H54.2283C54.1774 6.13334 54.1265 6.15882 54.101 6.18429C54.0755 6.20976 54.05 6.2607 54.05 6.31164V7.73798C54.05 7.78892 54.0755 7.83986 54.101 7.86533C54.1265 7.8908 54.1774 7.91627 54.2283 7.91627H55.833V12.7811C55.833 12.8321 55.8584 12.883 55.8839 12.9085C55.9094 12.9339 55.9603 12.9594 56.0113 12.9594H57.4376C57.4885 12.9594 57.5395 12.9339 57.565 12.9085C57.5904 12.883 57.6159 12.8321 57.6159 12.7811V7.91627H62.1751C62.226 7.91627 62.277 7.8908 62.3025 7.86533C62.3279 7.83986 62.3534 7.78892 62.3534 7.73798V6.31164C62.3534 6.2607 62.3279 6.20976 62.3025 6.18429C62.277 6.15882 62.226 6.13334 62.1751 6.13334Z" fill="black"/>
<path d="M10.7759 7.91627H12.7371C12.788 7.91627 12.839 7.8908 12.8645 7.86533C12.8899 7.83986 12.9154 7.78892 12.9154 7.73798V6.31164C12.9154 6.2607 12.8899 6.20976 12.8645 6.18429C12.839 6.15882 12.788 6.13334 12.7371 6.13334H9.9863L7.82132 1.24303C7.79585 1.19209 7.77038 1.16662 7.74491 1.14115C7.71944 1.11568 7.6685 1.09021 7.61756 1.09021H5.83463C5.78369 1.09021 5.73275 1.11568 5.70728 1.14115C5.65634 1.16662 5.63087 1.19209 5.63087 1.24303L3.46588 6.13334H0.664142C0.638672 6.13334 0.613202 6.13335 0.587731 6.15882C0.562261 6.15882 0.53679 6.18429 0.53679 6.20976C0.51132 6.23523 0.51132 6.23523 0.51132 6.2607C0.51132 6.28617 0.51132 6.31164 0.51132 6.33711V7.76345C0.51132 7.81439 0.536791 7.86533 0.562261 7.8908C0.587732 7.91627 0.638672 7.94174 0.689613 7.94174H2.65083L0.51132 12.7302C0.51132 12.7556 0.48585 12.7811 0.51132 12.8066C0.51132 12.8321 0.51132 12.8575 0.53679 12.883C0.562261 12.9085 0.562261 12.9339 0.587731 12.9339C0.613202 12.9339 0.638672 12.9594 0.664142 12.9594H2.24331C2.29425 12.9594 2.34519 12.9339 2.37066 12.9085C2.4216 12.883 2.44707 12.8575 2.44707 12.8066L6.67515 3.28066L10.9032 12.8066C10.9287 12.8575 10.9542 12.883 10.9796 12.9085C11.0306 12.9339 11.0561 12.9594 11.107 12.9594H12.6862C12.7116 12.9594 12.7371 12.9594 12.7626 12.9339C12.788 12.9085 12.8135 12.9085 12.839 12.883C12.8645 12.8575 12.8645 12.8321 12.8645 12.8066C12.8645 12.7811 12.8645 12.7556 12.839 12.7302L10.7759 7.91627Z" fill="black"/>
<path d="M51.1209 3.73917C50.7898 2.94959 50.2295 2.28736 49.5418 1.82889C48.8286 1.37043 48.0135 1.11572 47.173 1.11572H42.1553C42.1044 1.11572 42.0535 1.14119 42.028 1.16666C42.0025 1.19213 41.9771 1.24307 41.9771 1.29401V2.72036C41.9771 2.7713 42.0025 2.82224 42.028 2.84771C42.0535 2.87318 42.1044 2.89865 42.1553 2.89865H47.173C47.5041 2.89865 47.8352 2.97506 48.1409 3.10241C48.5994 3.28071 48.9814 3.61182 49.2616 4.01935C49.5418 4.42688 49.6946 4.93628 49.6946 5.42022C49.6946 5.75134 49.6182 6.08245 49.4908 6.38809C49.2871 6.84656 48.9814 7.22862 48.5739 7.50879C48.1664 7.78897 47.6569 7.94179 47.173 7.94179H42.1553C42.1044 7.94179 42.0535 7.96726 42.028 7.99273C42.0025 8.0182 41.9771 8.06914 41.9771 8.12008V12.7812C41.9771 12.8321 42.0025 12.883 42.028 12.9085C42.0535 12.934 42.1044 12.9595 42.1553 12.9595H43.5817C43.6326 12.9595 43.6836 12.934 43.709 12.9085C43.7345 12.883 43.76 12.8321 43.76 12.7812V9.69924H47.173C48.3192 9.69924 49.4144 9.24078 50.204 8.45119C51.019 7.63614 51.452 6.54092 51.452 5.42022C51.4775 4.8344 51.3502 4.24858 51.1209 3.73917Z" fill="black"/>
<path d="M113.294 7.81439C113.778 7.10122 114.033 6.2607 114.033 5.42018C114.033 4.85983 113.931 4.29948 113.702 3.7646C113.498 3.25519 113.167 2.77126 112.759 2.36373C112.352 1.9562 111.893 1.65056 111.358 1.42132C110.849 1.21756 110.289 1.09021 109.703 1.09021H104.685C104.634 1.09021 104.583 1.11568 104.558 1.14115C104.532 1.16662 104.507 1.21756 104.507 1.2685V2.69484C104.507 2.74578 104.532 2.79672 104.558 2.82219C104.583 2.84766 104.634 2.87314 104.685 2.87314H109.703C110.034 2.87314 110.365 2.94955 110.671 3.0769C111.129 3.28066 111.511 3.58631 111.791 3.99383C112.072 4.40136 112.199 4.8853 112.199 5.3947C112.199 5.72582 112.123 6.05693 111.995 6.36258C111.791 6.82105 111.486 7.2031 111.078 7.48327C110.671 7.76345 110.161 7.91627 109.677 7.91627H104.66C104.609 7.91627 104.558 7.94174 104.532 7.96721C104.507 7.99269 104.481 8.04363 104.481 8.09457V12.7811C104.481 12.8321 104.507 12.883 104.532 12.9085C104.558 12.9339 104.609 12.9594 104.66 12.9594H106.086C106.137 12.9594 106.188 12.9339 106.213 12.9085C106.239 12.883 106.264 12.8321 106.264 12.7811V9.6992H109.677C109.983 9.6992 110.263 9.67373 110.569 9.59732L112.021 12.8575C112.046 12.883 112.046 12.9085 112.097 12.9339C112.123 12.9594 112.148 12.9594 112.199 12.9594H113.829C113.855 12.9594 113.88 12.9594 113.905 12.9339C113.931 12.9085 113.956 12.9085 113.982 12.883C114.007 12.8575 114.007 12.8321 114.007 12.8066C114.007 12.7811 114.007 12.7556 113.982 12.7302L112.275 8.85868C112.708 8.55303 113.039 8.19645 113.294 7.81439Z" fill="black"/>
<path d="M87.4162 1.11572H78.8836C78.8327 1.11572 78.7817 1.14119 78.7563 1.16666C78.7308 1.19213 78.7053 1.24307 78.7053 1.29401V2.72036C78.7053 2.7713 78.7308 2.82224 78.7563 2.84771C78.7817 2.87318 78.8327 2.89865 78.8836 2.89865H84.9456L82.5768 5.90416C82.5514 5.92963 82.5514 5.9551 82.5514 5.98057C82.5514 6.00604 82.5514 6.03151 82.5768 6.05698C82.5768 6.08245 82.6023 6.10792 82.6278 6.10792C82.6532 6.13339 82.6787 6.13339 82.7042 6.13339H84.5126C84.5635 6.13339 84.6144 6.13339 84.6654 6.10792C84.7163 6.08245 84.7673 6.05698 84.7927 6.00604L87.5181 2.51659C87.569 2.46565 87.5945 2.38924 87.5945 2.28736V1.26855C87.5945 1.24308 87.5945 1.2176 87.569 1.19213C87.569 1.16666 87.5435 1.14119 87.5181 1.14119C87.4926 1.11572 87.4926 1.11572 87.4671 1.11572C87.4417 1.11572 87.4417 1.11572 87.4162 1.11572Z" fill="black"/>
<path d="M87.4163 11.1765H80.7431L83.1118 8.171C83.1373 8.14553 83.1373 8.12007 83.1373 8.0946C83.1373 8.06913 83.1373 8.04365 83.1118 8.01818C83.1118 7.99271 83.0864 7.96724 83.0609 7.96724C83.0354 7.94177 83.0099 7.94177 82.9845 7.94177H81.1761C81.1251 7.94177 81.0742 7.94177 81.0233 7.96724C80.9723 7.99271 80.9214 8.01818 80.8959 8.06912L78.196 11.5076C78.1451 11.5586 78.1196 11.635 78.1196 11.7369V12.7811C78.1196 12.8321 78.1451 12.883 78.1706 12.9085C78.196 12.934 78.247 12.9594 78.2979 12.9594H87.4163C87.4673 12.9594 87.5182 12.934 87.5437 12.9085C87.5691 12.883 87.5946 12.8321 87.5946 12.7811V11.3548C87.5946 11.3293 87.5946 11.3039 87.5691 11.2784C87.5691 11.2529 87.5437 11.2275 87.5437 11.2275C87.5182 11.202 87.5182 11.202 87.4927 11.1765C87.4673 11.1765 87.4418 11.1765 87.4163 11.1765Z" fill="black"/>
<path d="M126.87 7.9163C126.819 7.9163 126.794 7.94177 126.768 7.96724C126.743 7.99271 126.717 8.04365 126.717 8.06912C126.666 8.34929 126.59 8.62947 126.488 8.88417C126.233 9.62281 125.749 10.2596 125.087 10.718C124.45 11.151 123.712 11.3803 122.948 11.3548C122.438 11.3548 121.929 11.2529 121.445 11.0492C120.757 10.7435 120.171 10.2596 119.764 9.59734C119.484 9.11341 119.28 8.604 119.178 8.04365C119.178 7.99271 119.152 7.96724 119.127 7.94177C119.102 7.9163 119.051 7.89083 119 7.89083H117.548C117.522 7.89083 117.497 7.89083 117.471 7.9163C117.446 7.9163 117.42 7.94177 117.42 7.96724C117.395 7.99271 117.395 8.01818 117.395 8.04365C117.395 8.06912 117.395 8.09459 117.395 8.12006C117.471 8.604 117.573 9.06247 117.752 9.49546C118.134 10.5652 118.847 11.4822 119.764 12.1444C120.706 12.8066 121.801 13.1377 122.948 13.1123C123.686 13.1123 124.45 12.9594 125.138 12.6793C126.182 12.2463 127.048 11.4822 127.634 10.5397C128.093 9.80111 128.373 8.96059 128.5 8.09459C128.5 8.06912 128.5 8.04365 128.5 8.01818C128.5 7.99271 128.475 7.96724 128.475 7.94177C128.449 7.9163 128.449 7.9163 128.424 7.89083C128.398 7.89083 128.373 7.86536 128.347 7.86536H126.87V7.9163Z" fill="black"/>
<path d="M119 6.13337C119.051 6.13337 119.076 6.1079 119.102 6.08243C119.127 6.05696 119.152 6.00602 119.152 5.98055C119.203 5.70038 119.28 5.4202 119.382 5.14003C119.636 4.40139 120.12 3.76463 120.757 3.33163C121.394 2.89863 122.133 2.6694 122.897 2.69487C123.406 2.69487 123.915 2.79675 124.399 3.00052C125.087 3.28069 125.673 3.7901 126.08 4.45233C126.361 4.93627 126.564 5.47114 126.666 6.00602C126.666 6.05696 126.692 6.08243 126.717 6.1079C126.743 6.13337 126.794 6.15884 126.819 6.15884H128.271C128.296 6.15884 128.322 6.15884 128.347 6.13337C128.373 6.13337 128.398 6.1079 128.398 6.08243C128.424 6.05696 128.424 6.03149 128.424 6.00602C128.424 5.98055 128.424 5.95508 128.424 5.92961C128.347 5.44567 128.245 4.98721 128.067 4.52874C127.685 3.45898 126.972 2.51658 126.029 1.85435C125.113 1.21759 123.992 0.886475 122.871 0.886475C122.133 0.886475 121.368 1.0393 120.681 1.31947C119.636 1.75247 118.77 2.51658 118.185 3.45898C117.726 4.19762 117.446 5.03815 117.319 5.90414C117.319 5.92961 117.319 5.95508 117.319 5.98055C117.319 6.00602 117.344 6.03149 117.344 6.05696C117.37 6.08243 117.37 6.08243 117.395 6.1079C117.42 6.1079 117.446 6.13337 117.471 6.13337H119Z" fill="black"/>
</g>
<defs>
<clipPath id="clip0_667_2189">
<rect width="128" height="12.2272" fill="white" transform="translate(0.5 0.886475)"/>
</clipPath>
</defs>
</svg>
