<svg width="129" height="28" viewBox="0 0 129 28" fill="none" xmlns="http://www.w3.org/2000/svg">
<g clip-path="url(#clip0_667_2191)">
<path fill-rule="evenodd" clip-rule="evenodd" d="M87.2973 4.48858C85.6943 4.48858 84.478 5.21907 83.5662 6.67861C82.7949 7.95607 82.4293 9.51758 82.4293 11.4236C82.4293 13.3099 82.7949 14.8721 83.5662 16.1081C84.4365 17.5479 85.6746 18.2784 87.2558 18.2784H87.4379C88.5944 18.2784 89.5471 17.8516 90.338 17.0206C91.1093 16.1685 91.657 15.0731 91.8799 13.7148C91.8799 13.6136 91.8383 13.5328 91.7575 13.4512C91.6563 13.3703 91.5754 13.35 91.4334 13.3092H90.4189C90.1756 13.3092 90.0336 13.4308 89.9739 13.6544C89.6082 15.4992 88.6949 16.4533 87.317 16.5349C86.2828 16.4933 85.5115 15.8845 85.0257 14.6485C84.6404 13.7767 84.4365 12.6202 84.4365 11.3019C84.4365 9.96403 84.6601 8.86865 85.0869 7.97647C85.5931 6.84103 86.3643 6.25328 87.4182 6.1921C88.1079 6.21249 88.6957 6.5162 89.1421 7.04423C89.5675 7.53074 89.8318 8.15927 89.9746 8.95022C90.0343 9.19347 90.1567 9.35589 90.3999 9.41707L91.4538 9.43673C91.7386 9.37628 91.8595 9.25465 91.8595 9.0114C91.6774 7.63197 91.1909 6.53732 90.3999 5.74637C89.609 4.91464 88.6359 4.48858 87.4794 4.48858H87.2973ZM107.941 4.79301C107.837 4.78949 107.735 4.82567 107.657 4.89425C107.576 4.97509 107.515 5.07633 107.515 5.1579V12.8438C107.515 14.6077 107.839 15.926 108.428 16.7781C109.118 17.7708 110.131 18.2792 111.449 18.2792C112.97 18.2792 114.106 17.4467 114.876 15.8044V17.6295C114.876 17.7104 114.937 17.7919 115.018 17.8939C115.096 17.9622 115.198 17.9984 115.302 17.9951H116.275C116.386 17.9994 116.494 17.9634 116.58 17.8939L116.681 17.6295V5.1579L116.56 4.91464C116.525 4.87445 116.481 4.84267 116.432 4.82163C116.382 4.80058 116.329 4.79081 116.275 4.79301H115.14C115.036 4.78949 114.934 4.82567 114.855 4.89425C114.774 4.97509 114.713 5.05593 114.713 5.1579V11.83C114.713 13.2094 114.43 14.3033 113.882 15.1554C113.593 15.551 113.218 15.8768 112.787 16.1088C112.381 16.3521 111.976 16.4941 111.63 16.4941C111.266 16.4941 110.92 16.3717 110.596 16.1496C110.294 15.9025 110.051 15.5903 109.886 15.2363C109.623 14.7083 109.48 13.9392 109.48 12.8438V5.1579L109.359 4.89425C109.287 4.82922 109.193 4.79319 109.095 4.79301H107.941ZM120.636 0.128906H119.481C119.429 0.131379 119.378 0.145338 119.333 0.169775C119.287 0.194212 119.247 0.228517 119.216 0.270199C119.115 0.310984 119.076 0.432612 119.076 0.513455V17.6288C119.076 17.7096 119.116 17.7912 119.216 17.8932C119.251 17.9267 119.293 17.953 119.338 17.9703C119.384 17.9877 119.432 17.9959 119.481 17.9944H120.636C120.738 17.9944 120.839 17.9747 120.921 17.8932C121.002 17.8116 121.041 17.7307 121.041 17.6288V13.9392L123.374 10.8154L126.416 17.6091C126.538 17.872 126.72 17.9944 126.984 17.9944H128.12C128.262 17.9944 128.344 17.9747 128.424 17.872C128.505 17.7708 128.526 17.6499 128.464 17.5479L124.672 9.45712L127.857 5.25913C127.938 5.17829 127.938 5.07706 127.877 4.97509C127.835 4.87386 127.754 4.81341 127.653 4.81341H126.477C126.234 4.81341 126.03 4.91464 125.868 5.1579L121.041 11.3231V0.513455C121.037 0.407278 120.994 0.306381 120.921 0.229414C120.819 0.168964 120.738 0.128906 120.636 0.128906ZM105.223 15.9063C104.879 15.8852 104.616 15.9872 104.392 16.2304C104.274 16.3252 104.18 16.4459 104.117 16.5831C104.053 16.7203 104.023 16.8703 104.027 17.0214C104.027 17.3047 104.149 17.5691 104.392 17.8123C104.616 18.0359 104.879 18.1364 105.223 18.1364C105.549 18.1364 105.852 18.0352 106.075 17.8123C106.299 17.5691 106.399 17.3047 106.42 17.0214C106.4 16.6973 106.299 16.4322 106.075 16.2304C105.852 15.9872 105.549 15.8852 105.223 15.9063ZM80.9086 15.9063C80.5845 15.8852 80.3194 15.9872 80.0761 16.2304C79.854 16.4322 79.7119 16.6973 79.7316 17.0214C79.7119 17.3047 79.854 17.5691 80.0761 17.8123C80.3194 18.0359 80.5837 18.1364 80.9086 18.1364C81.253 18.1364 81.5174 18.0352 81.7607 17.8123C82.0039 17.6091 82.1052 17.3047 82.1248 17.0214C82.1052 16.6973 82.0039 16.4322 81.7607 16.2304C81.653 16.1148 81.5201 16.0254 81.3724 15.9692C81.2246 15.913 81.0659 15.8915 80.9086 15.9063ZM23.2335 6.84103C22.605 5.32032 21.53 4.54976 20.1105 4.54976C18.5898 4.54976 17.5148 5.32032 16.9672 6.84103H16.906V5.23874C16.8856 4.97509 16.7239 4.83307 16.4595 4.81341H14.2294C13.9046 4.81341 13.7429 4.97509 13.7429 5.25913V17.6091C13.7837 17.8524 13.9053 17.9747 14.209 17.9944L16.6023 17.9747C16.906 17.9747 17.048 17.8524 17.0691 17.5479V11.039C17.0487 9.94364 17.0888 9.19347 17.2308 8.8082C17.4741 7.99759 17.9409 7.63198 18.7115 7.63198C19.4616 7.63198 19.9489 7.99686 20.1105 8.8082C20.171 9.09224 20.2118 9.8424 20.2118 11.039V17.5479C20.171 17.8123 20.3334 17.9747 20.6378 17.9944L23.0507 17.9747C23.3748 17.9747 23.4965 17.8524 23.4965 17.5479V11.039C23.4965 9.80162 23.5576 9.01067 23.7397 8.66618C23.841 8.34135 24.0434 8.0981 24.3275 7.91602C24.5707 7.73321 24.8548 7.63198 25.1789 7.65237C25.9698 7.65237 26.4367 7.99759 26.5583 8.72736C26.6399 8.91016 26.6399 9.68072 26.6399 11.0397V17.5487C26.6399 17.813 26.8023 17.9755 27.0856 17.9951L29.4788 17.9755C29.8029 17.9755 29.9449 17.8531 29.9449 17.5487V7.73321C29.8845 6.96266 29.6609 6.35379 29.3565 5.90806C28.6879 4.99548 27.7746 4.54903 26.5576 4.54903C25.8074 4.54903 25.1781 4.73111 24.5904 5.13751C23.9837 5.50239 23.4972 6.09087 23.2335 6.84103ZM45.8855 4.79301C45.5607 4.79301 45.439 4.91464 45.439 5.23874V6.98305C45.439 7.28676 45.6015 7.44917 45.9059 7.44917H50.0427L45.2774 14.2217C45.0953 14.5262 44.9933 14.9115 44.9933 15.4591V17.2231C44.9933 17.3651 45.0341 17.5079 45.1754 17.5691C45.297 17.69 45.4187 17.7096 45.5403 17.6288C46.8381 16.9405 48.278 16.5946 49.8191 16.6157C51.3202 16.6558 52.6581 16.9602 53.9159 17.6288L54.3215 17.5691C54.4432 17.5079 54.5036 17.3855 54.5036 17.2231V15.3382C54.4432 15.0338 54.3215 14.7891 54.0783 14.6485C52.8817 13.9785 51.361 13.6544 49.5562 13.7156L53.653 7.8745C54.0586 7.30715 54.2611 6.94153 54.2611 6.71867V5.23801C54.2611 4.91391 54.0987 4.79229 53.8146 4.79229L45.8855 4.79301ZM77.6028 6.01002C76.9939 5.01588 76.0624 4.54976 74.7835 4.54976C73.9729 4.54976 73.3043 4.75296 72.7762 5.17829C72.2897 5.58396 71.8644 6.17171 71.5184 7.04423H71.4784V5.1579C71.4508 5.06386 71.3951 4.98049 71.3188 4.91893C71.2426 4.85737 71.1493 4.82056 71.0516 4.81341H68.8011C68.5163 4.81341 68.3546 4.93503 68.3546 5.21908V17.5479C68.335 17.8123 68.4967 17.9747 68.7814 17.9944L71.1739 17.9747C71.4784 17.9747 71.6189 17.8524 71.6605 17.5479V10.9174C71.6605 9.92325 71.7814 9.15269 72.0457 8.58533C72.329 7.91602 72.7755 7.61158 73.4455 7.61158C74.1542 7.5708 74.581 7.97647 74.7827 8.74775C74.8636 9.09224 74.9248 9.80235 74.9451 10.9174V17.6288C74.9451 17.872 75.109 17.9747 75.3523 17.9944L77.7644 17.9747C78.0288 17.9747 78.1912 17.872 78.2313 17.6288V9.86279C78.2313 7.95607 78.0084 6.67861 77.6028 6.01002Z" fill="black"/>
<path fill-rule="evenodd" clip-rule="evenodd" d="M11.5121 19.4955C11.3905 19.6776 11.4313 19.8611 11.6542 20.0432C14.365 22.5037 17.4977 24.4547 20.9015 25.8027C24.4302 27.1814 28.1213 27.8711 32.0352 27.8711C35.0072 27.8325 37.9606 27.3957 40.8165 26.5725C43.8987 25.641 46.5556 24.3621 48.7252 22.7401C49.0704 22.4772 49.1921 22.2121 48.9685 21.9091C48.7864 21.5835 48.4616 21.5435 48.0763 21.7059C43.0473 23.8355 37.8552 24.8697 32.5217 24.8697C28.8511 24.8697 25.2415 24.3832 21.6925 23.4298C18.2454 22.4968 15.0408 21.1997 12.1006 19.4751C11.8566 19.3134 11.6534 19.3331 11.5121 19.4955Z" fill="#DFA63D"/>
<path fill-rule="evenodd" clip-rule="evenodd" d="M52.5372 19.1313C52.3952 18.9675 52.0915 18.8269 51.5438 18.7045L49.6983 18.5421C47.8731 18.5618 46.3925 18.9886 45.2162 19.7795C45.0342 19.9419 44.9322 20.1036 44.9934 20.2464C44.9934 20.3673 45.115 20.4284 45.3379 20.3869C48.5017 20.0424 50.2452 20.1036 50.6312 20.5901C51.0165 21.0963 50.5905 22.8202 49.4346 25.7407C49.313 25.9439 49.3742 26.0852 49.4958 26.1464C49.6371 26.1879 49.7995 26.1661 49.9823 26.0044C51.0777 25.0926 51.8686 23.7743 52.3756 22.0497C52.5576 21.3614 52.6596 20.7322 52.7004 20.1633C52.6997 19.6178 52.6596 19.2719 52.5372 19.1313Z" fill="#DFA63D"/>
<path fill-rule="evenodd" clip-rule="evenodd" d="M5.81304 9.88315L5.32652 9.9436C4.39355 10.0652 3.64267 10.2684 3.0957 10.4913C2.28436 10.8562 1.67622 11.3427 1.22977 11.9923C0.743256 12.6813 0.5 13.4723 0.5 14.406C0.5 15.6026 0.84522 16.5356 1.5546 17.2238C2.18313 17.8727 3.05565 18.1568 4.13064 18.1568C4.77956 18.1568 5.32725 18.0759 5.81376 17.9332C5.95578 17.8931 6.09781 17.8523 6.21943 17.7912C6.78752 17.5479 7.39566 17.0811 8.06498 16.4125L8.65345 17.2034L9.46479 18.0359C9.68765 18.1371 9.87046 18.1167 10.0329 17.9747L11.8784 16.3717C12.0809 16.2311 12.0809 15.9879 11.8784 15.7446L11.2703 14.8116C11.0678 14.406 10.9862 14.0003 10.9862 13.5342V9.78264C10.9862 8.64647 10.9251 7.87592 10.885 7.53143C10.7634 6.76088 10.4182 6.11195 9.91197 5.6451C9.10063 4.83449 7.88363 4.44849 6.30173 4.44849H5.81522C4.70017 4.50894 3.74681 4.77331 2.95587 5.23943C1.84009 5.86797 1.17078 6.84172 0.927519 8.13957C0.846676 8.40322 0.968305 8.56491 1.27201 8.64648L3.58367 8.86934C3.82693 8.86934 3.96895 8.72732 4.00973 8.42361C4.13136 7.97716 4.35423 7.61227 4.7395 7.36902C5.02354 7.14543 5.38843 7.0238 5.81449 7.00413C5.85528 6.98374 5.89533 6.98374 5.93612 6.98374C6.56465 6.98374 7.0315 7.2066 7.31554 7.63267C7.45756 7.81475 7.5588 8.09951 7.57919 8.48406L7.59958 9.68068L5.81304 9.88315ZM5.81304 15.7228C5.7118 15.7439 5.59017 15.7439 5.48821 15.7439C5.02209 15.7439 4.6572 15.58 4.41322 15.2559C4.14957 14.9726 4.00755 14.5473 4.00755 13.9988C4.00755 12.8838 4.61569 12.1533 5.81231 11.8292C6.29882 11.6872 6.90769 11.6267 7.59667 11.6267V12.1132C7.57628 12.7622 7.55588 13.2086 7.55588 13.4511C7.49543 13.8969 7.33302 14.2829 7.12982 14.6485C6.78679 15.2778 6.36073 15.6215 5.81304 15.7228ZM37.365 9.88315L36.8784 9.9436C35.9455 10.0652 35.1953 10.2684 34.6476 10.4913C33.8363 10.8562 33.2281 11.3427 32.7817 11.9923C32.2952 12.6813 32.0512 13.4723 32.0512 14.406C32.0512 15.6026 32.3964 16.5356 33.1058 17.2238C33.7343 17.8727 34.6068 18.1568 35.6811 18.1568C36.33 18.1568 36.8777 18.0759 37.3642 17.9332C37.5063 17.8931 37.6483 17.8523 37.7699 17.7912C38.3373 17.5479 38.9461 17.0811 39.6154 16.4125L40.2039 17.2034L41.0153 18.0359C41.2381 18.1371 41.4209 18.1167 41.5826 17.9747L43.4282 16.3717C43.6306 16.2311 43.6306 15.9879 43.4282 15.7446L42.82 14.8116C42.6175 14.406 42.536 14.0003 42.536 13.5342V9.78264C42.536 8.64647 42.4755 7.87592 42.4347 7.53143C42.3131 6.76088 41.9679 6.11195 41.461 5.6451C40.6504 4.83449 39.4334 4.44849 37.8515 4.44849H37.365C36.2499 4.50894 35.2966 4.77331 34.5056 5.23943C33.3906 5.86797 32.7212 6.84172 32.478 8.13957C32.3971 8.40322 32.5188 8.56491 32.8232 8.64648L35.1349 8.86934C35.3781 8.86934 35.5201 8.72732 35.5609 8.42361C35.6826 7.97716 35.9062 7.61227 36.2907 7.36902C36.5747 7.14543 36.9396 7.0238 37.3657 7.00413C37.4065 6.98374 37.4465 6.98374 37.4873 6.98374C38.1159 6.98374 38.582 7.2066 38.866 7.63267C39.008 7.81475 39.1093 8.09951 39.1297 8.48406L39.1501 9.68068L37.365 9.88315ZM37.365 15.7228C37.2637 15.7439 37.1421 15.7439 37.0409 15.7439C36.574 15.7439 36.2091 15.58 35.9659 15.2559C35.7022 14.9726 35.5602 14.5473 35.5602 13.9988C35.5602 12.8838 36.1683 12.1533 37.365 11.8292C37.8515 11.6872 38.4603 11.6267 39.1501 11.6267V12.1132C39.1297 12.7622 39.1093 13.2086 39.1093 13.4511C39.0481 13.8969 38.8857 14.2829 38.6832 14.6485C38.3387 15.2778 37.9126 15.6215 37.365 15.7228ZM61.0752 4.54899C59.392 4.54899 58.033 5.21831 57.06 6.53655C56.127 7.75284 55.6405 9.37552 55.6405 11.3835C55.6405 13.371 56.127 14.9733 57.06 16.2508C58.0133 17.6091 59.3716 18.2791 61.0752 18.2791H61.1159C62.7386 18.258 64.0569 17.5894 65.0714 16.312C66.0444 15.0345 66.5506 13.4723 66.5506 11.5459C66.5506 9.49787 66.0641 7.87519 65.1522 6.59773C64.1581 5.2387 62.7991 4.54972 61.1159 4.54972L61.0752 4.54899ZM61.1152 15.6827H61.0744C60.2434 15.6827 59.695 15.1153 59.4117 13.9384C59.2901 13.2895 59.2092 12.3361 59.2092 10.9975C59.2092 9.92248 59.2901 9.07035 59.4729 8.48261C59.7569 7.54964 60.3046 7.06312 61.0955 7.06312H61.1159C61.8661 7.08352 62.3934 7.50958 62.6578 8.30053C62.901 9.07108 63.0023 10.1461 63.0023 11.5452C63.0023 12.701 62.9214 13.6136 62.7386 14.2013C62.4342 15.1962 61.8865 15.6827 61.1152 15.6827ZM98.2475 4.48854C96.6044 4.50894 95.3073 5.15786 94.394 6.53655C93.4624 7.79435 93.0357 9.37552 93.0357 11.3223C93.0357 13.2283 93.4209 14.8109 94.2323 16.0876C95.1259 17.5472 96.383 18.2784 98.0049 18.2784H98.2482C99.8497 18.2369 101.148 17.5275 102.102 16.1692C102.994 14.8918 103.46 13.2895 103.48 11.3427C103.461 9.45709 103.055 7.89558 102.223 6.61812C101.291 5.21904 100.053 4.48854 98.4514 4.48854H98.2475ZM98.2475 16.5945C97.7413 16.5749 97.2548 16.4125 96.8688 16.108C96.4102 15.8092 96.0446 15.3879 95.8134 14.8917C95.3881 13.9988 95.1645 12.8233 95.1645 11.3223C95.1645 9.96327 95.3466 8.84822 95.7319 8.03688C95.9751 7.4484 96.3007 7.02234 96.7464 6.67785C97.2133 6.35302 97.6794 6.17094 98.2475 6.17094C98.6939 6.17094 99.1396 6.29257 99.6058 6.597C99.991 6.86065 100.336 7.26633 100.6 7.71278C101.086 8.58457 101.33 9.78119 101.33 11.3223C101.33 12.7418 101.148 13.8575 100.762 14.6485C100.215 15.9063 99.3625 16.5348 98.2475 16.5945Z" fill="black"/>
</g>
<defs>
<clipPath id="clip0_667_2191">
<rect width="128" height="27.7421" fill="white" transform="translate(0.5 0.128906)"/>
</clipPath>
</defs>
</svg>
