<svg width="90" height="64" viewBox="0 0 90 64" fill="none" xmlns="http://www.w3.org/2000/svg">
<g clip-path="url(#clip0_667_2165)">
<path d="M11.9617 51.054C12.1445 51.054 12.2591 51.0574 12.3712 51.0601C12.4806 51.0629 12.5883 51.0659 12.755 51.0659C13.8041 51.0659 14.282 50.418 14.282 49.8167C14.282 49.2942 13.9328 48.89 13.3774 48.7474C13.6734 48.586 13.9563 48.2681 13.9563 47.7869C13.9563 47.381 13.7412 47.0471 13.3827 46.8923C13.1504 46.789 12.8868 46.745 12.5003 46.745C12.369 46.745 12.2491 46.7483 12.1353 46.7511C12.034 46.7544 11.9382 46.7569 11.8432 46.7569C11.5891 46.7569 10.8794 46.745 10.8794 46.745L10.8193 46.7439V47.0546L11.0375 47.0991C11.3418 47.1667 11.3418 47.1706 11.3457 47.2569C11.3518 47.3915 11.3518 47.6349 11.3518 47.917V49.8936C11.3518 50.1758 11.3518 50.4189 11.3457 50.554C11.3418 50.6401 11.3418 50.6437 11.0383 50.7113L10.8193 50.7567V51.0665L10.8794 51.0659C10.8794 51.0659 11.6663 51.054 11.9617 51.054ZM13.0177 48.5054C12.9269 48.6095 12.729 48.6621 12.4294 48.6621H12.122V47.1603C12.1638 47.1575 12.2289 47.154 12.3111 47.154C12.7276 47.154 12.9665 47.2658 13.0856 47.5169C13.1448 47.641 13.1805 47.8129 13.1805 47.976C13.1805 48.1806 13.1174 48.3841 13.0177 48.5054ZM13.4942 49.9881C13.4942 50.1312 13.4627 50.2644 13.4073 50.3555C13.293 50.5568 13.0762 50.6506 12.7251 50.6506C12.456 50.6506 12.2189 50.6099 12.122 50.5903V49.089H12.2931C12.8541 49.089 13.2165 49.2333 13.373 49.5223C13.4546 49.653 13.4942 49.8056 13.4942 49.9881Z" fill="#767E84"/>
<path d="M16.4978 50.7619L16.1027 50.6819C15.9895 50.6553 15.9715 50.6321 15.9693 50.6279L15.9745 50.5975L16.222 49.7757H17.6219L17.927 50.595L17.9304 50.6379C17.9246 50.6487 17.9068 50.6584 17.8803 50.6636L17.4439 50.7633V51.0657H19.2555V50.7669L18.8706 50.6473C18.7926 50.6235 18.7887 50.6171 18.7602 50.5468L17.4229 47.0914C17.3412 46.8748 17.3179 46.8112 17.2769 46.6589L17.2612 46.6005L17.203 46.6171C16.8564 46.7159 16.7312 46.8015 16.6243 47.1404L15.4468 50.5487C15.4216 50.6204 15.4003 50.6365 15.2934 50.6645L14.8933 50.7644V51.0659H16.4978M16.3644 49.2956L16.7376 48.0527C16.7827 47.904 16.8212 47.7694 16.8492 47.6687L17.4475 49.2956H16.3644Z" fill="#767E84"/>
<path d="M21.3618 50.7567L21.1437 50.7115C20.8391 50.6426 20.8388 50.639 20.8349 50.5543C20.8291 50.4191 20.8291 50.1755 20.8291 49.8939V47.7041L23.4686 51.0432L23.4863 51.0657H23.9479V47.9173C23.9479 47.6352 23.9479 47.3918 23.9537 47.2575C23.9576 47.1706 23.9578 47.167 24.2616 47.0994L24.4806 47.0548V46.7453H22.9647V47.0548L23.1829 47.0991C23.4874 47.1675 23.4874 47.1706 23.4913 47.2572C23.4971 47.3921 23.4971 47.6352 23.4971 47.9173V49.8059L21.0825 46.7674L21.065 46.745H19.8459V47.0545L20.0647 47.0988C20.3679 47.1653 20.3684 47.1822 20.3726 47.2749C20.3787 47.4098 20.3787 47.6335 20.3787 47.917V49.8939C20.3787 50.1755 20.3787 50.4189 20.3726 50.5543C20.369 50.6404 20.3687 50.644 20.065 50.7112L19.8459 50.7567V51.0654H21.3618" fill="#767E84"/>
<path d="M27.0597 50.7567L26.8418 50.7116C26.5373 50.6426 26.5373 50.639 26.5331 50.5543C26.5273 50.4192 26.5273 50.1755 26.5273 49.8939V48.9891C26.6093 49.0594 26.6663 49.1181 26.7604 49.2289L27.6949 50.2816C28.2957 50.9868 28.5588 51.12 29.3498 51.12C29.3861 51.12 29.4237 51.1197 29.4628 51.1188L29.5048 51.1186L29.6114 50.8068L29.5447 50.7938C29.2404 50.7326 29.097 50.6219 28.5826 50.0484L27.4947 48.8778C27.3973 48.7671 27.3444 48.7136 27.2898 48.6707L28.7498 47.3699C29.0004 47.1487 29.0602 47.1188 29.2058 47.0878L29.3913 47.0554V46.7448H27.6747V47.0521L28.1116 47.1587C28.1952 47.177 28.2179 47.1911 28.224 47.1889C28.2154 47.2135 28.1487 47.2775 28.0942 47.3306L26.5273 48.8917V47.9168C26.5273 47.6346 26.5273 47.3913 26.5331 47.257C26.5373 47.1728 26.5376 47.1678 26.8407 47.0989L27.0597 47.0543V46.7448H25.2246V47.0543L25.4425 47.0986C25.7471 47.1664 25.7474 47.17 25.7512 47.2567C25.7573 47.3915 25.7573 47.6346 25.7573 47.9168V49.8937C25.7573 50.1753 25.7573 50.4186 25.7512 50.554C25.7474 50.6401 25.7471 50.6437 25.4433 50.711L25.2246 50.7564V51.0651H27.0597" fill="#767E84"/>
<path d="M34.5807 49.3902L34.7861 49.4356C35.0907 49.5076 35.0913 49.5245 35.0954 49.6167C35.1015 49.7516 35.1015 49.9924 35.1015 50.271V50.627C34.9553 50.6614 34.6978 50.7087 34.3797 50.7087C33.3395 50.7087 32.6935 49.9811 32.6935 48.8096C32.6935 48.1991 32.8231 47.7996 33.1135 47.515C33.3536 47.2804 33.6963 47.1761 34.2255 47.1761C34.9005 47.1761 35.2405 47.3228 35.3283 47.6526C35.362 47.7766 35.3795 47.8669 35.4216 48.1385L35.4296 48.1889H35.7671L35.7707 48.1329C35.8017 47.6307 35.812 47.2793 35.8064 46.9208L35.8056 46.8679L35.753 46.8624C35.6453 46.8507 35.5376 46.838 35.4282 46.8244C35.0807 46.7818 34.7216 46.738 34.2789 46.738C33.5756 46.738 33.0678 46.8754 32.6816 47.1702C32.1392 47.5737 31.8643 48.1568 31.8643 48.9046C31.8643 49.699 32.155 50.3358 32.7054 50.7456C33.0845 51.0241 33.626 51.1778 34.2316 51.1778C34.7715 51.1778 35.3919 51.0601 35.8521 50.8707L35.8997 50.8516L35.8873 50.8012C35.8734 50.7461 35.8654 50.5894 35.8654 50.372V50.2715C35.8654 49.993 35.8654 49.7521 35.8715 49.6173C35.8756 49.5251 35.8762 49.5079 36.1797 49.4365L36.3862 49.3908V49.0696H34.5807" fill="#767E84"/>
<path d="M40.5652 46.9748C40.2305 46.8075 39.852 46.7267 39.4084 46.7267C38.8793 46.7267 38.4214 46.8388 38.0459 47.0606C37.3828 47.4599 37.0173 48.1443 37.0173 48.9874C37.0173 49.5519 37.2037 50.0965 37.5279 50.4811C37.9128 50.9515 38.5119 51.2013 39.2606 51.2013C39.8935 51.2013 40.4224 51.0208 40.8321 50.6653C41.3305 50.2325 41.616 49.5771 41.616 48.8692C41.616 47.9959 41.2427 47.3234 40.5652 46.9748ZM39.3492 50.7619H39.2902C38.8425 50.7619 38.4552 50.5409 38.1979 50.1381C37.9822 49.8061 37.8582 49.3321 37.8582 48.8392C37.8582 48.0823 38.0955 47.588 38.5842 47.3294C38.7938 47.219 39.038 47.1647 39.3315 47.1647C40.3783 47.1647 40.7513 48.0939 40.7513 48.9633C40.7513 49.3509 40.6801 49.7325 40.5558 50.0093C40.3332 50.488 39.8935 50.7619 39.3492 50.7619Z" fill="#767E84"/>
<path d="M44.0352 50.7384C43.4446 50.7384 43.2821 50.5806 43.1952 50.4111C43.1099 50.2347 43.0819 50.147 42.9972 49.869L42.9839 49.8247L42.6533 49.8421L42.6561 49.9011C42.6799 50.456 42.7984 50.9718 42.7998 50.977L42.8081 51.013L42.8438 51.0213C43.1819 51.1011 43.5817 51.1828 43.9818 51.1828C45.0001 51.1828 45.5328 50.5424 45.5328 49.91C45.5328 49.4218 45.2748 49.0519 44.721 48.7454L44.1113 48.4079C43.7528 48.2099 43.5858 47.9896 43.5858 47.7146C43.5858 47.3663 43.8489 47.1586 44.2897 47.1586C44.6308 47.1586 44.7462 47.2281 44.7836 47.268C44.8199 47.3098 44.8465 47.3635 44.8847 47.451C44.9309 47.5776 45.0242 47.9104 45.0253 47.9137L45.0375 47.9574H45.3401L45.3435 47.9012C45.3437 47.8954 45.3725 47.3464 45.3255 46.8508L45.3202 46.797H45.2662C45.1275 46.797 44.9918 46.7835 44.8476 46.7696C44.6861 46.7539 44.5197 46.7378 44.3309 46.7378C43.3347 46.7378 42.8809 47.3455 42.8809 47.9101C42.8809 48.424 43.1309 48.8094 43.6454 49.0863L44.2492 49.4168C44.5779 49.6015 44.7451 49.8269 44.7451 50.0874C44.7451 50.5072 44.4932 50.7384 44.0352 50.7384Z" fill="#767E84"/>
<path d="M48.8874 46.9003C48.6124 46.8222 48.3535 46.797 47.8242 46.797H46.5217V47.1063L46.7399 47.1508C47.0442 47.2187 47.0445 47.2223 47.0483 47.3092C47.0544 47.4435 47.0544 47.6866 47.0544 47.9693V49.9459C47.0544 50.2283 47.0544 50.4709 47.0483 50.606C47.0445 50.6924 47.0442 50.6957 46.7407 50.7633L46.5217 50.8089V51.1177H48.3569V50.8089L48.1387 50.7633C47.8341 50.6943 47.8341 50.6913 47.8302 50.606C47.8244 50.4714 47.8244 50.2283 47.8244 49.9459V49.421C47.9551 49.4403 48.219 49.4506 48.3322 49.4506C49.1831 49.4506 49.777 48.8783 49.777 48.0584C49.777 47.4931 49.4359 47.0487 48.8874 46.9003ZM47.9955 47.23C48.4466 47.23 48.763 47.4236 48.9109 47.7902C48.9574 47.9045 48.9773 48.0238 48.9773 48.1883C48.9773 48.3555 48.9433 48.7653 48.6257 48.9613C48.4743 49.0605 48.1021 49.0987 47.8244 49.0818V47.2381C47.8704 47.2342 47.9363 47.23 47.9955 47.23Z" fill="#767E84"/>
<path d="M55.3445 48.8686C55.3445 47.9959 54.9716 47.3234 54.2938 46.9745C53.959 46.8073 53.5805 46.7264 53.137 46.7264C52.6079 46.7264 52.1499 46.8386 51.7748 47.0604C51.1114 47.4596 50.7456 48.144 50.7456 48.9871C50.7456 49.5517 50.9322 50.0963 51.2564 50.4809C51.6413 50.9513 52.2405 51.201 52.9891 51.201C53.6221 51.201 54.1509 51.0205 54.5607 50.665C55.0591 50.232 55.3445 49.5769 55.3445 48.8686ZM53.078 50.7619H53.0185C52.5713 50.7619 52.1834 50.541 51.9265 50.1381C51.7108 49.8061 51.5865 49.3321 51.5865 48.8393C51.5865 48.0823 51.824 47.5881 52.3124 47.3295C52.522 47.219 52.7668 47.1647 53.0597 47.1647C54.1066 47.1647 54.4796 48.0939 54.4796 48.9633C54.4796 49.351 54.4084 49.7325 54.2841 50.0094C54.0618 50.4881 53.6221 50.7619 53.078 50.7619Z" fill="#767E84"/>
<path d="M56.6727 47.3095C56.6788 47.4435 56.6787 47.6869 56.6787 47.9693V49.9462C56.6787 50.2283 56.6788 50.4714 56.6727 50.606C56.6688 50.6929 56.6682 50.7021 56.3642 50.7635L56.1579 50.8098V51.1188L56.218 51.1179C56.218 51.1179 56.975 51.1063 57.3421 51.1063C57.4942 51.1063 57.6451 51.1094 57.7907 51.1121C57.9283 51.1152 58.0618 51.1179 58.1883 51.1179C59.1969 51.1179 59.8692 50.789 60.3044 50.0838C60.5013 49.7621 60.609 49.331 60.609 48.8686C60.609 47.8754 60.0885 47.1644 59.1809 46.9177C58.8708 46.8327 58.5299 46.797 58.041 46.797C57.9241 46.797 57.8045 46.8003 57.6833 46.8028C57.5578 46.8061 57.4299 46.8086 57.3012 46.8086C56.8637 46.8086 56.1361 46.7967 56.1361 46.7967L56.0754 46.7959V47.106L56.2958 47.1514C56.6685 47.2195 56.6693 47.2262 56.6727 47.3095ZM58.2827 50.6558C57.879 50.6558 57.562 50.6007 57.4482 50.5783V47.2815C57.5396 47.2702 57.7397 47.2478 57.9272 47.2478C58.8259 47.2478 59.3174 47.5321 59.6244 48.2298C59.7225 48.4555 59.7853 48.7714 59.7853 49.0347C59.7853 49.3963 59.7255 49.6782 59.5954 49.9268C59.365 50.4169 58.9353 50.6558 58.2827 50.6558Z" fill="#767E84"/>
<path d="M62.7228 50.8142L62.3275 50.7345C62.2145 50.7076 62.1962 50.6843 62.1943 50.6805L62.1995 50.6497L62.4471 49.828H63.8472L64.1526 50.6475L64.156 50.6904C64.1501 50.7012 64.1324 50.7109 64.1056 50.7162L63.6695 50.8159V51.1179H65.4811V50.8195L65.0959 50.6998C65.0181 50.6752 65.014 50.6697 64.9858 50.5991L63.6484 47.1434C63.5665 46.9271 63.5435 46.8637 63.5022 46.7112L63.4867 46.6525L63.4289 46.6691C63.082 46.7685 62.9568 46.8538 62.8499 47.1927L61.6724 50.601C61.6469 50.6727 61.6259 50.689 61.519 50.717L61.1189 50.817V51.1182H62.7234M62.5894 49.3479L62.9626 48.1052C63.0078 47.9563 63.0465 47.8214 63.0742 47.7209L63.6725 49.3479H62.5894Z" fill="#767E84"/>
<path d="M67.9069 50.809L67.6887 50.7633C67.3839 50.6944 67.3839 50.6911 67.38 50.6061C67.3742 50.4715 67.3742 50.2281 67.3742 49.946V49.4136H67.8499C67.9174 49.4681 67.9615 49.5179 68.0736 49.6467L68.66 50.3452C69.2304 51.015 69.4868 51.159 70.1059 51.159C70.179 51.159 70.257 51.157 70.3415 51.1532L70.3811 51.1515L70.4952 50.8439L70.4301 50.8284C70.1214 50.7556 70.0281 50.6623 69.5192 50.1127L68.9156 49.4559C68.7993 49.3266 68.7251 49.2552 68.6542 49.1995C69.0429 49.0337 69.4045 48.609 69.4045 48.0455C69.4045 47.4751 69.0654 47.0319 68.5219 46.8876C68.312 46.8256 68.0562 46.7965 67.7178 46.7965C67.5755 46.7965 67.4706 46.8001 67.3692 46.8029C67.2762 46.8059 67.1859 46.8084 67.0727 46.8084C66.8005 46.8084 66.1327 46.7965 66.1327 46.7965L66.0718 46.7954V47.1058L66.29 47.1506C66.5945 47.2185 66.5948 47.2221 66.5984 47.3085C66.6042 47.443 66.6042 47.6867 66.6042 47.9688V49.9454C66.6042 50.2276 66.6042 50.4704 66.5984 50.6055C66.5945 50.6919 66.5942 50.6952 66.2908 50.7628L66.0718 50.8085V51.1172H67.9072M67.3742 48.9692V47.2412C67.4324 47.2359 67.5298 47.2301 67.6104 47.2301C68.0719 47.2301 68.389 47.4178 68.5263 47.772C68.575 47.8971 68.5988 48.0295 68.5988 48.1765C68.5988 48.3036 68.5836 48.4129 68.554 48.4974C68.4643 48.8108 68.2862 48.9692 68.0251 48.9692H67.3742Z" fill="#767E84"/>
<path d="M72.2803 50.7384C71.6897 50.7384 71.5275 50.5806 71.4405 50.4111C71.3552 50.2347 71.3273 50.147 71.2423 49.869L71.229 49.8247L70.8987 49.8421L70.9017 49.9011C70.925 50.456 71.0438 50.9718 71.0451 50.977L71.0535 51.013L71.0892 51.0213C71.4275 51.1011 71.8271 51.1828 72.2269 51.1828C73.2458 51.1828 73.7782 50.5424 73.7782 49.91C73.7782 49.4218 73.5199 49.0519 72.9661 48.7454L72.3567 48.4079C71.9982 48.2099 71.8312 47.9896 71.8312 47.7146C71.8312 47.3663 72.0945 47.1586 72.535 47.1586C72.8759 47.1586 72.9916 47.2281 73.029 47.268C73.065 47.3098 73.0918 47.3635 73.13 47.451C73.1763 47.5776 73.2699 47.9104 73.271 47.9137L73.2831 47.9574H73.5855L73.5888 47.9012C73.5894 47.8954 73.6179 47.3464 73.5711 46.8508L73.5656 46.797H73.5116C73.3737 46.797 73.2375 46.7835 73.0926 46.7696C72.9318 46.7539 72.7651 46.7378 72.5768 46.7378C71.5798 46.7378 71.1266 47.3455 71.1266 47.9101C71.1266 48.424 71.3768 48.8094 71.8913 49.0863L72.4952 49.4168C72.8241 49.6015 72.9908 49.8269 72.9908 50.0874C72.9899 50.5072 72.738 50.7384 72.2803 50.7384Z" fill="#767E84"/>
<path d="M78.21 46.7392L78.1469 46.7469C77.962 46.7691 77.8235 46.7804 77.5804 46.7793L75.1483 46.7693C74.9047 46.7685 74.766 46.7563 74.5816 46.7325L74.5182 46.7245L74.514 46.7873C74.4919 47.1409 74.4902 47.5731 74.5093 47.943L74.5126 47.9987L74.8346 48.0003L74.8925 47.7608C74.9459 47.5357 74.9731 47.4225 75.0041 47.3569C75.0581 47.2406 75.1763 47.173 75.6196 47.175L75.9737 47.1764L75.9629 49.9219C75.9615 50.2043 75.9607 50.4474 75.9546 50.5822C75.9499 50.6686 75.9499 50.6716 75.6462 50.7381L75.4271 50.7829L75.4258 51.0919L77.2667 51.0991L77.2678 50.7901L77.0505 50.7436C76.7456 50.675 76.7456 50.6714 76.7423 50.5853C76.7365 50.4504 76.7376 50.207 76.7393 49.9249L76.7501 47.1791L77.1047 47.1811C77.5477 47.1827 77.6651 47.2508 77.7191 47.3677C77.7468 47.4289 77.7673 47.518 77.8127 47.7143C77.8291 47.7841 77.8484 47.8672 77.8722 47.9668L77.8833 48.0125L78.2053 48.0139L78.2086 47.9577C78.2314 47.5856 78.233 47.1539 78.2136 46.8028" fill="#767E84"/>
<path d="M85.2023 47.1479L85.359 47.1221L85.3601 46.8109L83.8797 46.8054L83.878 47.1097L84.0978 47.1493C84.1596 47.1614 84.3459 47.1991 84.3739 47.2467C84.3816 47.2595 84.3794 47.2844 84.3658 47.3284C84.1142 48.1109 83.8204 48.9949 83.3807 50.1622L82.5285 47.9098C82.4036 47.5776 82.3532 47.4416 82.3189 47.3206C82.3064 47.2794 82.3042 47.2559 82.3111 47.2448C82.3363 47.2016 82.5144 47.1601 82.5866 47.1432L82.8079 47.1058L82.8093 46.8009L81.0627 46.794L81.0613 47.0944L81.2186 47.1365C81.4431 47.1936 81.4783 47.2511 81.5204 47.345L81.6311 47.6277L81.7588 47.9818C81.542 48.6638 81.3152 49.307 80.9896 50.1656L80.1319 47.9057C80.005 47.5693 79.956 47.4311 79.9225 47.3107C79.909 47.2664 79.9062 47.2415 79.9145 47.2282C79.943 47.1811 80.1302 47.1448 80.19 47.1332L80.4112 47.0958L80.4123 46.791L78.6423 46.7841L78.6409 47.0922L78.7943 47.1271C79.0064 47.1753 79.0257 47.2157 79.0722 47.3143L79.0894 47.3503C79.1464 47.4715 79.24 47.7016 79.3458 47.9804L80.3647 50.6479C80.4846 50.9582 80.5311 51.1925 80.5314 51.1947L80.5433 51.2567L80.6048 51.2409C80.9821 51.1462 81.0591 51.0269 81.1978 50.6814L81.3656 50.2661C81.5484 49.8161 81.7372 49.3515 82.0154 48.633L82.7915 50.6634C82.9217 51.0067 82.9516 51.2 82.9518 51.2016L82.961 51.2648L83.023 51.2512C83.3832 51.1745 83.4652 51.0408 83.6064 50.6789C83.6731 50.5133 83.7404 50.348 83.8121 50.1739C84.0718 49.5376 84.3952 48.746 84.9141 47.3577C84.9564 47.237 84.9722 47.1916 85.2023 47.1479Z" fill="#767E84"/>
<path d="M89.1491 50.7279C89.0716 50.7035 89.068 50.6975 89.0395 50.6266L87.7163 47.1662C87.6352 46.9491 87.6125 46.886 87.572 46.7331L87.5565 46.6744L87.4981 46.6911C87.1509 46.7891 87.0255 46.8738 86.9175 47.2119L85.7264 50.6155C85.7004 50.6872 85.679 50.7033 85.5716 50.731L85.1718 50.829L85.1704 51.1305L86.7744 51.1366L86.776 50.8331L86.3812 50.7514C86.2685 50.7246 86.2505 50.7011 86.2486 50.6969L86.2533 50.6664L86.5047 49.8458L87.9046 49.8516L88.2066 50.6723L88.2094 50.7152C88.2036 50.726 88.1856 50.7354 88.1593 50.7409L87.7224 50.8389L87.7213 51.141L89.5329 51.1479L89.534 50.8492M87.7321 49.3707L86.6487 49.3662L87.0271 48.125C87.0725 47.976 87.1121 47.8418 87.1404 47.741L87.7321 49.3707Z" fill="#767E84"/>
<path d="M20.6928 33.6108C24.2164 33.6108 25.2732 26.0388 17.988 26.0388H10.1228V26.471H10.1236C10.8025 26.471 11.3527 27.0217 11.3527 27.7004V42.3842H18.9649C26.6997 42.3845 26.0933 34.1912 20.6928 33.6108ZM14.902 40.8046V27.7632C19.2675 26.9974 20.2033 28.8547 20.2033 30.8061C20.2033 33.7421 16.8778 33.6106 16.1698 33.6108L16.1703 34.1386C19.778 34.1386 21.1433 35.6907 21.1433 37.8936C21.1433 39.9865 18.696 41.4539 14.902 40.8046Z" fill="#767E84"/>
<path d="M59.1522 41.6358C58.4293 41.3202 57.4801 40.1385 56.9776 39.5543C55.9914 38.4083 51.5433 32.8328 51.5433 32.8328C51.5433 32.8328 56.1882 28.2433 56.987 27.601C57.4331 27.2424 57.9508 26.674 58.6319 26.4973C58.761 26.4638 59.0766 26.4716 59.0766 26.4716L59.0769 26.0397H53.8193V26.4716H53.8204C54.28 26.4716 54.6798 26.7247 54.8911 27.0982C52.7267 29.2622 48.0195 33.9697 48.0195 33.9697C48.0195 33.9697 52.3693 39.5244 53.1174 40.4002C53.7741 41.1688 54.5743 41.7782 55.5603 42.0642C56.096 42.2195 56.6586 42.3267 57.2143 42.3588C58.0433 42.4078 58.877 42.3718 59.7178 42.3718C59.8286 42.1187 59.802 42.1495 59.8765 41.9573C59.6447 41.8681 59.3612 41.7272 59.1522 41.6358Z" fill="#767E84"/>
<path d="M42.812 26.0397V26.4713L42.8123 26.4719H42.8128C43.4917 26.4719 44.0422 27.022 44.0422 27.7007L44.0419 42.3845H47.5912V26.0397H42.812Z" fill="#767E84"/>
<path d="M36.6156 33.9702C36.6156 34.2715 36.6156 34.1125 36.6165 34.4022C37.2954 34.4022 37.8458 34.9529 37.8458 35.6312C37.8458 35.6503 37.8455 40.1592 37.8455 41.1521C37.0174 41.3603 36.1732 41.4284 35.2188 41.2803C31.7263 40.7368 29.9836 36.7822 30.1926 33.5045C30.7453 24.8485 39.7161 26.2246 39.5965 30.7405H40.3443V26.2789C38.69 25.9483 37.4451 25.757 35.6643 25.757C32.2847 25.757 28.5735 27.0633 26.9164 31.266C26.5226 32.2652 26.4385 33.3401 26.4385 34.3786C26.4385 37.6823 28.4863 42.7627 34.8101 42.7627C36.8036 42.7627 39.3033 42.4797 41.0797 41.9368L41.0778 33.9702H36.6156Z" fill="#767E84"/>
<path d="M19.2608 56.4983L18.6578 55.8416C18.5412 55.7128 18.467 55.6417 18.3964 55.5854C18.7848 55.4202 19.1462 54.9951 19.1462 54.4317C19.1462 53.8613 18.8073 53.4178 18.2635 53.2741C18.0539 53.2112 17.7983 53.183 17.4592 53.183C17.3177 53.183 17.2127 53.186 17.1117 53.1891C17.0184 53.1921 16.9278 53.1949 16.814 53.1949C16.5424 53.1949 15.8743 53.183 15.8743 53.183L15.814 53.1819V53.492L16.0316 53.5371C16.3367 53.6044 16.3367 53.6083 16.3406 53.6947C16.3467 53.8292 16.3467 54.0726 16.3467 54.3547V56.3316C16.3467 56.6135 16.3467 56.8566 16.3406 56.9917C16.3367 57.0781 16.3367 57.0814 16.0327 57.149L15.814 57.1949V57.5034H17.6491V57.1949L17.4312 57.1492C17.1266 57.08 17.1266 57.0767 17.1228 56.9917C17.1167 56.8571 17.1167 56.6135 17.1167 56.3316V55.7992H17.5923C17.6596 55.8537 17.7039 55.9039 17.8161 56.0323L18.4025 56.7309C18.9723 57.4004 19.229 57.5449 19.8478 57.5449C19.9212 57.5449 19.999 57.5427 20.0837 57.5391L20.123 57.5372L20.2373 57.2298L20.1717 57.2143C19.8627 57.1418 19.77 57.0487 19.2608 56.4983ZM18.3407 54.5618C18.3407 54.6886 18.3255 54.7983 18.2959 54.8833C18.2059 55.1959 18.0281 55.3545 17.7673 55.3545H17.1167V53.6268C17.1745 53.6218 17.2725 53.6155 17.3528 53.6155C17.8141 53.6155 18.1306 53.8035 18.2679 54.1576C18.3169 54.2825 18.3407 54.4154 18.3407 54.5618Z" fill="#767E84"/>
<path d="M24.3288 56.9848L22.9915 53.5294C22.9093 53.3126 22.8863 53.2495 22.8453 53.0969L22.8295 53.0382L22.7714 53.0551C22.4247 53.1539 22.2996 53.2395 22.1927 53.5784L21.0154 56.9867C20.9902 57.0585 20.9684 57.0745 20.8615 57.1028L20.4617 57.2024V57.5039H22.0664V57.2002L21.6711 57.1202C21.5581 57.0936 21.5401 57.0704 21.5379 57.0662L21.5426 57.0357L21.7904 56.2143H23.1903L23.4954 57.0335L23.4987 57.0762C23.4929 57.087 23.4749 57.0967 23.4489 57.1019L23.0123 57.2016V57.5039H24.8239V57.2052L24.4387 57.0856C24.3609 57.0609 24.357 57.0551 24.3288 56.9848ZM23.0161 55.7336H21.933L22.3059 54.4907C22.3508 54.342 22.3893 54.2075 22.4178 54.1067L23.0161 55.7336Z" fill="#767E84"/>
<path d="M32.0132 53.3608C31.6787 53.1936 31.3002 53.1124 30.8567 53.1124C30.3276 53.1124 29.8696 53.2246 29.4945 53.4466C28.8308 53.8456 28.4656 54.5303 28.4656 55.3731C28.4656 55.938 28.6519 56.4826 28.9761 56.8666C29.361 57.3376 29.9602 57.5865 30.7088 57.5865C31.342 57.5865 31.8706 57.4065 32.2807 57.051C32.7788 56.6185 33.0642 55.9631 33.0642 55.2549C33.0642 54.3816 32.6915 53.7091 32.0132 53.3608ZM30.7974 57.1479H30.7382C30.291 57.1479 29.9034 56.9267 29.6462 56.5241C29.4302 56.1921 29.3065 55.7184 29.3065 55.2255C29.3065 54.4683 29.544 53.9741 30.0324 53.7155C30.242 53.6047 30.4865 53.551 30.7794 53.551C31.8266 53.551 32.1995 54.4799 32.1995 55.3496C32.1995 55.7369 32.1284 56.1182 32.0038 56.3954C31.7814 56.8741 31.342 57.1479 30.7974 57.1479Z" fill="#767E84"/>
<path d="M38.9044 53.4875L39.1242 53.526C39.1854 53.5379 39.3723 53.5748 39.4006 53.6224C39.4086 53.6351 39.4061 53.66 39.3925 53.7043C39.1439 54.4873 38.8543 55.3725 38.4185 56.542L37.5577 54.2927C37.4314 53.9616 37.3805 53.8253 37.3458 53.7046C37.3334 53.6639 37.3309 53.6404 37.3375 53.6288C37.3627 53.5858 37.5405 53.5435 37.613 53.5266L37.8337 53.4878V53.1833H36.0877V53.4837L36.245 53.5252C36.4693 53.5811 36.505 53.6384 36.5473 53.732L36.6595 54.0147L36.7885 54.3683C36.5745 55.0513 36.3505 55.6956 36.0279 56.5548L35.1607 54.2988C35.0331 53.9629 34.9835 53.8248 34.9495 53.7046C34.9359 53.66 34.9334 53.6351 34.9409 53.6224C34.9697 53.5748 35.156 53.5379 35.2161 53.5263L35.4371 53.4875V53.183H33.667V53.4914L33.8204 53.5252C34.0327 53.5725 34.0518 53.6127 34.0992 53.7115L34.1166 53.7475C34.174 53.8683 34.2686 54.0975 34.3755 54.3763L35.4049 57.0393C35.5259 57.3497 35.5733 57.5831 35.5738 57.5859L35.586 57.6473L35.6469 57.6318C36.0246 57.5355 36.1005 57.4159 36.2378 57.0698L36.4039 56.6539C36.585 56.2032 36.7719 55.7374 37.0471 55.0184L37.8312 57.0451C37.9627 57.3882 37.9935 57.5814 37.994 57.5831L38.0034 57.646L38.0655 57.6321C38.4248 57.5543 38.5057 57.42 38.6463 57.0581C38.7122 56.8917 38.7795 56.7264 38.8501 56.5517C39.1071 55.9144 39.4274 55.1214 39.941 53.7306C39.9828 53.6105 39.9983 53.5653 40.2281 53.5199L40.3846 53.4939V53.183H38.9044" fill="#767E84"/>
<path d="M44.1675 56.3139C44.0853 56.578 44.0396 56.6985 43.9452 56.8989C43.8804 57.0429 43.7907 57.0767 43.0589 57.0767C42.7269 57.0767 42.4896 57.0504 42.3667 57.0246V55.4739C42.8767 55.4741 43.1702 55.4819 43.2892 55.4974C43.3787 55.5063 43.3789 55.5079 43.4033 55.5954C43.4498 55.7629 43.4675 55.8335 43.4974 55.9769L43.5074 56.0243H43.8106V54.5856H43.5082L43.4977 54.6316C43.4565 54.8077 43.439 54.8722 43.4041 54.9946C43.3917 55.0339 43.3911 55.0361 43.2859 55.0475C43.1284 55.0724 42.756 55.0763 42.3667 55.0765V53.598C43.6132 53.5994 43.6805 53.647 43.7167 53.8068C43.7405 53.9048 43.7538 53.9945 43.7704 54.1077C43.7785 54.1626 43.7876 54.2232 43.7987 54.2935L43.8067 54.3434H44.1265L44.1301 54.2874C44.157 53.8353 44.1642 53.5022 44.1536 53.24L44.1514 53.183H40.9751V53.4925L41.196 53.5379C41.5864 53.608 41.587 53.6163 41.5903 53.6946C41.5967 53.8295 41.5967 54.0731 41.5967 54.355V56.3319C41.5967 56.6138 41.5967 56.8569 41.5903 56.992C41.587 57.077 41.5864 57.0806 41.2833 57.149L41.0637 57.1949V57.5036H44.3444L44.3538 57.4557C44.3549 57.4499 44.4673 56.8779 44.5028 56.3355L44.5069 56.2721H44.1808" fill="#767E84"/>
<path d="M48.0892 55.7763L48.2944 55.8217C48.599 55.8937 48.5998 55.9103 48.604 56.0027C48.61 56.1379 48.61 56.3785 48.61 56.6573V57.0131C48.4639 57.0474 48.2061 57.0947 47.8882 57.0947C46.848 57.0947 46.2021 56.3671 46.2021 55.1954C46.2021 54.5849 46.3314 54.1859 46.6221 53.9007C46.8621 53.6665 47.2049 53.5624 47.7343 53.5624C48.409 53.5624 48.749 53.7085 48.8368 54.0389C48.8703 54.1629 48.8877 54.2532 48.9298 54.5242L48.9379 54.5746H49.2757L49.2793 54.519C49.3103 54.0167 49.3205 53.6654 49.315 53.3068L49.3141 53.2539L49.2615 53.2481C49.1538 53.2365 49.0461 53.2237 48.9365 53.2102C48.589 53.1675 48.2299 53.1238 47.7874 53.1238C47.0842 53.1238 46.5764 53.2611 46.1901 53.556C45.6477 53.9591 45.3728 54.5425 45.3728 55.2901C45.3728 56.0847 45.6635 56.7218 46.214 57.131C46.593 57.4098 47.1346 57.5632 47.7401 57.5632C48.2797 57.5632 48.9005 57.4458 49.3607 57.2567L49.4083 57.2373L49.3961 57.1872C49.382 57.1316 49.3742 56.9749 49.3742 56.7581V56.6576C49.3742 56.3787 49.3742 56.1381 49.38 56.003C49.3842 55.9105 49.3847 55.8937 49.6882 55.8222L49.8947 55.7765V55.4556H48.0892" fill="#767E84"/>
<path d="M54.18 53.3608C53.8452 53.1936 53.4667 53.1124 53.0235 53.1124C52.4941 53.1124 52.0361 53.2246 51.661 53.4466C50.9976 53.8456 50.6321 54.5303 50.6321 55.3731C50.6321 55.938 50.8184 56.4826 51.1426 56.8666C51.5275 57.3376 52.1267 57.5865 52.8753 57.5865C53.5083 57.5865 54.0371 57.4065 54.4469 57.051C54.9455 56.6185 55.231 55.9631 55.231 55.2549C55.231 54.3816 54.8583 53.7091 54.18 53.3608ZM52.9642 57.1479H52.9047C52.4575 57.1479 52.0696 56.9267 51.8127 56.5241C51.597 56.1921 51.473 55.7184 51.473 55.2255C51.473 54.4683 51.7102 53.9741 52.1989 53.7155C52.4085 53.6047 52.653 53.551 52.9459 53.551C53.9928 53.551 54.3658 54.4799 54.3658 55.3496C54.3658 55.7369 54.2949 56.1182 54.1703 56.3954C53.948 56.8741 53.5083 57.1479 52.9642 57.1479Z" fill="#767E84"/>
<path d="M25.6849 53.4925L25.903 53.5374C26.2073 53.6052 26.2076 53.6085 26.2115 53.6952C26.2173 53.8295 26.2173 54.0729 26.2173 54.355V56.9493C26.2173 57.6047 26.0716 57.945 25.6159 58.3484L25.5813 58.3791L25.7228 58.6527L25.774 58.6305C26.6129 58.2653 26.9873 57.6299 26.9873 56.57V54.355C26.9873 54.0729 26.9873 53.8298 26.9934 53.6952C26.9972 53.6085 26.9975 53.6052 27.3013 53.5377L27.52 53.4925V53.183H25.6849" fill="#767E84"/>
<path d="M14.181 56.4866L13.0931 55.3157C12.9957 55.2055 12.9431 55.1518 12.8883 55.1086L14.3482 53.8079C14.5988 53.5869 14.6589 53.5573 14.8042 53.526L14.9897 53.4936V53.1832H13.2734V53.4903L13.71 53.5969C13.7939 53.6152 13.818 53.6282 13.8224 53.6268C13.8139 53.6517 13.7477 53.7159 13.6929 53.7685L12.1257 55.3301V54.3552C12.1257 54.0731 12.1257 53.83 12.1315 53.6957C12.1354 53.6113 12.1357 53.6069 12.4392 53.5376L12.6582 53.4925V53.1835H10.8228V53.4925L11.0412 53.5376C11.3458 53.6049 11.3463 53.6088 11.3496 53.6952C11.3557 53.8297 11.3557 54.0731 11.3557 54.3552V56.3324C11.3557 56.614 11.3557 56.8571 11.3496 56.9922C11.3463 57.0786 11.3458 57.0822 11.0418 57.1498L10.8228 57.1954V57.5039H12.6582V57.1954L12.4405 57.15C12.1354 57.0808 12.1354 57.0772 12.1315 56.9922C12.1257 56.8577 12.1257 56.614 12.1257 56.3324V55.4276C12.208 55.4976 12.2647 55.5561 12.3591 55.6671L13.2933 56.7195C13.8947 57.4247 14.1572 57.5579 14.9485 57.5579C14.985 57.5579 15.0227 57.5576 15.0612 57.5573L15.1033 57.5568L15.2101 57.2453L15.1431 57.2317C14.8388 57.1714 14.6954 57.0598 14.181 56.4866Z" fill="#767E84"/>
<path d="M7.00854 57.4917H0.5V64H7.00854V57.4917Z" fill="url(#paint0_linear_667_2165)"/>
<path d="M89.4523 0H63.4193L63.4187 26.0325H89.4523V0ZM85.1125 21.6955H67.7576V4.33755H85.1125V21.6955Z" fill="url(#paint1_linear_667_2165)"/>
</g>
<defs>
<linearGradient id="paint0_linear_667_2165" x1="0.5" y1="60.7458" x2="7.00848" y2="60.7458" gradientUnits="userSpaceOnUse">
<stop stop-color="#DF1F3B"/>
<stop offset="1" stop-color="#B52036"/>
</linearGradient>
<linearGradient id="paint1_linear_667_2165" x1="63.419" y1="26.0331" x2="89.4522" y2="-2.38134e-05" gradientUnits="userSpaceOnUse">
<stop stop-color="#DF1F3B"/>
<stop offset="1" stop-color="#B52036"/>
</linearGradient>
<clipPath id="clip0_667_2165">
<rect width="88.9524" height="64" fill="white" transform="translate(0.5)"/>
</clipPath>
</defs>
</svg>
