<svg width="129" height="64" viewBox="0 0 129 64" fill="none" xmlns="http://www.w3.org/2000/svg">
<path fill-rule="evenodd" clip-rule="evenodd" d="M108.534 30.5173H104.5V14.6133H108.297V16.3947C108.772 15.3259 109.959 14.3787 111.502 14.2581C114.113 14.1408 115.893 15.6832 115.893 19.0048V30.5163H111.733V18.528C111.733 17.103 111.733 15.9168 110.773 15.68C110.417 15.5627 109.813 15.68 109.348 16.0352C108.756 16.6293 108.516 17.3419 108.516 18.528V30.5141L108.534 30.5173ZM39.9347 15.68C38.9747 14.848 37.7982 14.2549 36.3721 14.2549C34.9459 14.2549 33.8803 14.8491 32.8115 15.68C31.1497 17.1051 30.0809 19.7152 30.0809 22.5632C30.0809 25.5307 31.1475 28.0224 32.8115 29.4464C33.8803 30.2784 34.9481 30.8715 36.3721 30.8715C37.7961 30.8715 38.9833 30.2795 39.9347 29.4464C41.7161 28.0213 42.6654 25.5296 42.6654 22.5632C42.6654 19.7152 41.7054 17.104 39.9347 15.68ZM38.3923 22.5632C38.3923 25.5307 38.3923 27.904 37.9166 29.0912C37.5614 29.6832 37.2126 30.0512 36.3742 30.0512C35.6702 30.0512 35.1881 29.695 34.9491 29.0912C34.355 27.904 34.355 25.5285 34.355 22.5632C34.355 19.7152 34.355 17.2224 34.9491 16.0352C35.187 15.4432 35.6531 15.0752 36.3742 15.0752C37.2062 15.0752 37.5614 15.4315 37.9177 16.0352C38.5118 17.2224 38.3934 19.7152 38.3934 22.5632H38.3923ZM81.3534 36.5696V40.8416H80.5236C80.0489 39.0624 79.3363 37.5264 77.4377 37.3995C76.2505 37.2821 75.1827 37.9936 75.0633 39.0613C74.9438 40.1291 75.3011 41.0773 77.4377 42.2656C80.1683 43.8091 82.3038 44.5205 82.3038 47.7248C82.3038 51.1669 79.3363 52.8277 76.8446 52.8277H72.0979V46.8928H72.9299C73.5241 49.9787 74.4734 51.8773 76.7273 51.9957C78.1523 51.9957 79.219 51.1637 79.219 49.6224C79.219 48.0811 78.259 47.1296 76.0147 45.8251C73.523 44.2827 71.9795 43.3333 71.9795 41.1957C71.9795 38.3477 73.9977 36.5664 77.2019 36.5664H81.3619L81.3534 36.5696ZM86.5769 30.5163V19.0048C86.5769 15.6811 84.7955 14.1387 82.1854 14.2581C80.4041 14.3755 79.3374 15.5648 78.8617 16.5131C78.2697 14.8512 76.963 14.1397 75.0643 14.2581C73.523 14.3755 72.3337 15.3269 71.8601 16.3947V14.6133H68.1801V30.5067H72.2142V18.5323C72.2142 17.3451 72.3315 16.6336 73.0462 16.0395C73.5219 15.6843 73.9955 15.5659 74.3507 15.6843C75.3107 15.9221 75.3107 17.1093 75.3107 18.5323V30.5173H79.3268V18.4107C79.3268 17.3419 79.5635 16.6293 80.1587 16.0363C80.6334 15.6811 81.1187 15.5627 81.4633 15.6811C82.4233 15.9189 82.5299 17.1061 82.5299 18.5291V30.5067H86.5651L86.5769 30.5163ZM45.4067 11.2885H49.5667V30.5141H45.4067V11.2885ZM64.2654 30.5173V11.2907H60.1054V15.8005C59.7502 14.9685 58.9182 14.3755 57.7321 14.3755C54.7646 14.3755 52.3913 17.4613 52.2729 22.208C52.1555 25.4123 53.2222 30.752 57.3758 30.752C59.0366 30.752 59.987 29.792 60.3433 28.9707V30.5141H64.2601L64.2654 30.5173ZM59.3993 15.92C60.2313 17.1072 60.2313 19.9541 60.2313 22.2091C60.2313 24.5824 60.3486 27.6683 59.3993 28.9739C59.043 29.4496 58.6953 29.6779 58.0947 29.6779C57.2627 29.6779 56.7881 28.7179 56.5523 27.1861C56.4329 25.7611 56.4329 23.9819 56.4329 22.0832C56.4329 18.8789 56.6707 15.3184 58.2142 15.3184C58.8083 15.3184 59.0462 15.5563 59.4014 15.9125L59.3993 15.92ZM98.9214 15.088C99.9881 15.6821 100.703 16.6315 100.703 18.768V30.5173H96.7859V28.736C96.3113 30.0405 95.0046 30.8715 93.2233 30.8715C91.7982 30.8715 89.3065 30.1675 89.3065 26.48C89.3065 23.0379 91.5614 22.32 94.0531 21.2587C96.3081 20.2987 96.5449 20.1899 96.5449 19.2427V16.6315C96.5449 15.5648 95.9529 15.0891 94.7635 15.0891C94.2889 15.2064 93.459 15.4453 93.459 16.0491C93.3395 16.7531 94.163 16.7531 94.291 17.8304C94.4083 19.4923 93.1038 20.0843 91.9177 19.9659C91.0857 19.9659 90.1363 19.4912 90.019 18.1867C89.9017 16.0501 92.2739 14.2699 95.5902 14.2699C97.1337 14.2699 98.083 14.6261 98.9139 15.1019L98.9214 15.088ZM96.547 21.0219L95.2425 21.8539C93.9379 22.6859 93.699 23.7525 93.5806 24.9397C93.4633 25.8997 93.4633 26.7211 93.5806 28.144C93.6979 29.4485 94.5299 29.6875 95.2425 29.4485C96.0745 29.0923 96.547 27.5499 96.547 25.8859V21.0197V21.0219ZM40.1737 37.2821C41.2425 37.9861 41.8345 38.8256 41.8345 40.9621V52.832H38.0371V51.0507C37.5625 52.2379 36.2579 53.0667 34.4745 53.0667C32.9321 53.0667 30.5577 52.4725 30.5577 48.7947C30.5577 45.3525 32.8126 44.6347 35.187 43.5733C37.5614 42.512 37.7961 42.3861 37.7961 41.5573V38.944C37.7961 37.7568 37.2019 37.2832 36.0169 37.4016C35.5411 37.4016 34.7102 37.6395 34.7102 38.2336C34.5929 39.0656 35.4142 39.0656 35.5422 40.1323C35.6617 41.6757 34.355 42.2688 33.1689 42.2688C32.3369 42.1515 31.3875 41.6768 31.2702 40.3701C31.1529 38.3541 33.5251 36.5728 36.8414 36.5728C38.3849 36.5728 39.3331 36.8107 40.1651 37.2768L40.1737 37.2821ZM37.7993 43.216L36.4947 44.048C35.1902 44.88 34.9523 45.9467 34.8329 47.1339C34.7155 48.0832 34.7155 49.0325 34.8329 50.3382C34.8329 51.7632 35.6649 51.9989 36.3763 51.6427C37.3257 51.2864 37.8014 49.8635 37.8014 48.0821V43.216H37.7993ZM68.8947 41.3173C68.8947 37.9936 67.1134 36.3328 64.5033 36.5707C63.1987 36.688 62.1299 37.2747 61.5358 38.1141V33.4848H57.5027V44.4043C57.5027 48.4395 54.6547 52.2368 51.8067 52.1184C49.7907 52.1184 49.3139 50.576 49.0761 48.9141C48.7198 46.5397 48.7198 43.8112 48.9566 40.8437C49.1945 38.9451 49.6606 37.4016 51.0931 37.4016C52.1619 37.4016 52.2803 38.1056 51.7971 38.5888C51.3214 39.1829 50.6099 39.776 50.9651 41.0816C51.3203 42.5067 53.5742 42.7424 54.6451 41.6757C55.4771 40.7264 55.3491 39.1829 54.7625 38.2336C54.0585 37.0464 52.8638 36.5728 51.0825 36.5728C48.8275 36.5728 44.5545 38.5888 44.5545 44.9995C44.5545 51.8827 48.9459 53.0688 51.4377 53.0688C54.2857 53.0688 56.7785 50.576 57.4899 48.5589V52.8331H61.5251V40.8448C61.5251 39.6576 61.763 38.9461 62.3571 38.352C62.8329 37.9968 63.4259 37.8773 63.7822 37.9968C64.7315 38.2336 64.7315 39.4219 64.7315 40.8448V52.832H68.8915V41.3195L68.8947 41.3173ZM27.3545 10.9333V17.6981H26.5225C25.8185 14.3744 24.2675 11.8827 22.131 11.7643C20.7059 11.6469 19.8771 12.4683 19.1635 13.6629C18.4595 15.088 18.0947 18.0544 18.0947 21.6139C18.0947 24.9376 18.2142 27.4293 18.5705 29.2085C18.8073 30.0405 19.4025 31.3451 20.9438 31.3451C21.7758 31.3451 22.3689 31.1072 22.7251 30.6411C23.3193 29.9371 23.4291 28.5045 23.4291 27.5552V24.352C23.4291 23.1648 23.0729 22.4533 22.4798 22.0971C22.0051 21.8592 21.2926 21.8592 20.9374 21.7408V20.9088H27.5827V37.8688H26.7507C26.3987 36.576 26.1609 35.6267 25.5667 34.56C24.9726 33.4933 23.9049 32.3061 22.1246 32.3061C20.2259 32.1867 18.8009 33.3749 18.8009 35.1541C18.8009 37.5285 20.2259 38.1216 22.8361 39.5456C25.3289 40.9707 28.5321 42.1568 28.5321 46.3115C28.5321 50.3467 25.0899 52.8395 21.1742 52.8395H14.883V44.6581H15.715C16.7838 50.8288 19.395 51.8976 21.1742 51.8976C23.4291 51.8976 24.4894 50.4725 24.4894 48.4555C24.3721 45.8443 22.5854 44.8928 20.0979 43.5893C16.5374 41.5733 14.8766 40.6219 14.8766 37.2981C14.9939 34.4501 17.251 32.6688 19.7427 31.9573C14.5214 31.3632 12.9779 26.6165 13.0974 21.5189C13.0974 16.416 16.0649 10.9557 21.8793 10.9557H27.3385L27.3545 10.9333Z" fill="#64A8F0"/>
</svg>
