<svg width="129" height="32" viewBox="0 0 129 32" fill="none" xmlns="http://www.w3.org/2000/svg">
<g clip-path="url(#clip0_667_2169)">
<mask id="mask0_667_2169" style="mask-type:luminance" maskUnits="userSpaceOnUse" x="0" y="0" width="129" height="32">
<path d="M128.452 0.255493H0.452393V31.7448H128.452V0.255493Z" fill="white"/>
</mask>
<g mask="url(#mask0_667_2169)">
<path d="M23.1351 6.62807L16.6025 12.6484C16.389 12.8619 16.0048 12.8619 15.7912 12.6484L9.25854 6.62807C9.00236 6.37188 9.00236 5.98762 9.25854 5.73143C11.9485 3.16959 14.8946 1.03472 15.8766 0.351562C16.0901 0.22347 16.3463 0.22347 16.5598 0.351562C17.5418 1.03472 20.4879 3.16959 23.1779 5.73143C23.3914 5.98762 23.3914 6.41458 23.1351 6.62807Z" fill="#060B27"/>
<path d="M23.1351 6.62807L16.6025 12.6484C16.389 12.8619 16.0048 12.8619 15.7912 12.6484L9.25854 6.62807C9.00236 6.37188 9.00236 5.98762 9.25854 5.73143C11.9485 3.16959 14.8946 1.03472 15.8766 0.351562C16.0901 0.22347 16.3463 0.22347 16.5598 0.351562C17.5418 1.03472 20.4879 3.16959 23.1779 5.73143C23.3914 5.98762 23.3914 6.41458 23.1351 6.62807Z" fill="black" fill-opacity="0.2"/>
<path d="M25.5691 22.9382L19.5487 16.4056C19.3353 16.1921 19.3353 15.8079 19.5487 15.5943L25.5691 9.06165C25.8253 8.80546 26.2096 8.80546 26.4657 9.06165C29.0276 11.7516 31.1624 14.6977 31.8455 15.6797C31.9737 15.8932 31.9737 16.1494 31.8455 16.3629C31.1624 17.3449 29.0276 20.291 26.4657 22.981C26.2096 23.2371 25.8253 23.1945 25.5691 22.9382Z" fill="#060B27"/>
<path d="M25.5691 22.9382L19.5487 16.4056C19.3353 16.1921 19.3353 15.8079 19.5487 15.5943L25.5691 9.06165C25.8253 8.80546 26.2096 8.80546 26.4657 9.06165C29.0276 11.7516 31.1624 14.6977 31.8455 15.6797C31.9737 15.8932 31.9737 16.1494 31.8455 16.3629C31.1624 17.3449 29.0276 20.291 26.4657 22.981C26.2096 23.2371 25.8253 23.1945 25.5691 22.9382Z" fill="black" fill-opacity="0.2"/>
<path d="M6.82497 9.06161L12.8453 15.5943C13.0588 15.8078 13.0588 16.192 12.8453 16.4056L6.82497 22.9383C6.56879 23.1944 6.18451 23.1944 5.92833 22.9383C3.36649 20.2483 1.23162 17.3022 0.548462 16.3202C0.42037 16.1067 0.42037 15.8505 0.548462 15.637C1.23162 14.655 3.36649 11.7088 5.92833 9.01891C6.18451 8.80543 6.61149 8.80543 6.82497 9.06161Z" fill="#060B27"/>
<path d="M6.82497 9.06161L12.8453 15.5943C13.0588 15.8078 13.0588 16.192 12.8453 16.4056L6.82497 22.9383C6.56879 23.1944 6.18451 23.1944 5.92833 22.9383C3.36649 20.2483 1.23162 17.3022 0.548462 16.3202C0.42037 16.1067 0.42037 15.8505 0.548462 15.637C1.23162 14.655 3.36649 11.7088 5.92833 9.01891C6.18451 8.80543 6.61149 8.80543 6.82497 9.06161Z" fill="black" fill-opacity="0.2"/>
<path d="M9.25888 25.3722L15.7916 19.3518C16.005 19.1384 16.3894 19.1384 16.6028 19.3518L23.1355 25.3722C23.3916 25.6284 23.3916 26.0127 23.1355 26.2688C20.4455 28.8307 17.4994 30.9655 16.5174 31.6486C16.3039 31.7768 16.0477 31.7768 15.8342 31.6486C14.8522 30.9655 11.9061 28.8307 9.21617 26.2688C9.00269 26.0127 9.00269 25.6284 9.25888 25.3722Z" fill="#060B27"/>
<path d="M9.25888 25.3722L15.7916 19.3518C16.005 19.1384 16.3894 19.1384 16.6028 19.3518L23.1355 25.3722C23.3916 25.6284 23.3916 26.0127 23.1355 26.2688C20.4455 28.8307 17.4994 30.9655 16.5174 31.6486C16.3039 31.7768 16.0477 31.7768 15.8342 31.6486C14.8522 30.9655 11.9061 28.8307 9.21617 26.2688C9.00269 26.0127 9.00269 25.6284 9.25888 25.3722Z" fill="black" fill-opacity="0.2"/>
<path d="M121.766 29.5565C121.425 30.0689 120.784 30.7094 120.058 31.0083C119.332 31.3072 118.735 31.3926 117.881 31.4352C117.198 31.4779 116.685 30.8802 116.728 30.197C116.771 29.6846 116.984 29.2576 117.667 29.1296C118.18 29.0442 118.607 29.1722 119.034 28.9161C119.375 28.7453 119.375 28.8307 119.802 28.2329L121.425 23.152L116.728 9.27529C116.6 8.63484 116.941 7.78088 117.923 7.78088C118.393 7.78088 118.735 8.07977 118.906 8.42135L122.535 19.3518L126.079 8.67753C126.249 8.12247 126.676 7.78088 127.274 7.78088C127.872 7.78088 128.598 8.25056 128.427 9.1899L121.766 29.5565Z" fill="#060B27"/>
<path d="M121.766 29.5565C121.425 30.0689 120.784 30.7094 120.058 31.0083C119.332 31.3072 118.735 31.3926 117.881 31.4352C117.198 31.4779 116.685 30.8802 116.728 30.197C116.771 29.6846 116.984 29.2576 117.667 29.1296C118.18 29.0442 118.607 29.1722 119.034 28.9161C119.375 28.7453 119.375 28.8307 119.802 28.2329L121.425 23.152L116.728 9.27529C116.6 8.63484 116.941 7.78088 117.923 7.78088C118.393 7.78088 118.735 8.07977 118.906 8.42135L122.535 19.3518L126.079 8.67753C126.249 8.12247 126.676 7.78088 127.274 7.78088C127.872 7.78088 128.598 8.25056 128.427 9.1899L121.766 29.5565Z" fill="black" fill-opacity="0.2"/>
<path d="M111.434 24.2193C110.366 23.7924 109.811 23.2373 109.384 22.6395C108.573 21.6575 108.359 20.6328 108.359 19.608V1.88866C108.359 1.24821 108.872 0.73584 109.512 0.73584C110.153 0.73584 110.708 1.24821 110.708 1.88866V19.608C110.708 20.0351 110.793 20.5474 111.22 21.1025C111.562 21.6149 112.074 21.9564 112.458 22.0845C113.184 22.3834 113.056 23.0665 113.056 23.1519C113.141 24.3902 111.818 24.3902 111.434 24.2193Z" fill="#060B27"/>
<path d="M111.434 24.2193C110.366 23.7924 109.811 23.2373 109.384 22.6395C108.573 21.6575 108.359 20.6328 108.359 19.608V1.88866C108.359 1.24821 108.872 0.73584 109.512 0.73584C110.153 0.73584 110.708 1.24821 110.708 1.88866V19.608C110.708 20.0351 110.793 20.5474 111.22 21.1025C111.562 21.6149 112.074 21.9564 112.458 22.0845C113.184 22.3834 113.056 23.0665 113.056 23.1519C113.141 24.3902 111.818 24.3902 111.434 24.2193Z" fill="black" fill-opacity="0.2"/>
<path d="M103.962 23.9631C103.705 24.262 103.449 24.3474 103.022 24.3474H95.9345C93.6288 24.3474 92.3906 21.9563 92.3906 19.6507C92.3906 17.3023 93.6288 14.9112 95.9345 14.9112H101.869V12.5629C101.869 11.837 101.656 11.3674 101.144 10.855C100.631 10.3426 100.204 10.1718 99.4784 10.1718H94.7816C94.1412 10.1718 93.5862 9.65947 93.5862 9.01902C93.5862 8.37856 94.1412 7.82349 94.7816 7.82349H99.4784C100.845 7.82349 101.869 8.16506 102.851 9.1898C103.833 10.1718 104.218 11.1539 104.218 12.6056V23.2372C104.175 23.4507 104.132 23.707 103.962 23.9631ZM101.869 17.2596H95.9345C94.9097 17.2596 94.7816 18.6259 94.7816 19.6507C94.7816 20.6327 94.9097 21.999 95.9345 21.999H101.869V17.2596Z" fill="#060B27"/>
<path d="M103.962 23.9631C103.705 24.262 103.449 24.3474 103.022 24.3474H95.9345C93.6288 24.3474 92.3906 21.9563 92.3906 19.6507C92.3906 17.3023 93.6288 14.9112 95.9345 14.9112H101.869V12.5629C101.869 11.837 101.656 11.3674 101.144 10.855C100.631 10.3426 100.204 10.1718 99.4784 10.1718H94.7816C94.1412 10.1718 93.5862 9.65947 93.5862 9.01902C93.5862 8.37856 94.1412 7.82349 94.7816 7.82349H99.4784C100.845 7.82349 101.869 8.16506 102.851 9.1898C103.833 10.1718 104.218 11.1539 104.218 12.6056V23.2372C104.175 23.4507 104.132 23.707 103.962 23.9631ZM101.869 17.2596H95.9345C94.9097 17.2596 94.7816 18.6259 94.7816 19.6507C94.7816 20.6327 94.9097 21.999 95.9345 21.999H101.869V17.2596Z" fill="black" fill-opacity="0.2"/>
<path d="M87.4374 23.9631C87.1813 24.2192 86.925 24.3473 86.6261 24.3473H80.6058C79.1968 24.3473 78.2148 24.0484 77.1474 23.0237C76.1653 21.999 75.8665 21.0596 75.8665 19.6079V12.5202C75.8665 11.1111 76.1653 10.1291 77.2328 9.10437C78.2148 8.12233 79.1968 7.73805 80.6058 7.73805H85.4733V1.88852C85.4733 1.24806 85.9857 0.692993 86.6261 0.692993C87.2666 0.692993 87.7789 1.24806 87.7789 1.88852V23.1518C87.7789 23.4934 87.6509 23.7496 87.4374 23.9631ZM85.4306 10.1718H80.5631C79.8372 10.1718 79.4103 10.3426 78.8979 10.855C78.3855 11.3673 78.172 11.837 78.172 12.5629V19.6507C78.172 20.3764 78.3855 20.8462 78.8979 21.3585C79.4103 21.8709 79.8372 21.999 80.5631 21.999H85.4306V10.1718Z" fill="#060B27"/>
<path d="M87.4374 23.9631C87.1813 24.2192 86.925 24.3473 86.6261 24.3473H80.6058C79.1968 24.3473 78.2148 24.0484 77.1474 23.0237C76.1653 21.999 75.8665 21.0596 75.8665 19.6079V12.5202C75.8665 11.1111 76.1653 10.1291 77.2328 9.10437C78.2148 8.12233 79.1968 7.73805 80.6058 7.73805H85.4733V1.88852C85.4733 1.24806 85.9857 0.692993 86.6261 0.692993C87.2666 0.692993 87.7789 1.24806 87.7789 1.88852V23.1518C87.7789 23.4934 87.6509 23.7496 87.4374 23.9631ZM85.4306 10.1718H80.5631C79.8372 10.1718 79.4103 10.3426 78.8979 10.855C78.3855 11.3673 78.172 11.837 78.172 12.5629V19.6507C78.172 20.3764 78.3855 20.8462 78.8979 21.3585C79.4103 21.8709 79.8372 21.999 80.5631 21.999H85.4306V10.1718Z" fill="black" fill-opacity="0.2"/>
<path d="M70.0597 24.1763C69.4193 24.1763 68.907 23.664 68.907 23.0235V8.84801C68.907 8.20755 69.4193 7.65249 70.0597 7.65249C70.7003 7.65249 71.2553 8.20755 71.2553 8.84801V23.0235C71.2979 23.664 70.7003 24.1763 70.0597 24.1763ZM71.8103 3.46815L70.1451 5.00526C70.1025 5.04794 70.017 5.04794 69.9316 5.00526L68.2664 3.46815C68.181 3.42545 68.181 3.29735 68.2664 3.25466C68.9496 2.6142 69.6755 2.05913 69.9316 1.88835C69.9744 1.84565 70.0597 1.84565 70.1025 1.88835C70.3586 2.05913 71.0845 2.6142 71.7677 3.25466C71.8957 3.29735 71.8957 3.38276 71.8103 3.46815Z" fill="#060B27"/>
<path d="M70.0597 24.1763C69.4193 24.1763 68.907 23.664 68.907 23.0235V8.84801C68.907 8.20755 69.4193 7.65249 70.0597 7.65249C70.7003 7.65249 71.2553 8.20755 71.2553 8.84801V23.0235C71.2979 23.664 70.7003 24.1763 70.0597 24.1763ZM71.8103 3.46815L70.1451 5.00526C70.1025 5.04794 70.017 5.04794 69.9316 5.00526L68.2664 3.46815C68.181 3.42545 68.181 3.29735 68.2664 3.25466C68.9496 2.6142 69.6755 2.05913 69.9316 1.88835C69.9744 1.84565 70.0597 1.84565 70.1025 1.88835C70.3586 2.05913 71.0845 2.6142 71.7677 3.25466C71.8957 3.29735 71.8957 3.38276 71.8103 3.46815Z" fill="black" fill-opacity="0.2"/>
<path d="M64.0395 12.3922C63.5271 12.6911 62.844 12.4776 62.5451 12.0933C62.2034 11.5383 62.0754 11.0259 61.4777 10.6416C60.9653 10.2573 60.5382 10.1719 59.8978 10.1719H57.5495V23.1946C57.5495 23.8351 56.9944 24.3474 56.354 24.3474C55.7134 24.3474 55.2012 23.8351 55.2012 23.1946V8.97642C55.2012 8.63484 55.2865 8.33596 55.5427 8.07977C55.7989 7.86629 56.0551 7.78088 56.354 7.78088H59.8978C61.1788 7.78088 62.0754 7.99438 63.0575 8.76293C63.8686 9.40338 64.253 9.91575 64.5945 10.9405C64.7653 11.5383 64.5519 12.0933 64.0395 12.3922Z" fill="#060B27"/>
<path d="M64.0395 12.3922C63.5271 12.6911 62.844 12.4776 62.5451 12.0933C62.2034 11.5383 62.0754 11.0259 61.4777 10.6416C60.9653 10.2573 60.5382 10.1719 59.8978 10.1719H57.5495V23.1946C57.5495 23.8351 56.9944 24.3474 56.354 24.3474C55.7134 24.3474 55.2012 23.8351 55.2012 23.1946V8.97642C55.2012 8.63484 55.2865 8.33596 55.5427 8.07977C55.7989 7.86629 56.0551 7.78088 56.354 7.78088H59.8978C61.1788 7.78088 62.0754 7.99438 63.0575 8.76293C63.8686 9.40338 64.253 9.91575 64.5945 10.9405C64.7653 11.5383 64.5519 12.0933 64.0395 12.3922Z" fill="black" fill-opacity="0.2"/>
<path d="M49.7784 30.0687C48.7536 31.0935 47.8144 31.435 46.3627 31.435H41.6659C41.0255 31.435 40.4704 30.9227 40.4704 30.2823C40.4704 29.6417 41.0255 29.0867 41.6659 29.0867H46.3627C47.0884 29.0867 47.5581 28.916 48.0705 28.4036C48.5829 27.8912 48.7536 27.4643 48.7536 26.7384V24.3473H44.0142C42.6053 24.3473 41.5805 24.0058 40.5558 22.981C39.6164 21.9989 39.2749 21.0169 39.2749 19.6506V12.5201C39.2749 11.1111 39.5738 10.1291 40.5984 9.10435C41.6232 8.12231 42.5625 7.73804 44.0142 7.73804H49.9492C50.2908 7.73804 50.547 7.82344 50.8031 8.07963C51.0593 8.33581 51.1447 8.592 51.102 8.93357V26.653C51.1447 28.1474 50.8031 29.044 49.7784 30.0687ZM48.711 10.1718H43.9716C43.2457 10.1291 42.776 10.3426 42.2636 10.8549C41.7512 11.3673 41.6232 11.837 41.6232 12.5628V19.6506C41.6232 20.3338 41.7512 20.8034 42.221 21.2732C42.7334 21.8282 43.2457 21.9989 43.9716 21.9989H48.711V10.1718Z" fill="#060B27"/>
<path d="M49.7784 30.0687C48.7536 31.0935 47.8144 31.435 46.3627 31.435H41.6659C41.0255 31.435 40.4704 30.9227 40.4704 30.2823C40.4704 29.6417 41.0255 29.0867 41.6659 29.0867H46.3627C47.0884 29.0867 47.5581 28.916 48.0705 28.4036C48.5829 27.8912 48.7536 27.4643 48.7536 26.7384V24.3473H44.0142C42.6053 24.3473 41.5805 24.0058 40.5558 22.981C39.6164 21.9989 39.2749 21.0169 39.2749 19.6506V12.5201C39.2749 11.1111 39.5738 10.1291 40.5984 9.10435C41.6232 8.12231 42.5625 7.73804 44.0142 7.73804H49.9492C50.2908 7.73804 50.547 7.82344 50.8031 8.07963C51.0593 8.33581 51.1447 8.592 51.102 8.93357V26.653C51.1447 28.1474 50.8031 29.044 49.7784 30.0687ZM48.711 10.1718H43.9716C43.2457 10.1291 42.776 10.3426 42.2636 10.8549C41.7512 11.3673 41.6232 11.837 41.6232 12.5628V19.6506C41.6232 20.3338 41.7512 20.8034 42.221 21.2732C42.7334 21.8282 43.2457 21.9989 43.9716 21.9989H48.711V10.1718Z" fill="black" fill-opacity="0.2"/>
</g>
</g>
<defs>
<clipPath id="clip0_667_2169">
<rect width="128" height="31.6701" fill="white" transform="translate(0.452393 0.164917)"/>
</clipPath>
</defs>
</svg>
