<svg width="129" height="64" viewBox="0 0 129 64" fill="none" xmlns="http://www.w3.org/2000/svg">
<path d="M119.268 37.9467V42.5568C116.708 43.8368 114.274 44.4768 111.844 44.4768C105.124 44.4768 101.09 40.5088 101.09 35.5147C101.09 30.1365 105.698 25.6555 111.595 25.6555C112.86 25.6531 114.116 25.8692 115.308 26.2944C116.14 26.5504 116.65 26.8704 117.164 26.8704C117.614 26.8704 117.74 26.1024 117.804 25.6544H118.444L119.017 31.8699H118.249C117.985 30.7499 117.406 29.728 116.583 28.9259C115.381 27.7099 113.705 27.0699 111.78 27.0699C107.746 27.0699 105.38 30.2699 105.38 35.072C105.38 39.808 108.258 43.0742 112.1 43.0742C113.3 43.0593 114.482 42.7753 115.557 42.2432V37.4966C115.557 35.9606 115.301 35.3952 113.125 35.3952V34.6912H121.257V35.3952C119.207 35.3952 119.273 36.0352 119.273 37.9552L119.268 37.9467ZM96.926 30.3926V44.1526H95.838L82.0801 29.9478C82.1335 30.3072 82.1569 30.671 82.1463 31.0358V39.6757C82.1463 42.3766 82.1463 43.3238 84.5783 43.3238V44.0278H78.1057V43.3238C80.5399 43.3238 80.5399 42.1717 80.5399 39.6757V29.8198C80.5399 28.3456 80.5399 26.7478 77.9799 26.7478V26.0459H84.0599L95.39 37.6971C95.3331 37.3805 95.312 37.0584 95.3271 36.7371V30.3979C95.3271 27.8379 95.3911 26.7478 92.9591 26.7478V26.0459H99.4231V26.7478C97.0551 26.7478 96.9271 27.7718 96.9271 30.3979L96.926 30.3926ZM65.6257 44.0299V43.3259C67.1617 43.3259 68.2519 43.1979 68.2519 40.9579V29.1136C68.2519 26.8096 67.4177 26.7456 65.6257 26.7456V26.0438H74.7137V26.7456C72.8556 26.7456 72.0876 26.8096 72.0876 29.1136V40.9568C72.0876 43.1968 73.0476 43.3248 74.7137 43.3248V44.0288L65.6257 44.0299Z" fill="#033971"/>
<path d="M54.493 25.7472C53.2311 24.4853 51.7911 23.856 50.7095 22.5973C50.1602 22.064 49.7026 21.4635 49.357 20.7893C49.0018 20.384 48.5751 20.0491 48.0983 19.7973L48.3692 20.608H48.2786C47.8125 20.5628 47.3718 20.3746 47.0167 20.0693L47.3794 19.7067C47.2428 19.5573 47.038 19.488 46.8407 19.5253C45.3943 19.2544 44.0482 20.064 42.606 20.336V20.5173C43.5063 20.7883 43.6908 21.8699 44.2295 22.4085H44.7682C44.9495 22.4085 45.2162 22.5899 45.4082 22.5899C45.3762 22.4021 45.3154 22.2197 45.2268 22.0512C45.2908 21.9659 45.39 21.9157 45.4967 21.9157C45.6034 21.9157 45.7026 21.9659 45.7666 22.0512C46.2146 22.3221 46.8514 21.8699 47.2962 22.5899C46.7714 22.5387 46.2423 22.6325 45.7666 22.8608C45.7666 22.9515 46.0375 23.1275 45.9479 23.3088C45.4956 23.1275 44.9559 23.3088 44.7746 22.9461L44.6839 23.0368C45.2706 23.6981 46.0172 24.1995 46.8535 24.4832C48.0268 24.6645 49.0231 24.1205 50.1847 24.3925C54.3191 26.3765 57.1991 31.0613 57.1991 35.7333C57.1991 42.4 53.4156 45.0965 50.9858 45.0965C50.4599 45.0699 49.9543 44.8832 49.5394 44.5579C49.8615 43.3547 50.013 42.1109 49.9874 40.8651C49.9874 36.9931 48.4578 32.8501 46.3714 30.6891C45.3794 29.6971 44.2956 28.8811 43.1159 28.8811C42.5772 28.8811 42.0311 28.8811 41.6695 29.3291C41.2215 29.7077 40.9868 30.2784 41.037 30.8629C40.205 31.4005 39.2236 31.6821 38.2444 31.6736C36.9976 31.6356 35.7968 31.1939 34.8226 30.4149V29.0656C34.5559 28.9749 33.6492 28.4256 34.0994 27.9808C34.3069 28.0557 34.4932 28.1798 34.6423 28.3424C34.5516 27.7024 34.5516 26.9931 34.0983 26.4512C33.8441 26.4687 33.5909 26.4052 33.3751 26.2699C33.2179 26.1338 33.0893 25.9678 32.9968 25.7816C32.9043 25.5953 32.8498 25.3926 32.8364 25.1851C33.1031 25.6331 33.5596 25.456 33.8284 25.7237C33.3762 24.6389 33.5575 24.1941 32.7436 22.5739C32.5623 21.7632 31.7516 21.3152 31.2098 20.7659C30.9388 20.5845 30.8471 20.3136 30.4866 20.3136C30.1239 20.2229 30.1239 19.7749 30.1239 19.5029C30.3127 19.5744 30.493 19.6651 30.6626 19.7739C30.1239 18.512 29.7623 17.1627 28.59 16.4395L28.3191 16.6208H26.8738C27.133 16.4501 27.4039 16.3008 27.6844 16.1685C27.562 16.032 27.4079 15.9276 27.2357 15.8646C27.0634 15.8015 26.8784 15.7817 26.6967 15.8069C26.4258 15.8976 26.0567 16.1696 25.7047 16.1696H25.6759C25.6759 15.9029 25.5852 15.5296 26.1282 15.3589C25.5906 15.2693 25.0423 15.2693 24.5047 15.3589C24.4194 15.8069 24.142 16.0821 24.142 16.4437C23.9095 16.6645 23.6972 16.9067 23.5095 17.1669C23.5095 16.6283 23.7762 16.0821 23.8722 15.5456C23.5095 15.6363 23.0583 15.9083 22.8802 15.9083C22.157 15.5456 21.2567 15.1851 20.8983 15.1851C21.4423 15.5477 21.1692 16.1771 21.261 16.6315L20.8983 16.4501C20.8076 16.0875 20.3596 15.8101 20.2583 15.3653C19.7727 15.3804 19.3027 15.5405 18.909 15.8251V15.9157C19.0743 15.9436 19.232 16.006 19.3716 16.0988C19.5113 16.1916 19.6299 16.3127 19.7196 16.4544C19.0796 16.4544 18.6348 16.1835 18.0087 16.1835C18.0098 16.1589 18.0002 16.1355 17.9831 16.1195C17.966 16.1035 17.9426 16.0928 17.9191 16.0939C17.6418 16.2219 17.3858 16.4064 17.1959 16.6379C16.5748 17.0914 16.1046 17.7214 15.8466 18.4459C16.0311 18.4245 16.2179 18.4559 16.3852 18.5365C16.0226 18.6272 15.8466 19.0752 15.485 19.1765V20.5291C15.1248 20.8138 14.8454 21.1878 14.6743 21.6139C14.2295 23.0432 14.1356 24.6667 14.1356 26.4747C14.1132 26.5957 14.0603 26.7091 13.9819 26.8041C13.9035 26.8991 13.8023 26.9726 13.6876 27.0176V28.464C13.9415 28.2048 14.2103 27.9627 14.4983 27.7408V28.8981C14.3263 28.9288 14.17 29.0171 14.055 29.1486C13.94 29.2801 13.8732 29.4468 13.8658 29.6213C13.8658 29.984 13.9596 30.3445 13.9596 30.7061C13.9458 30.8341 13.9767 30.9621 14.045 31.0688C14.0672 30.9572 14.1221 30.8546 14.2026 30.7741C14.283 30.6936 14.3856 30.6388 14.4972 30.6165C14.6487 30.4928 14.8406 30.4297 15.0359 30.4395C14.8033 30.738 14.6213 31.0728 14.4972 31.4304L14.2306 31.6971C14.1858 31.7824 14.1559 31.8741 14.1399 31.968C14.5014 33.789 15.0453 35.569 15.7634 37.2811C15.0402 38.4544 14.2295 40.7029 13.6908 42.8651C13.469 42.6728 13.2114 42.5263 12.9328 42.4338C12.6542 42.3414 12.3601 42.3049 12.0674 42.3264C11.7822 42.3499 11.5055 42.4344 11.2559 42.5743C11.0064 42.7142 10.7898 42.9061 10.621 43.1371C10.093 42.8704 9.4583 42.9408 8.99963 43.3184C8.18896 44.0416 8.18896 44.4032 8.18896 44.9419C7.85083 45.2757 7.65563 45.7291 7.64496 46.2037C7.59882 46.9349 7.78918 47.6616 8.1879 48.2763H21.8924C21.801 47.975 21.6509 47.6948 21.4508 47.4517C21.1799 46.9077 21.3602 46.1899 21.3602 45.6437C21.6059 45.1024 21.9076 44.5883 22.2604 44.1099C22.3511 43.8389 22.2604 43.8389 22.3511 43.7472L22.9836 43.5659C23.3463 43.5659 23.6236 43.2949 24.0684 43.2949C24.3394 43.7472 24.3394 43.0283 24.7916 42.8469C25.7836 42.6656 26.7756 42.8469 27.3228 43.5701C27.3377 43.6633 27.3668 43.7536 27.4092 43.8379H26.9314C26.3927 43.5712 25.7634 43.2939 25.1234 43.5712C25.1234 43.8379 25.038 43.8379 25.038 44.1099V44.5579C25.4007 44.5579 25.678 44.9205 26.0258 45.0965C26.301 44.7797 26.6914 44.5845 27.1106 44.5579C27.2477 44.5481 27.3853 44.5664 27.5151 44.6116C27.6449 44.6567 27.7642 44.7278 27.8657 44.8205C27.9671 44.9132 28.0487 45.0255 28.1054 45.1507C28.162 45.276 28.1927 45.4114 28.1954 45.5488V46.5408C28.5666 46.8395 28.9954 47.0528 29.4572 47.1808C29.325 47.4507 29.0306 47.5989 28.734 47.5435H28.0108C27.854 47.4901 27.7463 47.3472 27.7399 47.1808C27.4978 47.5221 27.2866 47.8848 27.0999 48.2656H37.6428C37.4615 47.9029 37.2802 47.6256 37.1906 47.4549C37.0412 46.864 36.9804 46.2549 37.0092 45.6469L37.997 44.2944C38.541 44.2944 38.989 44.1131 39.9788 44.0235C40.1602 43.7525 39.9788 43.5755 40.7895 43.5755C41.2162 43.5691 41.6588 43.6608 42.0556 43.8464C42.1463 43.9499 42.1463 44.1045 42.0556 44.2091C41.8743 44.3861 41.517 44.0277 41.2492 44.1184C41.0679 44.2997 41.3346 44.3851 41.3346 44.5664C41.5159 44.7477 40.5239 44.3851 40.5239 44.3851C40.5239 44.3851 40.3426 44.9291 40.253 45.1083L40.7916 45.6523C40.973 45.9189 40.525 46.1909 40.525 46.4629C40.3436 46.3723 39.981 46.1003 39.981 46.1963C39.7996 46.9195 39.981 47.5456 39.8903 48.2688H40.8823L40.9676 46.7435C41.0583 45.8432 42.141 44.2123 42.7756 44.2123C43.1061 44.236 43.4208 44.3624 43.6759 44.5739C43.8572 44.9365 44.3159 45.1125 44.3159 45.2971C44.3159 45.4816 44.0492 45.568 43.5927 45.568C43.4114 45.568 43.4114 45.2971 43.1404 45.1157L42.6018 45.6597C42.6018 45.6597 43.2343 46.1984 43.2343 46.56C43.2513 46.7281 43.2272 46.8978 43.1643 47.0546C43.1013 47.2114 43.0012 47.3506 42.8727 47.4603L42.334 46.3755C42.0631 46.3755 41.6108 46.9141 41.6108 47.1861C41.6108 47.5488 41.4295 47.7301 41.4295 48.2709H47.0135C47.6543 48.2614 48.28 48.075 48.8215 47.7323H49.9063C52.1591 47.7323 53.9575 47.0923 55.581 45.4795C57.7506 43.3099 59.005 39.8955 59.005 36.5643C58.9736 32.5125 57.3512 28.6353 54.4876 25.7685L54.493 25.7472ZM45.6823 21.0453C45.501 20.7744 45.2343 21.0453 45.0423 21.0453C44.9243 21.0468 44.8073 21.0234 44.6988 20.9767C44.5904 20.93 44.493 20.8611 44.413 20.7744C44.9516 20.7744 45.2236 20.5035 45.6716 20.3221C46.0343 20.5931 46.3948 20.6848 46.6636 21.0453H45.6823ZM48.5762 22.3947C48.3095 22.032 47.9436 21.584 47.5842 21.584C47.8508 21.584 48.2242 21.3131 48.669 21.3131C48.8503 21.7611 49.2076 22.0363 49.309 22.3979L49.3996 22.9365C49.321 22.7804 49.2013 22.6488 49.0533 22.5557C48.9054 22.4627 48.7349 22.4118 48.5602 22.4085L48.5762 22.3947ZM33.6898 34.2976L33.2418 34.4789C32.5531 34.5261 31.8736 34.2999 31.3506 33.8496C31.6599 33.7856 31.9447 33.6288 32.1644 33.4016C32.5864 33.8285 33.1126 34.1377 33.6908 34.2987L33.6898 34.2976ZM29.0071 33.3056C28.5591 33.3963 28.1964 32.9429 27.7452 32.7616C27.5639 32.2229 27.5639 31.6768 27.3826 31.4123C27.7452 31.6789 28.5559 31.6789 28.3703 32.4971C28.3735 32.7637 28.7351 32.9451 29.0071 33.3035V33.3056ZM29.0071 36.2784C29.3551 36.4233 29.6872 36.6038 29.998 36.8171H29.7271C28.7351 37.1797 27.9191 36.5461 27.1159 36.0064C27.6364 35.8251 28.1847 35.7333 28.7372 35.7397L29.0071 36.2784ZM29.1884 34.832C29.5084 34.6613 29.8316 34.5376 30.1804 34.4693C30.5431 34.832 30.9036 35.4613 31.533 35.8219C31.1703 35.8219 30.541 35.8219 30.1804 35.5509C29.8071 35.3803 29.47 35.1349 29.1884 34.8363V34.832ZM28.1964 40.4213C28.2199 40.096 28.4311 39.8133 28.7351 39.6981C29.2738 39.8795 29.7271 38.7061 30.269 39.3355C30.5036 39.4048 30.749 39.4357 30.9922 39.4261C31.6247 39.6971 31.8028 40.2368 32.077 40.688C31.629 40.688 31.2631 40.688 30.9922 40.2357C30.9015 40.2357 30.7255 39.9691 30.6295 40.1451C30.1815 40.5077 29.7292 39.8741 29.1831 39.9637C28.9207 40.2453 28.5751 40.4352 28.1954 40.5024L28.1964 40.4213ZM32.6978 30.8768C32.6071 31.2395 32.2455 30.8768 32.1591 30.8768H31.3452C31.248 30.7451 31.1856 30.591 31.1639 30.4288C31.5266 30.3381 31.8039 30.1579 32.0684 30.3381C32.2455 30.6048 32.4311 30.8768 32.7084 30.8768H32.6978ZM30.9868 27.0048C31.07 27.2629 31.1927 27.5061 31.3495 27.728C31.7122 27.5467 31.7122 27.9989 31.8018 28.0907C31.9319 28.3467 32.0226 28.6187 32.0727 28.9013C31.5287 28.9013 31.2588 28.6304 30.9879 28.0907C30.942 27.7301 30.942 27.3653 30.9879 27.0059L30.9868 27.0048ZM30.2636 31.4176L31.1596 32.2283C30.621 32.2283 29.9916 32.4992 29.7132 31.9573C29.9194 31.8014 30.1054 31.6205 30.2668 31.4187L30.2636 31.4176ZM30.1783 24.5749C30.1783 24.6656 29.997 25.4752 29.997 25.4752L29.2738 25.6565L29.7218 23.6747C29.9106 23.9541 30.0642 24.2571 30.1783 24.5749ZM17.389 18C17.6023 18.0053 17.8156 17.8933 17.9276 17.7291C18.3799 17.6384 18.6508 17.1904 19.1895 17.4581C19.5308 17.4944 19.8668 17.5861 20.1815 17.7291C20.1705 17.813 20.1814 17.8984 20.2132 17.9769C20.245 18.0554 20.2965 18.1244 20.3628 18.1771C20.9015 18.1771 20.9015 18.7211 21.1735 19.1691C21.408 19.2386 21.6523 19.2692 21.8967 19.2597C22.4354 19.4411 22.8887 19.4411 23.0647 19.712C23.7367 19.2981 24.5346 19.1381 25.3154 19.2597C25.4647 18.9077 25.5852 18.5451 25.678 18.1749C25.7687 18.4459 25.7687 18.1749 25.949 18.1749C26.3116 17.904 26.7628 17.4517 27.3954 17.6363C27.758 17.9029 28.3831 17.7269 28.7479 18.1749C29.0188 18.5376 29.1959 19.0752 29.4711 19.5275C29.2002 20.0661 29.4711 20.7893 28.9324 21.0613L28.3884 21.6C28.2114 21.6 28.2114 21.7813 27.9404 21.7813C28.2114 22.4213 28.0311 23.3109 27.7591 23.9509C27.9404 23.8603 28.2114 23.8603 28.2114 23.5883C28.2563 23.7046 28.2563 23.8335 28.2114 23.9499V24.2208C28.1708 24.7072 27.9447 25.1595 27.5788 25.4827C27.3975 26.0213 26.9388 26.7413 26.3202 26.832V27.0133C27.614 27.0347 28.8823 27.3739 30.013 28.0053V28.6453C28.9169 27.9741 27.6773 27.5723 26.3959 27.4731C26.4253 27.6872 26.3939 27.9053 26.3052 28.1024C27.39 28.6464 28.3746 29.0944 29.2748 29.9104V30.7211C28.3703 29.8208 27.3836 28.9131 26.2114 28.6485C26.126 28.8299 25.7634 29.0112 25.6727 29.3717C25.0786 28.8768 24.3756 28.5184 23.6226 28.3584C23.3559 28.3584 23.1746 27.3664 23.1746 27.3664C23.3779 27.2911 23.5623 27.1722 23.7148 27.0179C23.8672 26.8637 23.9839 26.6779 24.0567 26.4736H24.4194C24.686 26.4736 24.686 26.2923 24.686 26.0213C24.686 25.4827 23.518 25.4827 22.9751 25.4827C22.3426 25.4827 21.8903 25.4827 21.5287 25.7493C21.3474 25.7493 21.4434 26.0203 21.4434 26.2016C21.5084 26.313 21.6005 26.4061 21.7111 26.4725C21.8924 26.4725 22.0738 26.2912 22.2498 26.2912C22.1591 26.8352 22.3404 27.1019 22.8823 27.376L22.797 28.2805C21.7122 28.2805 20.989 28.7328 20.1858 29.0912C19.9295 28.8949 19.7154 28.6489 19.5564 28.368C18.4716 28.7307 16.5836 30.176 16.5836 30.176V29.536C17.3975 28.8128 18.4748 28.4512 19.2887 28.0064V27.3664C18.926 27.1851 18.5655 27.3664 18.2039 27.3664C17.4082 27.4624 16.6551 27.7781 16.03 28.2816C16.0194 28.0683 15.9906 27.8581 15.9394 27.6416C16.9314 27.0976 18.1922 26.6496 19.3612 26.8309V26.4619C19.2866 26.2741 19.2866 26.0032 19.1052 26.0032C18.5666 25.4645 18.0204 24.6539 18.0204 24.112L18.3831 23.9307C18.2018 23.392 18.0204 22.0395 18.3831 21.5904C17.8704 21.3522 17.4336 20.9768 17.1212 20.5056C16.9175 20.1063 16.7669 19.6821 16.6732 19.2437C16.9484 18.7125 17.118 18.5291 17.3964 17.9883L17.389 18ZM25.7644 34.8373C25.3122 34.5664 24.5026 34.4747 24.6796 33.9371C24.817 33.6415 25.0352 33.3907 25.309 33.2139C25.3634 33.7777 25.5176 34.3274 25.7644 34.8373ZM20.1804 32.2261L19.9095 33.3995C19.6064 32.8679 19.3938 32.2897 19.2802 31.6885L20.1804 32.2261ZM19.0124 33.6715C18.4214 33.4385 17.9163 33.0292 17.566 32.4992C17.4013 32.1604 17.309 31.7909 17.2951 31.4144C17.5991 31.4251 17.8743 31.5957 18.0183 31.8624V31.9531C18.4706 32.4971 18.9186 32.9472 19.0124 33.6672V33.6715ZM18.0204 34.7563C17.984 35.2422 17.758 35.6942 17.3911 36.0149C17.2766 36.1131 17.1558 36.2036 17.0295 36.2859C17.0295 35.7472 17.3004 35.2939 17.3004 34.8395C17.5671 34.7488 17.8316 34.5685 18.0151 34.7488L18.0204 34.7563ZM18.9207 35.8411C19.0114 35.7504 19.102 35.8411 19.2834 35.8411L18.9207 37.1904C18.4727 37.5531 17.8359 37.3717 17.2994 37.3717C18.014 37.1797 18.5548 36.3691 18.9164 35.8315L18.9207 35.8411ZM15.7698 21.6C15.9167 21.3095 16.0975 21.0374 16.3084 20.7893V21.8741L15.6684 22.0555L15.7698 21.6ZM15.7698 23.408L16.493 23.1371L16.0268 23.6725C16.1175 24.5728 15.7602 25.2064 15.7602 26.0128L15.3079 24.5664C15.3975 24.1557 15.5532 23.7621 15.7708 23.4016L15.7698 23.408ZM15.6652 33.8453C15.7442 33.5936 15.8999 33.3728 16.1132 33.2053C16.3842 33.296 16.5612 33.296 16.9239 33.3867C16.4716 33.8347 16.0194 34.0192 15.8391 34.56C15.8348 34.3093 15.7751 34.0619 15.6652 33.8368V33.8453ZM9.91376 45.9147C9.71984 45.792 9.5073 45.7016 9.28443 45.6469C9.0135 46.1856 9.28443 46.5472 9.28443 47.1765C9.28016 47.3611 9.2503 47.5435 9.19376 47.7205C8.87803 47.5968 8.64336 47.3259 8.55376 46.9973V45.5509L9.36443 44.5568C9.60078 44.6829 9.78467 44.8889 9.88332 45.1379C9.98197 45.387 9.98898 45.663 9.9031 45.9168L9.91376 45.9147ZM11.9895 45.9147C11.8988 45.552 11.6268 45.104 11.1756 45.104C10.813 45.8272 10.7276 46.096 11.085 47.1765C10.8503 47.4091 10.5751 47.6032 10.2711 47.7205C10.123 47.2858 10.0614 46.8263 10.0898 46.368C10.0834 45.7547 10.1751 45.1445 10.3607 44.56C10.6274 44.2933 10.813 43.8368 11.0839 43.568H12.0716C11.6236 43.568 11.6236 44.016 11.6236 44.2912C11.8946 44.3819 12.2636 44.4725 12.2636 44.9312C12.2722 45.2811 12.1804 45.6267 11.9991 45.9253L11.9895 45.9147ZM14.2402 47.1733C14.2402 46.7253 14.5068 46.1813 14.5068 45.6437C14.3116 45.4475 14.0588 45.3205 13.7836 45.2811C13.5703 45.4304 13.4498 45.6597 13.421 45.9211C13.15 46.4597 12.6103 47.0059 12.5207 47.5424C12.4962 47.5435 12.4727 47.5339 12.4567 47.5168C12.4407 47.4997 12.43 47.4763 12.4311 47.4528C12.4311 46.5525 12.5218 45.0208 13.0636 44.3893C13.5191 43.8432 13.8743 43.8432 14.4183 43.7675L14.8663 43.8421L14.5036 44.3808C14.8663 44.5621 15.4039 44.9248 15.4039 45.4656C15.4071 46.1963 14.2359 47.1872 14.2359 47.1872L14.2402 47.1733ZM17.662 45.4624L17.0295 43.8304C16.3063 43.1072 15.4999 43.0197 15.0476 42.6624C14.685 42.5717 14.685 42.8437 14.509 42.6624C14.4876 42.3936 14.5836 42.1291 14.7756 41.9392H15.3036L15.8476 42.2101C16.1292 42.4917 16.7522 42.4917 16.7522 43.0315C16.7302 43.1299 16.7354 43.2325 16.7674 43.3281C16.7993 43.4238 16.8568 43.5089 16.9335 43.5744L17.838 43.8304L17.9234 44.5536L17.662 45.4624ZM18.654 43.8304C18.4727 43.5637 18.654 43.1072 18.3874 42.8384C18.3874 42.6571 18.5687 42.5675 18.478 42.4757C18.3874 42.2944 17.3047 41.9317 17.3047 41.9317C16.893 41.6608 16.5015 41.36 16.1314 41.0315C15.7687 40.9408 15.4914 41.1221 15.0466 41.2128V41.0315C15.2279 40.6688 15.2279 40.2208 15.7698 40.2208C15.9161 40.1966 16.0661 40.2086 16.2067 40.2558C16.3473 40.303 16.4742 40.3841 16.5762 40.4917C16.9388 40.4917 17.1202 40.8544 17.39 40.9397C17.7175 41.2533 18.0812 41.5264 18.4748 41.7504C18.4471 41.9691 18.5538 42.1813 18.7458 42.2891C19.2844 42.2891 19.1084 42.8277 19.2844 43.1893L18.654 43.8304ZM19.646 41.7717C19.4647 41.1317 19.006 40.5099 18.478 40.5099C18.2092 40.2891 17.9906 40.0128 17.838 39.6992C17.5671 39.4283 17.2994 39.6992 16.9378 39.4283C16.5292 39.3877 16.1186 39.4816 15.7698 39.6992V39.4283L16.4098 38.7051C17.0498 38.7957 17.8562 38.7051 18.0311 39.1573C18.4012 39.3387 18.7372 39.584 19.0231 39.8805V40.1515C19.2002 40.2421 19.5618 40.3328 19.7463 40.4181C19.7463 40.6891 19.661 41.7707 19.661 41.7707L19.646 41.7717ZM20.6338 37.3589C20.2178 37.4517 19.7911 37.4517 19.3751 37.3589C19.646 37.1776 19.9138 37.0923 20.2796 36.8203L21.0028 36.0971H21.726C21.4551 36.6411 21.1767 37.1787 20.6338 37.3589ZM20.9047 33.3077C21.1873 33.2803 21.4713 33.3438 21.7154 33.4891C21.7154 33.9413 21.8967 34.2997 21.8967 34.8384C21.358 34.2944 20.9047 33.8443 20.9047 33.3045V33.3077ZM21.1756 38.7115C21.261 38.4448 21.5383 38.3488 21.7143 38.0715C21.9559 37.7625 22.1667 37.4306 22.3436 37.0805C22.6323 36.8775 22.9828 36.7817 23.3346 36.8096C23.2439 37.3483 22.9719 37.5328 22.5207 38.1589C22.2562 38.3403 21.7143 38.4256 21.1767 38.6976L21.1756 38.7115ZM22.4343 40.4224L21.8956 39.6992H23.2631L23.534 40.2379C23.381 40.3587 23.1999 40.4387 23.0076 40.4704C22.8152 40.5021 22.618 40.4845 22.4343 40.4192V40.4224ZM23.0743 35.1104L22.9111 34.2059C23.2567 33.9925 23.5618 33.7173 23.8071 33.3952C23.7964 34.0277 23.7058 34.8352 23.0764 35.1061L23.0743 35.1104ZM24.1591 30.4277C24.0684 30.4277 24.1591 30.6944 24.0684 30.6944C23.9905 30.9907 23.93 31.2913 23.8871 31.5947C23.755 31.6801 23.6044 31.7328 23.4479 31.7486C23.2914 31.7644 23.1333 31.7427 22.9868 31.6853V31.4144C22.9122 31.1797 22.8823 30.9344 22.8962 30.6912L22.8055 30.6005C22.7137 30.6299 22.6363 30.6927 22.5887 30.7765C22.5411 30.8603 22.5267 30.9589 22.5484 31.0528C22.4066 31.2363 22.3138 31.4528 22.2818 31.6928C21.9863 31.7035 21.6972 31.6075 21.4647 31.4261V30.6155C21.4647 30.4384 21.4647 30.4384 21.374 30.4384L20.926 30.8864C20.5634 30.6155 20.478 29.8944 20.478 29.44C21.9244 28.6293 23.7335 28.896 24.8002 29.3493C24.9815 29.44 25.1628 29.44 25.3388 29.5307C25.2482 30.0693 25.0722 30.8832 24.5282 31.2416C24.4994 30.9397 24.3682 30.6571 24.1591 30.4384V30.4277ZM25.7804 40.1525C25.4555 40.0573 25.1505 39.9041 24.8802 39.7003C24.8236 39.5243 24.7948 39.3419 24.7895 39.1563H25.5127L25.9607 40.1483H25.7794L25.7804 40.1525ZM25.7804 37.7184C25.2325 37.2071 24.747 36.6328 24.334 36.0075L25.7804 36.2784C26.1638 36.6175 26.5261 36.9798 26.8652 37.3632C26.5479 37.5884 26.1696 37.713 25.7804 37.7184ZM26.7724 34.2965C26.2284 33.4859 26.5015 32.7627 26.7724 32.1269C26.925 32.6283 27.0455 33.1403 27.1351 33.6565C27.2258 34.0192 27.7751 34.1952 27.9458 34.4672C27.5831 34.5685 26.9516 34.7488 26.7724 34.2965ZM27.1351 42.3115L27.5831 41.2267C27.8575 41.1865 28.1284 41.1259 28.3938 41.0453C28.6898 40.9745 28.9941 40.944 29.2983 40.9547V41.0453C30.2924 41.0453 31.4679 40.9547 32.1922 41.7685L32.2775 42.4917C31.9148 42.2208 31.3772 42.2208 31.1927 41.7685C30.8364 41.6896 30.4716 41.6587 30.1079 41.6779C29.7233 41.7528 29.3314 41.7832 28.9399 41.7685C28.8492 41.7685 28.9399 41.6779 28.7586 41.5872C28.2124 41.7717 27.6738 41.7717 27.1308 42.3104L27.1351 42.3115ZM30.029 45.6459L29.758 45.9125C29.4914 45.6459 29.6674 44.9205 29.2194 44.8277C28.7714 44.8277 28.4055 44.3755 28.2316 44.2891L28.5943 44.1077C28.7095 44.0544 28.8396 44.0544 28.957 44.1077C29.1383 44.2891 29.3196 44.3744 29.3196 44.5557C29.501 44.8267 29.7676 44.5557 29.9522 44.8267C30.057 45.0837 30.0798 45.3669 30.0172 45.6373L30.029 45.6459ZM32.8215 45.4645C32.6402 44.9259 32.4588 44.1152 31.8295 44.1152C31.8016 43.9498 31.7393 43.7922 31.6465 43.6525C31.5537 43.5128 31.4325 43.3943 31.2908 43.3045L30.5676 43.2192C30.6583 43.5819 31.2076 43.5819 30.8343 44.1195C31.197 44.3861 31.4743 44.3861 31.6482 44.8427C31.8252 45.1093 31.6482 45.4827 31.7335 45.6533L31.1948 45.92C31.1948 45.4677 31.2855 44.5675 30.6562 44.3861C30.1175 44.5675 30.0162 43.8475 29.6642 43.5755C29.4828 43.5755 29.4828 43.1232 29.2119 43.3045C28.7639 43.5755 28.2242 43.3045 27.7655 43.5755L28.2178 42.8523C28.5804 42.5813 28.941 42.6709 29.3026 42.5813L30.0258 42.4907C30.749 42.4907 31.3751 42.8533 32.0983 43.1307C32.2703 43.2064 32.4146 43.3337 32.5111 43.495C32.6076 43.6562 32.6516 43.8435 32.637 44.0309C32.8183 44.1216 33.1756 44.1216 33.1756 44.3936C33.0242 44.7424 32.8983 45.1029 32.8023 45.4603L32.8215 45.4645ZM34.0834 44.1152C33.902 43.8443 33.8167 43.5765 33.6311 43.5765C33.902 42.5845 33.3644 41.7685 33.1831 40.9653V40.6901C33.454 41.1424 34.1708 41.5904 34.0834 42.0427C34.1506 42.7317 34.19 43.4229 34.1687 44.1152H34.0834ZM33.1831 32.8565L33.9063 32.4939C34.1463 32.6923 34.4204 32.8459 34.717 32.9419C34.4885 33.1078 34.2097 33.1899 33.9277 33.1741C33.6457 33.1584 33.3778 33.0458 33.1692 32.8555L33.1831 32.8565ZM39.3058 34.3029C39.507 34.4594 39.688 34.6403 39.8444 34.8416V35.5648C39.0306 35.1125 38.5826 34.3029 37.8626 33.4923C38.5719 33.4848 38.7522 34.2048 39.2919 34.2955L39.3058 34.3029ZM35.2524 34.4843C35.5234 34.7552 35.885 35.1243 35.885 35.3845C35.8706 35.4962 35.8305 35.603 35.7677 35.6965C35.705 35.79 35.6213 35.8676 35.5234 35.9232C35.3641 35.7382 35.2414 35.5246 35.1618 35.2939C35.1372 35.0187 35.1628 34.7424 35.2364 34.4768L35.2524 34.4843ZM36.0663 41.2405C36.1111 40.7477 35.949 40.2592 35.614 39.8912C35.614 39.7099 35.885 39.7099 35.7047 39.4432C35.7047 39.4432 35.166 39.1723 35.166 38.8032C35.166 38.4341 35.5287 38.1632 35.7047 37.9029C35.7047 37.8123 36.0674 38.0843 36.0674 38.6261C36.0746 38.81 36.0438 38.9934 35.9767 39.1648C35.886 39.4357 36.5154 39.4357 36.5154 39.7088C36.5004 40.2293 36.1388 40.6816 36.0524 41.2203L36.0663 41.2405ZM37.0583 37.3685C37.0156 37.5477 36.877 37.6885 36.6956 37.7312C36.4448 37.4792 36.2586 37.1703 36.1527 36.8309C36.0674 36.4683 36.4236 35.8389 36.4236 35.8389C36.5143 35.8389 36.6007 36.016 36.6946 36.016C36.7852 36.1067 36.6946 36.3787 36.7852 36.656C37.0412 36.8299 37.2194 37.1915 37.0412 37.3707L37.0583 37.3685ZM37.869 42.0704C38.0503 41.6181 38.0503 40.7179 37.869 40.7179C37.6919 40.6272 37.3303 40.7179 37.3303 40.5365C37.3303 40.2656 37.421 39.8965 37.421 39.7259C37.421 39.3632 37.15 39.1819 37.15 39.0027C37.15 38.4587 37.79 38.3627 37.9607 38.0107C38.0365 38.3965 38.0655 38.7901 38.0471 39.1829C38.0471 39.3643 38.318 39.9061 38.0471 40.3563C38.0471 40.6272 38.5911 40.4469 38.5911 40.7189C38.5762 41.1456 38.0343 41.6843 37.853 42.0459L37.869 42.0704ZM39.3154 39.9008C39.0444 39.9008 39.0444 39.7195 39.0444 39.3621C38.9383 38.8392 38.7884 38.3261 38.5964 37.8283C38.4151 37.1051 37.9564 36.4789 37.6044 35.6587C37.5138 35.296 37.0658 35.12 36.7042 34.848C36.9281 34.817 37.156 34.8331 37.3733 34.8954C37.5906 34.9576 37.7925 35.0647 37.966 35.2096C37.966 35.3909 38.0514 35.4805 38.3287 35.7536C38.9612 35.7536 38.781 36.5643 39.3207 36.9216C39.0498 37.1925 38.958 37.3739 38.782 37.5541C39.0487 37.7355 39.3207 37.8208 39.422 38.0928C39.3964 38.6208 39.3047 39.2501 39.3047 39.8827L39.3154 39.9008ZM40.5772 39.0005C40.3959 38.4565 40.0332 37.9157 39.854 37.3771C39.854 37.2864 39.7634 37.2864 39.9447 37.1957C40.0354 37.1957 40.397 37.1957 40.397 37.2864C40.5392 37.5044 40.6307 37.7515 40.6647 38.0096C40.6391 38.3531 40.4663 38.6208 40.5559 38.9824L40.5772 39.0005ZM45.4412 36.2987C45.2599 36.1173 45.4412 35.76 44.989 35.76C44.8165 35.8059 44.66 35.8986 44.5367 36.0277C44.3554 36.1184 43.8135 35.7611 43.8135 36.0277C43.8135 36.48 43.4508 36.6677 43.0028 36.6677C42.8172 36.6818 42.6309 36.6507 42.4599 36.5771V35.6619C43.6332 35.6619 43.5447 35.2992 44.0812 35.2992C44.4439 35.2992 44.7138 35.4805 44.9815 35.4805C45.4338 35.4805 45.166 35.2992 45.614 35.2992C46.062 35.2992 46.254 35.6619 46.51 35.7515C46.51 36.0181 46.781 36.3915 46.781 36.7435C46.1367 36.7435 45.5042 36.5621 45.4135 36.2912L45.4412 36.2987ZM45.9799 38.7307C45.709 38.64 45.0796 38.5536 45.0796 38.2827C45.0796 37.92 44.8983 37.8304 44.4396 37.8304C44.0364 37.8517 43.6396 37.9445 43.2663 38.1013C43.1064 37.882 42.9842 37.6376 42.9047 37.3781C43.31 37.2288 43.7367 37.1371 44.1708 37.1115C44.8108 37.1115 45.4295 37.1115 45.4295 37.3781C45.4039 37.7216 45.9468 37.8123 45.9468 38.7115L45.9799 38.7307ZM44.9772 33.6704C45.1914 33.6221 45.4025 33.5615 45.6098 33.4891C46.0578 33.4891 46.4204 34.2123 46.5058 34.7509C45.7656 34.3175 44.9316 34.0694 44.0748 34.0277C43.4134 34.1412 42.7915 34.42 42.2668 34.8384L42.0823 34.032C42.621 33.9413 42.621 33.488 42.9826 33.488C43.2535 33.488 43.6226 33.3973 43.8828 33.3973C44.0722 33.3657 44.2554 33.3045 44.4258 33.216C44.8738 33.216 44.6924 33.6683 44.9751 33.6683L44.9772 33.6704ZM42.1847 32.4971C42.4514 32.2261 42.9079 31.8571 43.2695 31.8571C43.9095 31.8571 44.4428 32.3093 44.4428 32.7573C43.8988 32.7573 43.8103 32.6667 43.4508 32.6667C42.9495 32.6432 42.4716 32.88 42.189 33.3067C42.0503 33.056 42.0428 32.752 42.174 32.496L42.1847 32.4971ZM42.445 30.1568C42.553 30.0878 42.6784 30.0512 42.8066 30.0512C42.9347 30.0512 43.0602 30.0878 43.1682 30.1568C43.1682 30.6955 43.8082 30.4277 44.1602 30.6048C44.3333 30.8483 44.4562 31.1239 44.5218 31.4155C43.8818 31.2341 43.534 30.9632 42.9922 30.9632C42.8108 30.9632 42.0002 31.2341 41.9074 31.4155C41.6322 31.0528 42.0834 30.3339 42.445 30.1568ZM44.1559 43.8315C43.7841 43.577 43.3398 43.4501 42.8898 43.4699C42.8898 43.1072 42.6231 42.6592 42.4418 42.6592C41.9031 42.6592 41.9938 43.0219 41.5415 43.0219L42.3522 42.2112C42.4428 42.0299 42.4428 42.0299 42.6231 42.0299C42.7943 42.1932 43.0192 42.2884 43.2556 42.2976C43.2631 42.4811 43.2343 42.6656 43.165 42.8363C43.4359 43.0176 43.6172 42.7456 43.805 43.0176C44.0759 43.1083 44.3436 43.1989 44.3436 43.5616C44.3068 43.6646 44.2461 43.7574 44.1666 43.8325L44.1559 43.8315ZM45.0562 42.5696C44.4162 42.4789 44.4162 41.7589 44.333 41.6693C43.885 41.1307 43.2482 41.5787 42.8034 41.5787C42.622 41.04 42.8887 41.04 42.8887 40.6784C43.1596 40.6784 43.4327 40.4971 43.7026 40.6784C44.1548 40.4971 44.4258 40.9451 44.8759 40.9451C44.9785 41.1947 45.0994 41.4364 45.2375 41.6683C45.2143 41.9795 45.1534 42.2868 45.0562 42.5835V42.5696ZM45.5042 40.6784C44.8642 40.6784 45.2375 39.4165 43.8828 39.4165C43.6119 39.4165 43.4348 39.8645 43.0722 39.9605C43.0722 39.8699 43.1628 39.3205 43.1628 39.3205C43.1682 39.0144 43.342 38.736 43.6151 38.5973C44.3383 38.5973 44.1591 38.8683 44.6999 39.0496C44.9495 39.1925 45.2247 39.2843 45.5106 39.3205V40.6699L45.5042 40.6784ZM46.766 44.8192C46.766 44.3669 46.2274 44.096 45.8658 43.2853L46.2284 42.6453C46.4012 42.7299 46.5498 42.8568 46.6603 43.0142C46.7709 43.1716 46.8399 43.3544 46.861 43.5456C46.8114 43.6908 46.8114 43.8484 46.861 43.9936C46.861 44.0843 47.0423 44.0843 47.0423 44.2645C46.9141 44.4298 46.8205 44.6191 46.7671 44.8213L46.766 44.8192ZM47.3986 43.0112L46.8599 42.2005C47.0412 41.9296 47.0412 41.5605 47.3079 41.1157C47.4818 41.3269 47.6066 41.5744 47.6706 41.8389C47.7239 42.2571 47.6279 42.6816 47.3954 43.0336L47.3986 43.0112ZM38.5538 44.9173C38.7991 45.0731 38.9378 45.3515 38.9164 45.6405C38.8912 45.9185 38.7621 46.1767 38.5548 46.3637C38.3735 46.1824 38.3735 45.9157 38.1922 45.6405C38.0108 45.6405 37.9212 46.0885 37.9212 46.2805C37.9639 46.9824 38.1815 47.664 38.5612 48.2624H39.3719C39.2314 47.5463 39.1409 46.8214 39.101 46.0928C39.1543 45.6661 39.277 45.2288 39.4636 44.8309L38.5538 44.9173ZM26.9335 45.4635C26.7564 45.4635 26.2935 45.7344 26.2935 45.9157C26.2935 46.2784 26.1122 48.256 26.1122 48.256H26.7522C27.0188 47.4453 27.5586 46.3648 27.5586 45.9157C27.566 45.5573 27.2994 45.4635 26.9335 45.4635ZM24.7639 45.1008C24.5826 45.1008 24.3159 45.6448 24.3159 45.824C24.3334 46.6531 24.4846 47.474 24.7639 48.2549H25.4871C25.4871 47.4443 25.5778 46.544 25.5778 45.8229C25.4946 45.8229 25.6759 46 24.7746 45.1029L24.7639 45.1008ZM23.7719 44.3776L22.7799 44.5589C22.5844 44.7546 22.4575 45.0083 22.4183 45.2821L22.8706 45.1008C23.0018 45.184 23.0988 45.3141 23.1415 45.4635C23.0476 45.9157 22.509 45.9157 22.3276 46.096C22.0567 46.9963 22.8716 47.5424 22.9602 48.2656H24.045C23.7068 47.5307 23.5235 46.7341 23.5063 45.9253C23.464 45.3968 23.5588 44.8663 23.7815 44.3851L23.7719 44.3776ZM27.6567 21.0464H27.9276C28.1986 20.7755 28.3756 21.0464 28.5676 20.7755C28.7767 20.208 28.7084 19.5744 28.3831 19.0645C28.206 18.7019 27.7431 18.5259 27.2983 18.1643L26.6658 18.5269C26.4897 18.6223 26.3451 18.7667 26.2495 18.9425C26.1539 19.1184 26.1114 19.3183 26.1271 19.5179C26.7863 19.856 27.325 20.3904 27.6674 21.0475L27.6567 21.0464ZM24.0407 20.5941C24.4887 20.5941 24.3116 21.2341 24.6807 21.3173H25.4914C25.4914 21.0464 25.4007 21.0464 25.31 21.0464C24.862 21.0464 24.862 20.3232 24.4994 20.5024C24.3223 20.5024 24.1367 20.3211 23.8594 20.5024C23.8743 20.6069 23.8743 20.6069 24.0546 20.6069L24.0407 20.5941ZM24.3116 22.576H24.1303C24.2828 23.3461 24.3436 24.1312 24.3116 24.9163C24.5121 24.9356 24.6979 25.0297 24.8319 25.18C24.966 25.3303 25.0384 25.5256 25.0348 25.7269C25.4135 25.8709 25.7762 26.0512 26.1196 26.2656C26.3116 26.1056 26.4396 25.8816 26.4823 25.6256C26.1196 25.1776 25.309 25.4443 25.309 24.6336L24.7703 24.4523C24.7915 23.9683 24.7611 23.4834 24.6796 23.0059L24.7703 22.9152C24.8209 23.0621 24.9174 23.1888 25.0455 23.2768C25.4082 23.2768 25.7687 23.3675 26.1303 23.0955C26.3116 23.0048 26.3116 22.5568 26.493 22.5568C26.5772 22.5754 26.6651 22.568 26.7451 22.5357C26.8251 22.5033 26.8934 22.4474 26.941 22.3755C26.941 22.3755 27.1223 22.3755 26.941 22.2848L24.9591 22.0139C24.7746 22.3072 24.3266 22.3072 24.3266 22.5792L24.3116 22.576ZM22.4204 20.5035C22.2391 20.3221 21.6972 20.5941 21.4327 20.6848C21.2743 20.71 21.1281 20.7849 21.015 20.8985C20.9019 21.0122 20.8278 21.1588 20.8034 21.3173H21.8124C21.9692 21.0165 22.1783 20.7456 22.4311 20.5173L22.4204 20.5035ZM18.7319 20.5941C19.267 20.1798 19.8398 19.8166 20.4428 19.5093C20.3522 18.6091 19.358 18.5173 18.909 18.1568H18.557C17.8338 18.4277 17.6567 19.1488 17.5692 19.7781C17.8338 20.6101 18.3799 20.0715 18.7426 20.6101L18.7319 20.5941ZM24.7756 27.4549L25.7676 27.8176V27.3653H24.8674L24.7756 27.4549ZM19.101 22.0512C19.0946 22.1963 19.15 22.3392 19.2535 22.4405C19.357 22.5419 19.4988 22.5973 19.6439 22.5899C19.6588 22.8213 19.7964 23.0165 20.0066 23.1285C20.0876 23.216 20.2018 23.2651 20.3212 23.2651C20.4407 23.2651 20.5559 23.216 20.6359 23.1285C20.9068 23.3099 20.9986 22.9472 21.0882 23.1285C21.1064 23.5512 21.0759 23.9746 20.9975 24.3904C20.9068 25.0229 20.3575 24.9291 19.9127 25.2011C19.9127 25.472 19.646 25.9243 19.9127 26.1931C20.1954 26.0096 20.4994 25.8603 20.8172 25.7483C20.8512 25.5827 20.9279 25.4289 21.0395 25.3021C21.1512 25.1752 21.2941 25.0797 21.454 25.0251C21.454 24.2144 21.7207 23.4037 21.7207 22.5931C21.6599 22.3541 21.4935 22.1664 21.2684 22.0544H19.0978L19.101 22.0512ZM19.9116 27.1925C19.8839 27.4112 19.9906 27.6235 20.1826 27.7312C20.4066 27.5179 20.6914 27.4027 20.9932 27.3685C20.8162 26.9995 20.3671 27.3621 19.9116 27.1925Z" fill="#E6873C"/>
</svg>
