<svg width="129" height="72" viewBox="0 0 129 72" fill="none" xmlns="http://www.w3.org/2000/svg">
<path d="M44.2997 28.1276V26.8576C45.9129 26.9606 47.2859 26.7546 48.2814 26.1025C49.8947 25.107 50.5125 23.1162 50.5125 21.2969C50.5125 20.3702 50.4095 19.615 50.1006 18.8255C49.2425 16.663 47.3546 15.3244 44.4026 15.3244C43.8534 15.3244 43.2013 15.393 43.064 15.393V31.5945C43.064 33.2421 43.064 34.6838 43.0983 35.4732C43.1326 36.2284 43.3386 36.297 45.1921 36.7089L46.1875 36.9149V38.0819H36.0959V36.9149L37.0914 36.7089C38.9793 36.297 39.1509 36.2284 39.1852 35.4732C39.2195 34.6838 39.2195 33.2421 39.2195 31.5945V19.9926C39.2195 18.345 39.2195 16.9033 39.1852 16.1138C39.1509 15.3587 38.9793 15.29 37.0914 14.8781L36.0959 14.6722V13.5051H43.3729C46.4278 13.5051 47.9038 13.6424 49.5171 14.0887C52.7093 14.9468 54.4599 17.4868 54.4599 20.5418C54.4599 25.3816 50.6155 29.2261 44.2997 28.1276Z" fill="#626769"/>
<path d="M77.9384 38.0815H68.0185V36.9488L70.3182 36.4339C70.7988 36.3309 71.0047 36.022 70.8331 35.5758L68.9452 30.5643H60.261L58.7507 35.6101C58.6134 36.022 58.7163 36.2966 59.7461 36.5369L61.8056 36.9488V38.0815H53.1213V36.9488L55.2152 36.4339C55.8673 36.2623 56.1419 36.125 56.3479 35.5414L63.2129 15.5642C63.7965 13.6763 64.4143 13.2644 66.3709 12.7152C66.6111 13.6077 66.7484 13.9852 67.229 15.2896L75.0551 35.5414C75.2611 36.0563 75.364 36.1593 75.9132 36.3309L77.9384 36.9488V38.0815ZM60.8788 28.4361H68.1901L64.1397 17.4178C64.1397 17.4178 63.7621 18.8594 63.2129 20.713L60.8788 28.4361Z" fill="#626769"/>
<path d="M105.536 38.2879C100.936 38.4939 99.5289 37.876 95.9591 33.6883L92.5266 29.6036C91.8401 28.8142 91.5655 28.5052 91.085 28.1276H87.8241V31.5945C87.8241 33.2421 87.8241 34.6838 87.8584 35.4732C87.8927 36.2284 88.0987 36.297 89.9522 36.7089L90.9476 36.9149V38.0819H80.8904V36.9149L81.8858 36.7089C83.7737 36.297 83.9453 36.2284 83.9796 35.4732C84.014 34.6838 84.014 33.2421 84.014 31.5945V19.9926C84.014 18.345 84.014 16.9033 83.9796 16.1138C83.9453 15.3587 83.7737 15.29 81.8858 14.8781L80.8904 14.6722V13.5051C80.8904 13.5051 84.8035 13.5738 86.4167 13.5738C87.7897 13.5738 88.6135 13.5051 90.1925 13.5051C92.0117 13.5051 93.522 13.6424 94.7921 14.02C97.95 14.8438 99.7006 17.4525 99.7006 20.4731C99.7006 23.734 97.4694 26.3771 94.9294 27.1322C95.5472 27.5441 95.9934 27.9217 96.9546 28.9858L100.49 32.8302C103.511 36.0911 104.094 36.6746 106.016 37.1208L105.536 38.2879ZM95.2383 18.7226C94.4145 16.5601 92.458 15.3244 89.5403 15.3244C88.8881 15.3244 87.9957 15.393 87.8241 15.4273V26.2054H91.9774C93.8996 26.2054 94.9294 24.9011 95.4099 23.1848C95.6159 22.6013 95.6845 21.8805 95.6845 21.194C95.6845 20.3358 95.5472 19.512 95.2383 18.7226Z" fill="#626769"/>
<path d="M116.829 28.1276V26.8576C118.442 26.9606 119.815 26.7546 120.811 26.1025C122.424 25.107 123.042 23.1162 123.042 21.2969C123.042 20.3702 122.939 19.615 122.63 18.8255C121.772 16.663 119.884 15.3244 116.932 15.3244C116.383 15.3244 115.73 15.393 115.593 15.393V31.5945C115.593 33.2421 115.593 34.6838 115.627 35.4732C115.662 36.2284 115.868 36.297 117.721 36.7089L118.717 36.9149V38.0819H108.659V36.9149L109.655 36.7089C111.543 36.297 111.714 36.2284 111.749 35.4732C111.783 34.6838 111.783 33.2421 111.783 31.5945V19.9926C111.783 18.345 111.783 16.9033 111.749 16.1138C111.714 15.3587 111.543 15.29 109.655 14.8781L108.659 14.6722V13.5051H115.936C118.991 13.5051 120.467 13.6424 122.081 14.0887C125.273 14.9468 127.023 17.4868 127.023 20.5418C127.023 25.3816 123.179 29.2261 116.829 28.1276Z" fill="#626769"/>
<path d="M99.1842 49.6488C99.1842 49.8891 99.1499 50.1637 99.0812 50.404C98.9096 51.0561 98.4977 51.5367 97.7769 51.5367H96.1979V47.452C96.2666 47.452 96.6098 47.4177 96.8501 47.4177C97.9485 47.4177 98.6693 47.8982 99.0126 48.6877C99.1499 48.9966 99.1842 49.3056 99.1842 49.6488ZM103.097 55.6214C102.376 55.4498 102.171 55.2438 101.003 54.0081L99.6648 52.5664C99.3215 52.1889 99.1499 52.0172 98.9096 51.8799C99.8707 51.6053 100.729 50.6099 100.729 49.3742C100.729 48.2415 100.077 47.2461 98.8753 46.9371C98.3947 46.7998 97.8112 46.7312 97.1247 46.7312C96.5069 46.7312 96.2323 46.7655 95.6831 46.7655C95.0652 46.7655 93.5892 46.7312 93.5892 46.7312V47.1774L93.9668 47.246C94.6876 47.4177 94.7563 47.4177 94.7563 47.7266C94.7563 48.0355 94.7563 48.5504 94.7563 49.2026V53.5619C94.7563 54.1797 94.7563 54.7289 94.7563 55.0379C94.7563 55.3125 94.6876 55.3468 93.9668 55.5184L93.5892 55.5871V56.0333H97.3993V55.5871L97.0217 55.5184C96.3352 55.3468 96.2323 55.3468 96.2323 55.0379C96.2323 54.7289 96.2323 54.2141 96.2323 53.5619V52.2575H97.468C97.6396 52.3948 97.7426 52.5321 98.0172 52.8067L99.3215 54.3514C100.66 55.9303 101.209 56.1706 102.926 56.1019L103.097 55.6214ZM91.9759 46.6968H85.1796V47.1431L85.5571 47.2117C86.4496 47.3834 86.5182 47.3833 86.5526 47.6923C86.5526 48.0012 86.5526 48.5161 86.5526 49.1683V53.5276C86.5526 54.1454 86.5526 54.6946 86.5526 55.0035C86.5526 55.2781 86.4496 55.3125 85.7631 55.4841L85.3855 55.5527V55.999H89.1956V55.5527L88.818 55.4841C88.0972 55.3468 88.0285 55.3125 88.0285 55.0379C88.0285 54.7289 88.0285 54.1797 88.0285 53.5619V51.8799C89.1613 51.8799 90.0194 51.8799 90.294 51.9486C90.5686 51.9829 90.6029 52.0172 90.6716 52.2575C90.7746 52.6351 90.8089 52.7724 90.8775 53.0813H91.3238V50.1294H90.8775C90.7746 50.5069 90.7746 50.6786 90.6716 50.9532C90.6029 51.1248 90.5343 51.1248 90.294 51.1591C89.9508 51.2278 89.1269 51.2278 88.0285 51.2278V47.349C91.0148 47.349 91.1865 47.452 91.2894 47.8982C91.3581 48.2415 91.3924 48.5161 91.4611 48.9966H91.9416C91.9759 48.1385 92.0103 47.349 91.9759 46.6968ZM84.1841 49.3742C84.1841 48.2072 83.532 47.2804 82.2962 46.9371C81.6784 46.7655 81.1292 46.7312 79.9621 46.7312H77.2161V47.1774L77.5937 47.246C78.3145 47.4177 78.3832 47.4177 78.3832 47.7266C78.3832 48.0355 78.3832 48.5504 78.3832 49.2026V53.5619C78.3832 54.1797 78.3832 54.7289 78.3832 55.0379C78.3832 55.3125 78.3145 55.3468 77.5937 55.5184L77.2161 55.5871V56.0333H81.0262V55.5871L80.6486 55.5184C79.9621 55.3468 79.8592 55.3468 79.8592 55.0379C79.8592 54.7289 79.8592 54.2141 79.8592 53.5619V47.452C79.9278 47.452 80.1681 47.4177 80.374 47.4177C81.4724 47.4177 82.1933 47.9326 82.5365 48.7564C82.6395 49.031 82.7081 49.3399 82.7081 49.6831C82.7081 50.3696 82.5022 51.1248 81.8843 51.5024C81.5068 51.7426 80.9919 51.8456 80.374 51.777V52.2575C82.7425 52.6694 84.1841 51.1934 84.1841 49.3742ZM71.3808 54.6946C71.0376 55.0035 70.557 55.2095 70.1108 55.2095C69.4586 55.2095 69.0467 54.8319 69.0467 54.3857C69.0467 53.7678 69.7332 53.15 71.3808 52.944V54.6946ZM73.7836 55.5527C72.6509 55.2438 72.6165 54.6603 72.6165 53.4932V51.674C72.6165 50.2667 72.2733 49.3056 70.4197 49.3056C69.6303 49.3056 68.8408 49.4772 68.2916 49.9234C68.017 50.1294 67.914 50.3696 67.914 50.6442C67.914 50.8502 68.017 51.0905 68.1886 51.2964C69.0811 50.3353 69.7332 50.095 70.2481 50.095C71.0719 50.095 71.4152 50.5756 71.4152 51.8113V52.3262C68.8751 52.6694 67.8454 53.6305 67.8454 54.6946C67.8454 55.5871 68.5318 56.1706 69.493 56.1706C70.3511 56.1706 71.1062 55.6557 71.4838 55.0379C71.5868 55.7587 72.0673 56.1019 72.6852 56.1019C73.0285 56.1019 73.406 55.9646 73.7493 55.7244L73.7836 55.5527ZM65.4769 52.8754C65.4769 53.8708 65.2023 54.6603 64.6874 55.0722C64.4815 55.2438 64.1382 55.4154 63.589 55.4154C63.2115 55.4154 62.7996 55.3468 62.216 55.2095V50.7472C62.4906 50.4726 63.0398 50.2323 63.5547 50.2323C64.7561 50.2323 65.4769 51.1934 65.4769 52.8754ZM66.8156 52.2918C66.8156 50.6099 65.7858 49.3056 64.1726 49.3056C63.3144 49.3056 62.5593 49.6831 62.1474 50.3696V49.3742H62.0444C61.4609 49.3742 60.74 49.4772 59.9162 49.7518V50.0264L60.4654 50.1637C60.7744 50.2323 60.843 50.3353 60.843 50.6099C60.843 50.9188 60.843 51.5367 60.843 52.1889V56.5825C60.843 57.269 60.843 57.9212 60.843 58.2644C60.843 58.5734 60.8087 58.6077 60.5341 58.7107L60.0192 58.8823V59.2599H63.0398V58.8823L62.4906 58.7107C62.216 58.6077 62.1817 58.6077 62.1817 58.2644C62.1817 57.9212 62.1817 57.269 62.1817 56.5825V56.0333C62.4906 56.1019 62.8339 56.1363 63.1428 56.1363C64.0353 56.1363 64.7561 55.9303 65.4426 55.4154C66.335 54.8319 66.8156 53.7335 66.8156 52.2918ZM59.3327 55.3811L58.7835 55.2438C58.4746 55.1752 58.4059 55.0722 58.4059 54.7976C58.4059 54.4887 58.4059 53.8708 58.4059 53.2186V49.4085H58.2686C57.6508 49.4085 56.9643 49.5115 56.1405 49.7861V50.0607L56.6897 50.198C56.9986 50.2667 57.0673 50.3696 57.0673 50.6442C57.0673 50.9532 57.0673 51.571 57.0673 52.2232V54.5916C56.7927 54.9006 56.2091 55.1752 55.5226 55.1752C54.3212 55.1752 54.1496 54.4543 54.1496 52.9097V49.3742H54.0123C53.4288 49.3742 52.708 49.4772 51.8841 49.7518V50.0264L52.4334 50.1637C52.7423 50.2323 52.8109 50.3353 52.8109 50.6099C52.8109 50.9188 52.8109 51.5367 52.8109 52.1889V53.5619C52.8109 55.3468 53.4631 56.1706 54.9048 56.1706C55.9002 56.1706 56.621 55.7244 57.0329 54.9692V56.0333H57.1359C57.7194 56.0333 58.4403 55.9303 59.2641 55.6557V55.3811H59.3327ZM51.129 49.9921C51.129 49.5458 50.8201 49.2712 50.2709 49.2712C49.7217 49.2712 49.1725 49.5802 48.7949 50.5069V49.3399H48.6919C48.1084 49.3399 47.3876 49.4429 46.5637 49.7175V49.9921L47.113 50.1294C47.4219 50.198 47.4905 50.301 47.4905 50.5756C47.4905 50.8845 47.4905 51.5024 47.4905 52.1545V53.253C47.4905 53.9395 47.4905 54.5916 47.4905 54.9692C47.4905 55.2781 47.4562 55.3125 47.1816 55.3811L46.6667 55.5527V55.9303H49.7217V55.5527L49.1381 55.3811C48.8635 55.3125 48.8292 55.2438 48.7949 54.9692C48.7949 54.5916 48.7949 53.9395 48.7949 53.253V50.7472C48.9322 50.5756 49.2411 50.404 49.6187 50.404C49.8933 50.404 50.2709 50.5069 50.7857 50.7472C51.026 50.5756 51.129 50.2667 51.129 49.9921ZM45.7743 52.2232V51.7426H42.0328V52.2232L42.3761 52.2918C43.0969 52.4635 43.1656 52.5321 43.1656 52.8067C43.1656 53.1157 43.1656 53.6305 43.1656 54.2484V55.1408C42.7193 55.2438 42.1015 55.3468 41.4493 55.3468C38.9436 55.3468 37.5706 53.5276 37.5706 51.0218C37.5706 49.7175 37.8108 48.7564 38.5317 48.0699C39.0809 47.555 39.836 47.2804 41.0717 47.2804C42.582 47.2804 43.4058 47.5893 43.6461 48.4474C43.7148 48.722 43.7491 48.928 43.8521 49.5458H44.3669C44.4356 48.4818 44.4699 47.6923 44.4356 46.8685C43.4402 46.7655 42.4791 46.5939 41.1747 46.5939C39.6301 46.5939 38.5317 46.9028 37.7079 47.5207C36.6438 48.3101 35.9573 49.5458 35.9573 51.2621C35.9573 53.047 36.6438 54.3857 37.7765 55.2438C38.669 55.896 39.8703 56.1706 41.0717 56.1706C42.3074 56.1706 43.6461 55.896 44.6072 55.5184C44.5386 55.3125 44.5386 54.6603 44.5386 54.523V54.317C44.5386 53.6992 44.5386 53.15 44.5386 52.8754C44.5386 52.6008 44.6072 52.5321 45.328 52.3605L45.7743 52.2232Z" fill="#626769"/>
<path d="M20.3289 37.7152H1.5V18.4277C1.5 15.8358 3.70898 13.7152 6.40884 13.7152H26.5V31.7909C26.5 35.056 23.73 37.7152 20.3289 37.7152ZM5.84783 22.7026C12.1943 19.8414 20.0484 26.136 22.3626 18.394C15.5603 20.2454 9.21389 15.3982 5.84783 22.7026ZM5.84783 27.92C10.8619 25.833 15.946 30.7475 18.8913 24.7895C13.4916 26.136 8.51262 22.6016 5.84783 27.92ZM5.84783 32.5315C9.31908 31.0504 12.8254 34.5175 14.8941 30.2762C11.1424 31.2524 7.67111 28.7278 5.84783 32.5315Z" fill="#B61928"/>
</svg>
