<svg width="129" height="20" viewBox="0 0 129 20" fill="none" xmlns="http://www.w3.org/2000/svg">
<g clip-path="url(#clip0_667_2167)">
<path d="M33.1025 0.76392V19.4203H33.7986L33.8127 0.771372L33.1025 0.76392Z" fill="#D71A20"/>
<path d="M10.345 0.573206C8.74965 0.561405 6.94839 1.05116 4.96603 2.37514C4.96576 2.37514 5.56044 3.8823 4.31888 5.47097C4.31863 5.47097 4.35136 5.4872 4.3525 5.48684C5.55603 4.82041 11.2895 -0.209737 17.5057 5.80436C17.5057 5.80436 27.3198 4.9476 24.7169 13.4963C24.7169 13.4963 28.1881 14.7419 27.7677 19.426C27.7677 19.426 27.8086 19.4281 27.8098 19.426C27.9555 19.1264 29.988 15.0426 26.776 13.155C26.776 13.155 28.0747 10.1427 25.6498 7.35228C24.4166 5.93246 22.157 4.57643 18.0184 5.14551C18.0182 5.14551 15.131 0.608622 10.345 0.573206ZM0.452755 0.747843C0.452755 0.747841 0.45194 0.786814 0.452755 0.787533C0.997842 1.07423 4.31273 3.0634 0.595633 5.43922L2.8985 14.7982C2.8985 14.7982 6.12677 12.3253 8.80694 13.4566C10.5171 14.1787 10.9583 16.1729 10.6307 19.2752C10.6307 19.2752 10.6796 19.2781 10.6812 19.2752C10.9269 18.7306 14.0962 13.1715 9.26919 11.488C8.35856 11.17 7.07556 11.0707 4.77273 11.869L2.63795 6.0822C2.63795 6.0822 6.02612 1.74409 0.452755 0.747843ZM20.6238 12.4247C18.8121 12.5107 17.7242 13.7583 17.7242 13.7583C14.8672 11.1231 12.3453 14.0123 12.3453 14.0123C14.2008 15.7712 13.3034 19.426 13.3034 19.426C13.3026 19.4239 13.3439 19.4286 13.3454 19.426C14.886 17.0462 14.6986 14.7029 14.6986 14.7029C16.2403 14.2581 17.1527 15.8539 17.1527 15.8539C19.0809 13.8546 21.0096 13.7263 22.061 14.3457C24.6697 15.8833 23.7756 19.2752 23.7756 19.2752C23.7756 19.2762 23.8256 19.2767 23.826 19.2752C26.0098 15.2762 24.0302 13.3892 22.6661 12.8136C21.914 12.496 21.2277 12.396 20.6238 12.4247Z" fill="#D71A20"/>
<path fill-rule="evenodd" clip-rule="evenodd" d="M103.835 12.2411C103.835 12.1448 103.918 12.1634 104.036 12.1634H104.314C104.34 12.1632 104.366 12.1608 104.438 12.1662C104.438 12.1662 104.697 12.203 104.915 12.4241L108.125 16.3996L110.253 16.4014L106.986 12.2046L106.355 11.4665C106.33 11.4281 106.339 11.3802 106.452 11.2662L109.621 7.84747L109.915 7.55011C109.946 7.51194 110.022 7.45767 109.851 7.45767H108.344H108.096C107.847 7.45767 107.856 7.43941 107.707 7.58991L104.8 10.7563C104.8 10.7563 104.633 10.985 104.42 10.985H104.056C104.036 10.9843 104.003 10.9845 103.95 10.9845C103.918 10.9794 103.855 10.9845 103.842 10.906C103.837 10.8748 103.834 10.8541 103.833 10.7687V3.47679H101.858V16.4003H103.832V12.3309L103.835 12.2411ZM124.006 7.25688C123.886 7.26139 122.78 7.27836 122.017 7.5476C121.828 7.59646 120.249 8.2061 119.586 10.0021C119.458 10.2954 119.067 11.7038 119.394 13.1695C119.918 15.2189 120.689 15.7891 122.093 16.3045C125.012 17.0726 127.947 15.4938 128.319 13.0677C128.319 13.0677 128.85 9.78441 127.271 8.17998C127.271 8.17998 126.44 7.25688 124.006 7.25688ZM123.877 8.82531C125.972 8.82531 126.241 10.3826 126.241 10.3826C126.521 11.4448 126.368 12.6658 126.368 12.6658C126.233 14.2664 124.996 14.9344 124.663 14.9667C123.871 15.181 122.928 14.8974 122.93 14.9009C121.618 14.544 121.477 12.7668 121.477 12.7668C121.354 11.8647 121.449 10.9821 121.612 10.4308C121.773 9.88527 122.048 9.60152 121.988 9.66971C122.706 8.80242 123.877 8.82531 123.877 8.82531ZM96.3685 7.26799C96.3685 7.26799 93.7645 7.30635 92.6558 9.26603C92.6558 9.26603 90.5871 12.6338 93.6335 15.4731C94.089 15.8369 94.8193 16.4861 97.1462 16.4527C97.6429 16.4276 98.5708 16.5611 100.387 15.0574L99.7933 14.2121L99.7304 14.1324C99.6835 14.0554 99.4218 13.9965 99.2035 14.125L98.6619 14.4926C98.3593 14.7134 97.9841 14.8108 97.0972 14.8861C95.8242 14.9475 94.9132 14.5986 94.3297 13.4075C94.3297 13.4075 94.1307 13.0759 94.1307 12.0159C94.1319 11.9699 94.1219 11.9076 94.2279 11.9076H100.198H100.321C100.377 11.9076 100.42 11.9092 100.434 11.8862C100.451 11.8589 100.453 11.7583 100.453 11.6696C100.453 11.2678 100.457 10.8075 100.432 10.4641C100.405 10.0549 100.293 9.58833 100.04 9.07529C100.04 9.07529 99.2692 7.26799 96.3685 7.26799ZM96.7472 8.60959C98.6976 8.74822 98.6862 10.8204 98.6443 10.8067H94.1557C94.1557 8.37733 96.7472 8.60959 96.7472 8.60959ZM82.6007 3.77651V16.324H84.6978V11.8224V11.7613L84.7451 11.7585H87.2616C87.2709 11.7527 87.6128 11.7936 88.6523 11.5835C89.6671 11.3835 90.989 10.3061 91.3401 9.68728C91.5728 9.27712 92.0611 7.78406 91.7651 6.78003C91.587 6.09325 91.4097 5.68802 91.0808 5.28011C91.0808 5.28011 90.0151 3.77649 87.2986 3.77649L82.6007 3.77651ZM84.7182 5.45142H87.394C89.6369 5.45142 89.655 7.51613 89.655 7.51613C89.655 9.22235 88.5217 9.78082 88.5217 9.78082C87.9271 10.1309 87.7101 10.1651 87.6032 10.1697C87.5438 10.1722 87.4839 10.1709 87.4245 10.1697H84.7182V5.45142ZM71.0361 12.1833C71.0361 12.087 71.1194 12.1056 71.2377 12.1056H71.5155C71.5409 12.1054 71.567 12.103 71.6389 12.1084C71.6389 12.1084 71.8981 12.1452 72.1165 12.3663L75.326 16.3418L77.454 16.3437L74.187 12.1468L73.5566 11.4087C73.5309 11.3703 73.5405 11.3224 73.6532 11.2084L76.8225 7.7897L77.1162 7.49233C77.1469 7.45415 77.2233 7.39989 77.0522 7.39989H75.5458H75.2969C75.0481 7.39989 75.057 7.38164 74.9084 7.53213L72.0018 10.6986C72.0018 10.6986 71.8338 10.9273 71.6208 10.9273H71.2572C71.2373 10.9267 71.2045 10.9271 71.1516 10.9271C71.1198 10.9219 71.0563 10.927 71.0429 10.8485C71.0381 10.8173 71.0348 10.7966 71.0343 10.7112V3.41931H69.0592V16.3428H71.0334V12.2735L71.0361 12.1833ZM61.1624 10.0087C61.1624 10.004 61.1624 9.99844 61.1626 9.99221C61.1613 9.97195 61.1775 9.91177 61.199 9.8707C61.199 9.8707 61.736 8.82704 63.4383 8.82704C63.4383 8.82704 65.2383 8.78091 65.2383 10.1705V16.2682H67.1188V10.3899C67.1188 10.2188 67.1279 10.0661 67.1188 9.87647C67.1188 9.87647 67.0647 8.01178 65.1463 7.49635C64.7149 7.35176 63.9788 7.32932 63.4702 7.37775C63.4702 7.37775 62.3175 7.42383 61.1825 8.5618L61.1394 8.61658C61.0963 8.67136 60.9645 8.69442 60.9645 8.49982V8.1291V7.94169C60.9583 7.81867 60.9165 7.53586 60.5993 7.53586H59.2249V16.2682H61.161V10.0332L61.1624 10.0087ZM114.421 7.26984C114.2 7.27842 113.961 7.29938 113.702 7.3365C113.702 7.3365 112.51 7.46604 110.932 8.69939C110.932 8.69939 110.703 8.81119 110.948 9.05493L111.617 9.71971C111.68 9.77673 111.85 9.88328 112.233 9.65768C112.464 9.51566 113.332 9.01323 113.989 8.83272C113.989 8.83272 115.457 8.41684 116.039 9.82896C116.039 9.82896 116.168 10.0197 116.168 11.0567C116.175 11.2788 116.169 11.2826 115.993 11.2826C115.993 11.2826 111.856 11.0673 110.739 12.9927C110.739 12.9927 109.673 14.3332 111.16 15.8138C111.16 15.8138 112.17 16.833 114.245 16.2795C114.245 16.2795 115.309 16.0968 116.076 15.3333C116.08 15.3266 116.106 15.3006 116.112 15.2935C116.176 15.2187 116.34 15.1322 116.383 15.3C116.391 15.3304 116.395 15.3455 116.398 15.3879C116.401 15.4313 116.405 15.436 116.407 15.5583C116.408 15.7793 116.375 16.1999 116.977 16.1999H117.889C117.945 16.2005 118.045 16.1919 118.045 16.0823V10.3539C118.049 10.1564 117.934 9.39127 117.869 9.2364C117.872 9.24277 117.531 8.39193 116.648 7.78555C116.606 7.76602 115.968 7.2098 114.421 7.26984ZM115.954 12.4816C116.003 12.4829 116.142 12.4817 116.142 12.6084V14.0704C116.142 14.1188 115.871 14.5838 115.184 14.812C114.772 14.9631 113.426 15.3999 112.816 14.9092C112.816 14.9092 111.995 14.3197 112.481 13.4815C112.481 13.4815 112.674 13.0421 113.831 12.7334C113.831 12.7334 114.667 12.4816 115.954 12.4816ZM53.8088 7.26892C53.5878 7.2775 53.3483 7.29939 53.0893 7.3365C53.0893 7.3365 51.897 7.46605 50.3191 8.69939C50.3191 8.69939 50.0909 8.81119 50.3358 9.05493L51.0043 9.71971C51.0671 9.77673 51.2367 9.88328 51.62 9.65768C51.8505 9.51566 52.7197 9.01323 53.3764 8.83272C53.3764 8.83272 54.8448 8.41684 55.4263 9.82897C55.4263 9.82897 55.5559 10.0197 55.5559 11.0567C55.5621 11.2788 55.5558 11.2817 55.38 11.2817C55.38 11.2817 51.2432 11.0673 50.1266 12.9927C50.1266 12.9927 49.0596 14.3332 50.5469 15.8138C50.5469 15.8138 51.558 16.8321 53.6328 16.2786C53.6328 16.2786 54.6964 16.0958 55.4633 15.3324C55.4676 15.3257 55.4933 15.2997 55.4994 15.2926C55.5632 15.2178 55.7273 15.1322 55.7707 15.3C55.7786 15.3304 55.7812 15.3455 55.7846 15.3879C55.7879 15.4313 55.7927 15.4351 55.7948 15.5574C55.796 15.7784 55.763 16.1999 56.3642 16.1999H57.2762C57.3323 16.2006 57.4326 16.1919 57.4326 16.0823V10.3539C57.4364 10.1564 57.321 9.39128 57.2558 9.23641C57.2586 9.2428 56.9186 8.39195 56.0355 7.78556C55.9939 7.76604 55.3557 7.20887 53.8088 7.26892ZM55.3401 12.4807C55.3894 12.4819 55.529 12.4817 55.529 12.6084V14.0695C55.529 14.1178 55.2584 14.5838 54.5717 14.812C54.1591 14.9631 52.8123 15.3999 52.2024 14.9092C52.2024 14.9092 51.382 14.3197 51.8681 13.4815C51.8681 13.4815 52.0618 13.0412 53.219 12.7325C53.219 12.7325 54.0536 12.4807 55.3401 12.4807ZM39.2373 3.79873V16.2675H43.8676C43.8676 16.2675 45.362 16.3517 46.6545 15.824C46.6545 15.824 47.9041 15.3147 48.5618 14.1621C48.5618 14.1621 49.1169 13.083 48.7711 11.777C48.6613 11.5497 48.6136 11.1313 47.6443 10.4308C47.6219 10.4184 47.0939 10.0087 46.2703 10.0438C46.2436 10.0427 46.0957 10.0503 46.0712 9.95951C46.0699 9.95951 46.0284 9.83775 46.2499 9.77249C46.7209 9.64583 47.273 9.35852 47.8942 8.72995C47.8942 8.72995 48.5081 8.20335 48.5081 7.01893C48.5081 7.01893 48.5025 6.14951 47.9905 5.25236C47.9905 5.25236 47.5766 4.43927 46.0268 4.01909C45.924 3.99074 45.0947 3.79873 39.3558 3.79873H39.2373ZM41.3752 5.4505H44.2713C45.5689 5.4505 45.9869 6.25045 45.9869 6.25045C46.329 6.84998 46.3397 7.3828 46.3397 7.3828C46.3397 8.26393 45.7481 8.69569 45.7481 8.69569C45.2358 9.12157 44.4752 9.32771 44.1963 9.3327C43.8764 9.35047 42.3617 9.3327 41.4446 9.3327C41.3936 9.33266 41.3648 9.33621 41.365 9.32067L41.366 9.28641V5.46532C41.3662 5.45763 41.3625 5.45148 41.3752 5.4505ZM41.352 10.8243H44.4379C45.82 10.8243 46.2647 11.6363 46.2647 11.6363C46.6291 12.2446 46.6406 12.7853 46.6406 12.7853C46.6406 13.6794 46.0101 14.1176 46.0101 14.1176C45.4645 14.5498 44.6545 14.7579 44.3574 14.763C44.0167 14.781 42.4038 14.763 41.427 14.763C41.3727 14.7629 41.3416 14.7667 41.3418 14.7509V14.7167V10.84C41.342 10.8322 41.3385 10.8253 41.352 10.8243Z" fill="black" stroke="black" stroke-width="0.452141" stroke-linejoin="round"/>
</g>
<defs>
<clipPath id="clip0_667_2167">
<rect width="128" height="18.8539" fill="white" transform="translate(0.452393 0.572998)"/>
</clipPath>
</defs>
</svg>
