<svg width="129" height="24" viewBox="0 0 129 24" fill="none" xmlns="http://www.w3.org/2000/svg">
<g clip-path="url(#clip0_667_2185)">
<path d="M6.4708 23.7191C5.36909 23.4798 5.02974 23.3656 4.21919 22.9616C2.32385 22.017 1.13059 20.4301 0.677831 18.252C0.376802 16.8039 0.511714 15.3902 1.1388 13.4217L1.39211 12.6265H5.92682C8.42092 12.6265 10.4434 12.659 10.4211 12.6988C10.3989 12.7385 10.0927 13.2586 9.74053 13.8544C8.80935 15.4301 7.26221 18.5788 7.26221 18.8983C7.26221 18.9572 7.83143 18.9828 8.77103 18.9663L10.2798 18.9397L10.467 18.4578C10.9638 17.1787 12.0269 15.0765 13.0381 13.3735L13.4817 12.6265H20.034H26.5862L26.3441 13.1032C25.4334 14.8963 23.2041 17.455 21.0612 19.1667C18.3507 21.3317 14.9861 22.9502 11.8026 23.6204C10.3458 23.9272 7.65766 23.9769 6.4708 23.7191ZM30.3858 20.5639C30.4197 20.3175 30.4834 20.068 30.5275 20.0097C30.5716 19.9513 30.7046 19.6217 30.8231 19.2771C30.9415 18.9325 31.0782 18.5638 31.1267 18.4578C31.1753 18.3518 31.3061 18.0048 31.4176 17.6867C31.529 17.3687 31.6597 17.0217 31.7082 16.9156C31.7566 16.8096 31.9288 16.3542 32.0907 15.9036C32.2526 15.453 32.5175 14.7156 32.6793 14.265C33.7052 11.4078 33.9638 10.8404 34.4936 10.2843C35.2693 9.47012 36.1528 9.16302 37.9339 9.08849C40.1298 8.99662 41.7701 9.29262 42.4128 9.89672C42.8058 10.2661 43.0514 10.9105 43.0858 11.6626C43.1134 12.2679 43.069 12.5401 42.8127 13.3361C42.6443 13.8588 42.4238 14.4227 42.3226 14.5891C42.2214 14.7554 42.0979 14.9832 42.0482 15.0951C41.8569 15.5261 40.5299 16.7283 39.8595 17.0779C38.7789 17.6415 38.3088 17.7428 36.4233 17.8189C34.8159 17.8837 34.6984 17.9016 34.3464 18.1341C34.0488 18.3307 33.9242 18.511 33.7316 19.0244C33.3808 19.9595 32.8263 20.5558 32.071 20.8103C31.7295 20.9254 31.2256 21.012 30.8982 21.012H30.3243L30.3858 20.5639ZM37.0645 15.8997C38.6643 15.6715 39.8087 14.5779 40.2636 12.8425C40.6082 11.5276 40.0418 10.9896 38.3114 10.9885C37.0881 10.9885 36.589 11.3252 36.2462 12.3855C36.1777 12.5976 36.0896 12.8144 36.0504 12.8674C36.0113 12.9205 35.859 13.3325 35.712 13.7831C35.565 14.2337 35.4132 14.6458 35.3747 14.6988C35.2793 14.8301 34.9875 15.7147 34.9875 15.8726C34.9875 16.0296 36.056 16.0435 37.0645 15.8997ZM57.9798 20.6988C57.9801 20.5265 58.0364 20.2771 58.1049 20.1445C58.1733 20.012 58.3305 19.6 58.4541 19.2289C58.5777 18.8578 58.7113 18.5108 58.7509 18.4578C58.7906 18.4048 58.8992 18.1229 58.9923 17.8313C59.0854 17.5397 59.2201 17.171 59.2915 17.012C59.43 16.7039 59.8347 15.6053 60.3035 14.265C60.4611 13.8144 60.6515 13.3156 60.7267 13.1566C60.8018 12.9976 60.9346 12.6506 61.0217 12.3855C61.417 11.1831 61.7143 10.6565 62.3025 10.1173C63.2156 9.28033 64.3885 9.00671 66.7218 9.08632C68.4312 9.14466 68.9849 9.25368 69.6823 9.66929C70.6912 10.2705 70.9914 11.5723 70.4918 13.1802C69.7958 15.4199 68.4091 16.9131 66.432 17.5514C65.8454 17.7408 65.8704 17.7381 64.0614 17.8149C62.0139 17.9019 61.8278 17.977 61.422 18.8791C61.2818 19.1908 61.1671 19.4775 61.1671 19.5162C61.1671 19.555 61.0303 19.7591 60.863 19.9698C60.3165 20.6583 59.5224 21.012 58.5235 21.012H57.9792L57.9798 20.6988ZM64.6746 15.8926C65.5567 15.7562 66.078 15.5106 66.7056 14.9356C67.2912 14.3991 67.7945 13.4731 67.9479 12.6498C68.0375 12.1695 68.0285 12.0343 67.8871 11.7372C67.6506 11.2399 67.2003 11.0491 66.158 11.0046C65.2438 10.9656 64.626 11.1178 64.3171 11.4585C64.1592 11.6326 63.5701 13.0691 63.2453 14.0723C63.1509 14.3638 63.0421 14.6458 63.0035 14.6988C62.9081 14.8299 62.6162 15.7145 62.6162 15.8726C62.6162 16.0349 63.6868 16.0452 64.6746 15.8926ZM46.0174 17.9277C44.4648 17.5979 43.4886 16.5095 43.4886 15.1084C43.4886 14.1785 44.0998 12.477 44.6869 11.7725C45.3001 11.0368 45.6813 10.6799 46.2672 10.2936C47.698 9.34994 48.8104 9.02104 50.589 9.01576C52.2319 9.01096 53.0625 9.23832 53.7944 9.89355C55.0489 11.0164 54.8053 13.4624 53.2423 15.438C52.4212 16.4759 51.3905 17.1565 49.8162 17.7005C49.2619 17.892 48.896 17.9416 47.7875 17.9753C47.0436 17.998 46.2471 17.9753 46.0174 17.9277ZM49.2849 15.8983C50.7249 15.0843 51.2816 14.3862 51.6571 12.924C51.781 12.4413 51.788 12.2641 51.6947 11.9726C51.5547 11.5352 51.187 11.1264 50.8182 10.9981C50.4443 10.8681 49.127 10.9141 48.9784 11.0624C48.9132 11.1275 48.7815 11.1807 48.6859 11.1807C48.5903 11.1807 48.512 11.2241 48.512 11.2771C48.512 11.3301 48.4503 11.3735 48.3749 11.3735C48.22 11.3735 47.1596 12.3086 47.1596 12.4453C47.1596 12.494 47.058 12.6957 46.9339 12.8935C46.4026 13.74 46.2359 14.8513 46.5558 15.4145C46.8386 15.9125 47.3657 16.1144 48.2705 16.0715C48.6956 16.0513 49.152 15.9734 49.2849 15.8983ZM54.5739 17.8236C54.4809 17.7696 54.4049 17.6626 54.4049 17.586C54.4049 17.4336 54.7395 16.4127 54.9406 15.9518C55.01 15.7927 55.2273 15.1855 55.4235 14.6024C55.6196 14.0192 55.8368 13.412 55.9061 13.253C55.9754 13.094 56.1722 12.5518 56.3435 12.0482C56.5147 11.5446 56.6919 11.0913 56.7374 11.0409C56.7828 10.9906 56.8199 10.8707 56.8199 10.7746C56.8199 10.6784 56.8616 10.5245 56.9125 10.4324C56.9634 10.3404 57.1439 9.85297 57.3137 9.34935C57.4835 8.84577 57.6514 8.39034 57.6868 8.33732C57.7222 8.2843 57.8106 8.04578 57.8832 7.80722C58.1043 7.08068 58.5259 6.56074 59.0871 6.32257C59.7045 6.06055 60.0903 5.97587 60.6668 5.97587C61.2007 5.97587 61.2637 5.99639 61.2637 6.16996C61.2637 6.2767 61.2223 6.43935 61.1716 6.5314C61.121 6.62346 60.9632 7.04577 60.8209 7.46988C60.6786 7.89397 60.5059 8.37105 60.4371 8.53009C60.3683 8.68913 60.1515 9.29637 59.9553 9.87951C59.7591 10.4626 59.5421 11.0699 59.4731 11.2289C59.404 11.3879 59.2296 11.865 59.0854 12.2891C58.9413 12.7132 58.7672 13.1903 58.6985 13.3494C58.5945 13.5902 58.1429 14.8509 57.6538 16.2651C57.5942 16.4373 57.5127 16.5783 57.4725 16.5783C57.4324 16.5783 57.3996 16.6389 57.3996 16.7129C57.3996 16.8874 56.8204 17.3933 56.4133 17.5744C55.7082 17.888 54.8782 18.0004 54.5739 17.8236ZM70.6861 17.7976C70.4885 17.6535 70.5169 17.2997 70.7712 16.7394C70.8474 16.5713 71.0703 15.9567 71.2665 15.3735C71.4627 14.7904 71.6797 14.1832 71.7487 14.0241C71.8178 13.8651 71.9922 13.388 72.1364 12.9639C72.2805 12.5398 72.4548 12.0627 72.5236 11.9037C72.5924 11.7446 72.8092 11.1374 73.0053 10.5543C73.2015 9.97112 73.4185 9.36388 73.4875 9.20484C73.5565 9.04583 73.7486 8.52533 73.9145 8.04824C74.0803 7.57112 74.2578 7.1663 74.3089 7.14863C74.36 7.13096 74.4018 7.05726 74.4018 6.98486C74.4018 6.83946 74.9829 6.36148 75.1596 6.36148C75.221 6.36148 75.2713 6.32303 75.2713 6.27603C75.2713 6.15795 75.7634 6.06132 76.6393 6.00738L77.3794 5.96181L77.3034 6.28212C77.2206 6.63099 76.8651 7.68299 76.674 8.14462C76.3963 8.81518 76.3339 8.97527 76.3339 9.01662C76.3339 9.04062 77.0696 9.06027 77.9688 9.06027C80.09 9.06027 80.9459 9.23692 81.499 9.78873C81.8086 10.0976 81.9707 10.7146 81.8884 11.2703C81.8245 11.7011 81.3651 13.16 81.1123 13.735C81.0424 13.894 80.8239 14.5012 80.6268 15.0844C79.9236 17.1649 79.6901 17.4466 78.382 17.7924C77.2183 18.1001 76.8441 17.8519 77.2059 17.0121C77.2516 16.9061 77.4714 16.2771 77.6945 15.6145C77.9175 14.9519 78.1292 14.3663 78.1648 14.3133C78.2005 14.2603 78.4205 13.648 78.6538 12.9527C79.0619 11.7363 79.0718 11.6791 78.917 11.4433C78.7226 11.1474 78.0888 10.988 77.1065 10.988C76.3787 10.988 76.0138 11.1049 75.6863 11.4431C75.4148 11.7235 75.2721 12.042 74.8323 13.3494C74.6361 13.9326 74.4191 14.5398 74.3501 14.6988C74.281 14.8579 74.1284 15.2699 74.0108 15.6145C73.5241 17.041 73.0305 17.5283 71.7749 17.8218C71.177 17.9615 70.9024 17.9553 70.6861 17.7976ZM82.9652 17.789C82.6676 17.7092 82.3699 17.5372 82.1506 17.3185C81.8478 17.0163 81.7999 16.9028 81.7635 16.4C81.7172 15.762 81.8996 15.067 82.2936 14.3795C83.1355 12.9105 84.3311 12.5321 88.1343 12.5309H90.226L90.332 12.2273C90.4892 11.7775 90.462 11.5221 90.2349 11.3169C90.0478 11.1478 89.8058 11.1291 87.1678 11.0802C85.5925 11.0511 84.2929 11.0184 84.2796 11.0079C84.2663 10.9973 84.2561 10.8911 84.257 10.7718C84.2596 10.415 84.6641 9.81127 85.11 9.49873L85.5282 9.20554H88.6835C91.7523 9.20554 91.8497 9.21132 92.2372 9.4182C93.0232 9.83769 93.321 10.4329 93.2106 11.3634C93.141 11.9491 91.5669 16.3247 91.2581 16.7906C90.9575 17.2441 90.3636 17.591 89.5673 17.7783C88.735 17.974 83.6852 17.9827 82.9652 17.7898V17.789ZM88.6814 15.8555C88.8965 15.726 89.0948 15.4683 89.2852 15.0706C89.4411 14.745 89.5686 14.4305 89.5686 14.3718C89.5686 14.2236 86.0428 14.2262 85.5981 14.375C85.0346 14.5633 84.5452 15.1395 84.5452 15.6145C84.5452 16.0036 85.0122 16.0999 86.7671 16.0729C88.1631 16.0515 88.4009 16.0243 88.6814 15.8555ZM93.2154 17.8236C93.1224 17.7696 93.0464 17.6618 93.0464 17.584C93.0464 17.4291 93.571 15.836 93.7744 15.3735C93.8443 15.2145 94.062 14.6073 94.2582 14.0242C94.4544 13.441 94.672 12.8338 94.7418 12.6748C94.8117 12.5157 94.9369 12.1783 95.0201 11.9249C95.2184 11.3208 95.5872 10.6156 95.866 10.3073C96.1511 9.99204 96.952 9.44588 97.1292 9.44588C97.2037 9.44588 97.2967 9.41387 97.3357 9.37505C97.5416 9.16961 98.6801 9.07225 100.944 9.06652L103.383 9.06043V9.28964C103.383 9.84305 102.975 10.4553 102.388 10.7846C102.061 10.9679 101.873 10.9881 100.494 10.9881C98.8831 10.9881 98.4839 11.0667 98.1341 11.4524C97.964 11.6399 97.7433 12.1947 96.9958 14.3135C96.79 14.8966 96.5824 15.4604 96.5344 15.5665C96.4863 15.6725 96.3909 15.911 96.3224 16.0966C95.9539 17.0944 95.3957 17.5673 94.2836 17.8235C93.7265 17.9518 93.4359 17.9518 93.2154 17.8236ZM101.234 17.8236C101.046 17.7149 101.014 17.4363 101.159 17.1795C101.211 17.0874 101.366 16.6651 101.504 16.241C101.642 15.8169 101.814 15.3398 101.886 15.1808C101.957 15.0218 102.177 14.4145 102.373 13.8314C102.569 13.2483 102.787 12.641 102.857 12.482C102.926 12.323 103.052 11.9834 103.136 11.7275C103.22 11.4716 103.359 11.1274 103.444 10.9628C103.642 10.582 104.597 9.63863 104.786 9.63863C104.864 9.63863 104.929 9.59525 104.929 9.54226C104.929 9.48924 104.994 9.44588 105.075 9.44588C105.155 9.44588 105.297 9.40761 105.389 9.36086C105.899 9.10239 106.652 9.06031 110.767 9.06031C113.577 9.06031 115.235 9.09773 115.572 9.16881C117.349 9.54359 117.728 10.4151 117.034 12.5302C116.903 12.9278 116.738 13.3832 116.666 13.5423C116.594 13.7013 116.351 14.3735 116.125 15.0362C115.609 16.5553 115.183 17.3495 114.886 17.3495C114.829 17.3495 114.782 17.3823 114.782 17.4223C114.782 17.5724 113.572 17.9278 113.061 17.9278C112.565 17.9278 112.423 17.5345 112.7 16.9303C112.776 16.7632 112.953 16.2796 113.093 15.8555C113.233 15.4314 113.406 14.9543 113.478 14.7952C113.701 14.3006 114.492 11.9279 114.492 11.7534C114.492 11.2166 113.391 10.8389 112.528 11.0798C111.789 11.2865 111.545 11.6142 111.057 13.0603C110.913 13.4844 110.74 13.9615 110.671 14.1206C110.602 14.2796 110.407 14.8218 110.239 15.3254C110.07 15.829 109.893 16.2823 109.846 16.3326C109.798 16.383 109.759 16.4837 109.759 16.5564C109.759 16.6291 109.704 16.7452 109.638 16.8144C109.572 16.8837 109.453 17.0323 109.375 17.1449C109.297 17.2574 109.178 17.3495 109.11 17.3495C109.042 17.3495 108.986 17.3823 108.986 17.4223C108.986 17.6013 107.591 17.9768 107.16 17.9136C106.701 17.8462 106.699 17.6467 107.142 16.3222C107.37 15.6414 107.614 14.9543 107.686 14.7952C107.757 14.6362 107.93 14.1591 108.07 13.735C108.21 13.3109 108.383 12.8338 108.454 12.6748C108.639 12.2616 108.986 11.2369 108.986 11.1021C108.986 10.9437 107.058 10.9476 106.696 11.1069C106.354 11.2573 105.922 11.7343 105.843 12.0481C105.81 12.1808 105.725 12.4195 105.653 12.5785C105.582 12.7376 105.383 13.2797 105.211 13.7833C105.039 14.287 104.87 14.7424 104.834 14.7954C104.798 14.8484 104.647 15.2716 104.499 15.7358C104.191 16.6987 103.812 17.2058 103.169 17.5149C102.366 17.9005 101.581 18.0257 101.234 17.8236ZM118.164 17.7425C116.914 17.3031 116.694 16.2651 117.495 14.5863C117.873 13.7964 118.552 13.187 119.349 12.9244C120.284 12.6163 121.133 12.5342 123.406 12.5321L125.51 12.5289L125.604 12.2817C125.656 12.1457 125.698 11.8866 125.698 11.7058C125.698 11.1177 125.517 11.0831 122.431 11.0831C119.347 11.0831 119.355 11.0863 119.661 10.4088C119.9 9.87959 120.445 9.36564 120.895 9.24474C121.134 9.18036 122.361 9.15413 124.235 9.1733L127.196 9.20369L127.646 9.46793C127.894 9.61324 128.193 9.88715 128.31 10.0766C128.499 10.381 128.518 10.513 128.473 11.21C128.43 11.8936 128.313 12.298 127.598 14.2405C126.571 17.0318 126.419 17.2637 125.352 17.6608C124.814 17.8612 124.603 17.8752 121.738 17.9006C118.936 17.9256 118.653 17.9128 118.164 17.7413V17.7425ZM124.031 15.7875C124.335 15.5864 124.472 15.4036 124.627 14.9887C124.738 14.6928 124.829 14.4057 124.829 14.3508C124.829 14.2841 124.178 14.2613 122.873 14.2821C121.211 14.3087 120.869 14.3394 120.598 14.4867C120.204 14.7016 119.903 15.1776 119.903 15.5877C119.903 15.8545 119.946 15.9115 120.216 15.9927C120.389 16.0447 121.229 16.0784 122.083 16.0677C123.594 16.0488 123.647 16.0412 124.031 15.7875ZM2.72911 10.1446C3.46663 8.91183 5.14906 6.89944 6.26025 5.92091C6.61722 5.60657 6.95609 5.30581 7.0133 5.25255C8.41132 3.95118 11.4636 2.12168 13.6527 1.27298C16.0082 0.359772 17.4923 0.064477 19.7724 0.055309C21.562 0.048109 22.089 0.114999 23.2984 0.502868C27.1806 1.74785 28.9146 5.37009 27.7295 9.75902L27.5278 10.506H27.1417C26.8135 10.506 26.7653 10.4807 26.8205 10.3373C27.0231 9.81118 27.18 8.68114 27.1852 7.71084C27.1971 5.46072 26.3702 3.73486 24.7757 2.6822C22.7222 1.32653 20.1394 1.19258 16.8561 2.27144C16.0099 2.5495 14.0701 3.53069 13.1467 4.14771C10.8065 5.71152 8.65447 7.87895 7.40588 9.9297L7.05502 10.506H4.78394H2.51287L2.72911 10.1446ZM11.9511 10.2409C12.1673 9.90548 12.6527 9.27695 12.9367 8.96482C13.0568 8.83282 13.155 8.69384 13.155 8.65595C13.155 8.61806 13.2529 8.48702 13.3724 8.36478C13.4919 8.24254 13.8288 7.86108 14.1209 7.51705C14.413 7.17302 15.0889 6.4459 15.6229 5.90123L16.5938 4.91091L18.2508 4.93738L19.9079 4.96384L18.8696 6.02408C17.879 7.03563 16.6222 8.47244 16.0031 9.30121C15.8446 9.51327 15.6622 9.74255 15.5977 9.81074C15.5331 9.87893 15.4042 10.0633 15.3112 10.2204L15.1421 10.506H13.4612H11.7804L11.9511 10.2409Z" fill="#ACC3E4"/>
<path d="M7.31056 23.8376C4.72489 23.506 2.82438 22.4331 1.64449 20.6391C1.09351 19.8013 0.758151 18.8126 0.594144 17.5422C0.493151 16.7599 0.498885 16.4838 0.633506 15.6472C0.720173 15.1085 0.904423 14.2844 1.04295 13.8158C1.18148 13.3473 1.31668 12.888 1.34339 12.7952C1.38876 12.6377 1.69025 12.6265 5.91503 12.6265H10.4381L9.81171 13.6627C9.14559 14.7645 7.9458 17.1294 7.46333 18.2916L7.17224 18.9927L8.72256 18.9662L10.2729 18.9396L10.9198 17.4939C11.7988 15.5291 13.3227 12.7632 13.5802 12.6651C13.6386 12.6427 16.5881 12.636 20.1346 12.6498L26.5827 12.6747L26.1164 13.4569C22.9604 18.7509 16.4193 23.0991 10.5493 23.8052C9.77068 23.8988 7.93159 23.9173 7.31056 23.8376ZM30.3878 20.8735C30.3234 20.7061 33.2556 12.6775 33.8749 11.3253C34.4143 10.1478 35.4936 9.35868 36.8293 9.16515C37.6829 9.04147 40.4091 9.13219 41.114 9.30774C42.3499 9.61555 42.9426 10.3007 43.0644 11.5626C43.1748 12.7058 42.395 14.6984 41.4143 15.7792C40.7271 16.5366 39.6109 17.285 38.775 17.5487C38.2659 17.7093 37.7961 17.7628 36.5815 17.7981C34.3784 17.8623 34.0286 18.0288 33.5876 19.2233C33.3705 19.8113 32.79 20.4545 32.2339 20.7231C31.9962 20.838 31.5196 20.9503 31.1331 20.9826C30.5448 21.0319 30.443 21.017 30.3878 20.8735ZM37.2133 15.9029C37.9082 15.7714 38.6502 15.4194 39.1145 15.0008C39.7579 14.4209 40.3931 13.0196 40.3962 12.1733C40.3994 11.3497 39.9662 11.0679 38.605 11.0075C37.4909 10.958 37.0771 11.0544 36.6953 11.452C36.5255 11.6288 36.1783 12.4154 35.6651 13.7857C35.2393 14.9226 34.8909 15.8858 34.8909 15.9264C34.8909 16.0338 36.6132 16.0164 37.2133 15.9029ZM58.0165 20.8735C57.9568 20.7184 61.1324 12.0276 61.5758 11.1325C61.8242 10.6311 62.5643 9.86746 63.0395 9.62237C63.8201 9.21975 64.232 9.15914 66.2389 9.15165C68.2972 9.14397 68.98 9.24391 69.637 9.64909C70.9179 10.4389 71.0325 12.243 69.9424 14.4579C69.6233 15.1062 69.3761 15.438 68.7575 16.0482C67.3894 17.3978 66.2117 17.819 63.7755 17.8301C62.8147 17.8346 62.4874 17.8721 62.1739 18.0141C61.7887 18.1887 61.3613 18.6181 61.3594 18.8323C61.3588 18.8914 61.2541 19.1634 61.1266 19.4367C60.6812 20.3911 59.8833 20.909 58.7314 20.9912C58.1795 21.0306 58.07 21.0126 58.0165 20.8735ZM64.7725 15.9071C65.4962 15.7888 66.2574 15.4387 66.7432 15.0008C67.3866 14.4209 68.0217 13.0196 68.0249 12.1733C68.0278 11.3667 67.5796 11.0603 66.3146 11.0045C64.4128 10.9206 64.3362 10.9911 63.3024 13.7681C62.8719 14.9247 62.5196 15.9 62.5196 15.9355C62.5196 16.0324 64.1298 16.0121 64.7725 15.9071ZM46.1198 17.9285C45.0082 17.6922 44.0637 17.0226 43.735 16.2375C43.1061 14.7359 43.977 12.3114 45.694 10.7836C48.0542 8.68351 52.426 8.34672 53.9697 10.1461C55.4989 11.9286 54.0322 15.5263 51.1204 17.1353C50.1336 17.6806 49.0879 17.9422 47.7392 17.9812C47.0751 18.0004 46.3463 17.9767 46.1198 17.9285ZM49.3815 15.8766C50.4244 15.4899 51.4559 14.171 51.7109 12.8983C51.8461 12.2232 51.7662 11.7559 51.4515 11.3828C51.1288 11.0002 50.6656 10.8642 49.8286 10.9064C48.1789 10.9895 46.8496 12.2227 46.4003 14.0866C46.2566 14.683 46.3875 15.3698 46.7052 15.6868C47.2216 16.2021 48.2979 16.2783 49.3815 15.8766ZM83.2633 17.8277C82.7067 17.7343 82.2689 17.4917 81.9954 17.1251C81.6704 16.6897 81.7157 15.6551 82.0953 14.8405C82.5877 13.7839 83.2197 13.2003 84.2072 12.8905C85.0157 12.6368 85.373 12.6028 87.8747 12.5413L90.2863 12.482L90.3722 12.1187C90.4872 11.6326 90.3982 11.3339 90.0978 11.1973C89.927 11.1196 89.0098 11.0843 87.1609 11.0843C84.2401 11.0843 84.1817 11.0738 84.3105 10.5618C84.4135 10.1523 85.1594 9.39851 85.5884 9.27028C86.0679 9.12692 91.0711 9.11862 91.694 9.26003C92.7231 9.49385 93.3126 10.255 93.2126 11.2212C93.1633 11.6975 91.7491 15.8064 91.402 16.4819C91.0237 17.2179 90.236 17.6912 89.1563 17.8311C88.3188 17.9397 83.9154 17.9372 83.2633 17.8277ZM88.6037 15.8796C89.0383 15.6596 89.3767 15.1632 89.5286 14.523L89.5932 14.2508L87.5764 14.2822C85.7666 14.3101 85.526 14.3332 85.2324 14.5062C84.863 14.7239 84.5453 15.243 84.5453 15.6292C84.5453 16.0116 84.856 16.0802 86.6259 16.0889C88.0498 16.096 88.21 16.0789 88.6037 15.8796ZM118.526 17.828C117.55 17.6641 116.919 16.9124 117.037 16.0545C117.183 14.9901 117.831 13.8528 118.589 13.332C119.477 12.721 120.662 12.539 123.786 12.5334L125.593 12.5302L125.665 12.1688C125.763 11.6717 125.721 11.4506 125.489 11.2531C125.31 11.1011 125.021 11.0844 122.555 11.0844C119.521 11.0844 119.431 11.0671 119.621 10.5229C119.771 10.093 120.29 9.53245 120.717 9.33917C121.068 9.17978 121.391 9.16074 123.777 9.15882C126.694 9.15562 127.302 9.22346 127.799 9.60208C128.387 10.0489 128.518 10.3588 128.469 11.1808C128.433 11.7857 128.291 12.272 127.601 14.1603C127.147 15.4014 126.651 16.5936 126.499 16.8096C126.135 17.3261 125.354 17.7237 124.482 17.8357C123.667 17.9405 119.161 17.9348 118.526 17.828ZM123.675 16.0001C124.132 15.8735 124.481 15.4892 124.725 14.8434C124.835 14.5518 124.926 14.2994 124.926 14.2823C124.926 14.2654 123.994 14.2654 122.855 14.2823C120.942 14.3108 120.765 14.3284 120.519 14.512C120.113 14.8143 119.887 15.1666 119.87 15.5228C119.845 16.0246 120.082 16.0934 121.834 16.0945C122.658 16.0945 123.486 16.0525 123.675 16.0001ZM54.4683 17.6912C54.4386 17.6142 54.755 16.6057 55.1714 15.4502C56.4334 11.9478 57.299 9.54976 57.7042 8.43376C58.293 6.81221 58.6481 6.41399 59.7625 6.12515C60.3429 5.97473 61.2638 5.92199 61.2638 6.03917C61.2638 6.25709 57.5319 16.4043 57.3463 16.691C56.8785 17.4137 56.0482 17.8314 55.0793 17.8314C54.681 17.8314 54.5068 17.7914 54.4683 17.6912ZM70.5793 17.7041C70.5523 17.634 70.9051 16.5388 71.3632 15.2703C71.8213 14.0018 72.5631 11.9447 73.0116 10.6989C73.4602 9.45308 73.9189 8.18278 74.0311 7.87597C74.4807 6.64586 75.2119 6.10573 76.5661 6.00354C77.2021 5.95555 77.3 5.96908 77.3 6.10493C77.3 6.19115 77.0826 6.85734 76.817 7.58538C76.5513 8.31338 76.3339 8.94306 76.3339 8.9847C76.3339 9.0263 76.9752 9.06068 77.7589 9.06106C79.4478 9.06106 80.2667 9.17498 80.9226 9.49786C81.6512 9.85648 81.7934 10.1101 81.7853 11.0362C81.779 11.7578 81.7242 11.9555 80.9325 14.1158C80.4672 15.3854 80.0268 16.5393 79.954 16.6798C79.5978 17.3671 78.5932 17.8654 77.6706 17.8126C77.2694 17.7896 77.1497 17.7458 77.1243 17.6122C77.1064 17.5181 77.5298 16.2254 78.0653 14.7396C78.6007 13.2538 79.0389 11.8896 79.0389 11.7081C79.0389 11.1852 78.7457 11.0559 77.4487 11.0064C76.2592 10.9609 75.7875 11.0863 75.4998 11.5244C75.4209 11.6446 74.9585 12.8417 74.4722 14.1847C73.636 16.4944 73.5637 16.651 73.1374 17.0772C72.8158 17.3987 72.54 17.5712 72.1743 17.6796C71.5365 17.8686 70.6478 17.8823 70.5793 17.7041ZM93.0882 17.7041C93.0269 17.5447 95.2025 11.4615 95.5076 10.9393C96.0877 9.94621 97.0961 9.32573 98.411 9.1528C98.8343 9.09715 100.115 9.06427 101.258 9.07976L103.335 9.1079L103.304 9.38884C103.254 9.86045 102.935 10.3598 102.496 10.6568C102.082 10.9374 102.067 10.9396 100.34 10.9886C98.4295 11.0428 98.2139 11.1045 97.9145 11.6822C97.789 11.9243 96.944 14.2167 96.3066 16.0439C96.0366 16.8182 95.3897 17.4696 94.683 17.6789C94.0464 17.8675 93.1565 17.8817 93.0882 17.7041ZM101.131 17.6976C101.102 17.6244 101.32 16.8979 101.613 16.0832C103.544 10.7274 103.564 10.6819 104.298 10.0391C105.349 9.11814 105.946 9.03548 111.176 9.0871C114.051 9.11558 115.556 9.16642 115.865 9.24585C116.87 9.50418 117.351 10.0927 117.327 11.0356C117.315 11.4951 117.144 12.0792 116.495 13.879C116.045 15.1247 115.611 16.2958 115.529 16.4814C115.182 17.2715 114.445 17.7237 113.371 17.8047C112.776 17.8496 112.652 17.8332 112.602 17.7036C112.569 17.618 112.978 16.336 113.517 14.8344C114.113 13.1751 114.492 11.9757 114.492 11.7487C114.492 11.1908 114.195 11.0356 113.128 11.0356C111.767 11.0356 111.711 11.1075 110.533 14.3609C110.101 15.5537 109.648 16.682 109.526 16.8682C109.188 17.3829 108.45 17.7387 107.585 17.804C106.996 17.8484 106.855 17.8318 106.809 17.7121C106.751 17.5606 106.869 17.2041 108.254 13.3657C108.71 12.1028 109.083 11.0509 109.083 11.0284C109.083 11.006 108.581 10.9874 107.967 10.9874C106.804 10.9874 106.424 11.0867 106.078 11.4816C105.993 11.5786 105.562 12.6674 105.121 13.901C104.679 15.1347 104.241 16.2988 104.147 16.4879C103.893 17.0006 103.274 17.5093 102.695 17.6807C102.051 17.8715 101.201 17.8806 101.131 17.6976Z" fill="#173F85"/>
</g>
<defs>
<clipPath id="clip0_667_2185">
<rect width="128" height="24" fill="white" transform="translate(0.5)"/>
</clipPath>
</defs>
</svg>
