<svg width="585" height="280" viewBox="0 0 585 280" fill="none" xmlns="http://www.w3.org/2000/svg">
<path d="M424.731 234.822L442.979 110.172H499.778L516.74 234.822" stroke="#E4E1DC" stroke-width="3.5" stroke-miterlimit="10"/>
<path d="M3.96451 277.486H45.6424L580.736 278L582.535 237.65V219.916H567.886V190.874H539.615V235.593H484.1V213.234H464.825V235.593H359.451V179.051H189.054V239.192H170.292V113.514L152.815 77.7897L131.741 115.313V239.449H118.376V115.57L102.699 78.0467L80.8527 116.598V238.935H64.9181V130.734L45.6424 130.991C45.6424 130.991 40.2453 123.023 30.7359 123.023C21.2266 123.023 19.1705 133.047 19.1705 133.047H2.46484V141.271L3.96451 277.486Z" stroke="#E4E1DC" stroke-width="3.5" stroke-miterlimit="10"/>
<path d="M287.232 132.79L276.437 160.29" stroke="#E4E1DC" stroke-width="3.5" stroke-miterlimit="10"/>
<path d="M295.713 132.79H276.437" stroke="#E4E1DC" stroke-width="3.5" stroke-miterlimit="10"/>
<path d="M263.072 126.879H256.39L253.82 137.673L276.437 160.29H304.451L285.432 141.271L253.82 137.673L246.11 159.519" stroke="#E4E1DC" stroke-width="3.5" stroke-miterlimit="10"/>
<path d="M304.451 177.509C313.252 177.509 320.386 170.374 320.386 161.574C320.386 152.774 313.252 145.639 304.451 145.639C295.651 145.639 288.517 152.774 288.517 161.574C288.517 170.374 295.651 177.509 304.451 177.509Z" stroke="#E4E1DC" stroke-width="3.5" stroke-miterlimit="10"/>
<path d="M246.11 177.509C254.911 177.509 262.045 170.374 262.045 161.574C262.045 152.774 254.911 145.639 246.11 145.639C237.31 145.639 230.176 152.774 230.176 161.574C230.176 170.374 237.31 177.509 246.11 177.509Z" stroke="#E4E1DC" stroke-width="3.5" stroke-miterlimit="10"/>
<path d="M276.437 168.514C280.269 168.514 283.376 165.407 283.376 161.575C283.376 157.742 280.269 154.635 276.437 154.635C272.605 154.635 269.498 157.742 269.498 161.575C269.498 165.407 272.605 168.514 276.437 168.514Z" fill="#E4E1DC"/>
<path d="M470.736 63.6539L511.087 98.0932V110.173H431.414V99.3782L470.736 63.6539Z" stroke="#E4E1DC" stroke-width="3.5" stroke-miterlimit="10"/>
<path d="M511.086 51.5745L524.194 64.682L570.455 18.4203L555.035 2.99976L386.951 170.827L371.53 155.663L409.568 117.369" stroke="#E4E1DC" stroke-width="3.5" stroke-miterlimit="10"/>
<path d="M431.157 51.5745L418.049 64.682L372.044 18.4203L387.208 2.99976L555.292 170.827L570.713 155.663L532.675 117.369" stroke="#E4E1DC" stroke-width="3.5" stroke-miterlimit="10"/>
<path d="M189.311 232.252C189.311 232.252 211.157 207.322 275.409 207.322C339.662 207.322 359.709 235.85 359.709 235.85" stroke="#E4E1DC" stroke-width="3.5" stroke-miterlimit="10"/>
<path d="M189.311 233.538C192.395 239.449 189.311 240.991 191.367 240.991C195.994 241.248 198.564 234.566 202.933 235.594C205.76 236.108 205.503 239.449 209.615 241.762C212.442 243.047 216.554 243.818 219.381 241.762C222.466 239.449 221.695 235.337 223.751 235.08C225.807 234.823 226.578 239.963 231.718 242.276C232.489 242.533 236.601 244.589 239.685 242.79C243.026 240.734 241.741 236.108 244.568 234.823C247.395 233.795 251.251 237.393 252.536 238.421C255.62 241.248 255.106 242.533 257.419 243.818C260.246 245.36 264.615 244.846 267.185 242.533C270.269 239.963 269.498 236.108 271.554 235.851C273.61 235.594 274.381 240.477 279.522 242.533C280.55 243.047 283.12 244.075 285.433 243.047C289.031 241.762 288.774 238.164 291.344 237.65C293.4 237.393 294.171 239.192 299.311 241.762C303.166 243.818 305.223 244.846 307.279 244.075C310.363 242.79 309.592 238.164 312.162 237.393C313.961 236.879 315.503 239.192 320.643 242.79C325.783 246.645 329.381 249.215 332.209 248.187C335.293 246.902 334.265 241.505 337.092 240.22C339.919 238.935 342.489 245.36 347.886 246.902C352.512 247.93 357.138 245.36 360.48 242.79L360.737 235.08" stroke="#E4E1DC" stroke-width="3.5" stroke-miterlimit="10"/>
</svg>
