<svg width="129" height="28" viewBox="0 0 129 28" fill="none" xmlns="http://www.w3.org/2000/svg">
<path d="M0.5 27.9663H28.905V0.0336075H0.5V27.9663Z" fill="url(#paint0_linear_667_2148)"/>
<path d="M2.71895 0.533829C2.16787 0.533829 1.80783 0.998735 1.72233 1.65068C1.63683 2.30262 1.01294 5.37931 1.01294 13.2968C1.01294 21.2183 1.72233 26.4011 1.72233 26.4011C1.78779 27.0277 2.16787 27.5173 2.71895 27.5173H27.3051C27.8542 27.5173 28.291 27.0818 28.3004 26.4011C28.3097 25.7205 28.0272 20.3306 28.0272 14.4017C28.0272 8.47204 28.3004 1.65068 28.3004 1.65068C28.3137 1.04416 27.8542 0.533829 27.3051 0.533829H2.71895Z" fill="url(#paint1_linear_667_2148)"/>
<path d="M16.5268 3.38355C17.3023 3.70885 20.4191 5.39415 20.8012 5.93254C19.2328 6.13961 16.1568 6.94051 14.5002 7.74676L14.4033 7.94181C16.2302 7.53969 18.7839 7.32927 20.5447 7.23375C19.8874 8.19831 19.4519 8.65788 18.4519 9.74935L18.3591 9.9611C20.2648 8.81619 20.8012 8.73403 22.558 7.70535C23.2213 8.6866 23.3809 10.9477 23.4063 12.7399C23.9781 11.603 24.6721 7.31992 24.3835 6.54574C25.5485 5.74617 25.7061 5.10225 25.7061 5.10225C24.638 5.19443 24.0489 5.21246 23.4731 5.39415C22.1084 4.55718 18.9789 3.45302 16.617 3.18583L16.5268 3.38355Z" fill="url(#paint2_linear_667_2148)"/>
<path d="M4.8908 16.6936C4.7365 18.1204 4.67438 19.1411 4.87878 20.2826C4.30098 20.4423 3.79465 20.465 3.32907 20.6634L3.24023 20.8591C3.98102 21.316 4.5842 21.666 5.42184 22.0568C5.87005 23.0193 6.33296 23.6686 7.08376 24.41L7.17527 24.2116C7.04034 23.6646 6.86533 23.2124 6.93146 22.6145C7.86262 22.8857 8.66152 23.0293 9.72293 23.0614L9.81244 22.863C8.87928 22.501 7.94678 22.2157 7.19197 21.5037C7.4291 20.8437 7.70097 20.326 8.1445 19.6714L8.23802 19.471C7.43645 19.5919 6.7097 19.8852 6.01634 20.0201C5.46994 19.0596 5.25752 17.7457 4.98231 16.4939L4.8908 16.6936Z" fill="url(#paint3_linear_667_2148)"/>
<path d="M9.64654 10.1815C9.64654 10.1815 9.0467 10.124 8.05409 10.1541C7.21511 10.1928 5.96399 10.2677 5.35547 10.4467L5.26663 10.6417C6.23386 10.6831 7.55912 10.943 8.06611 11.452C8.5731 11.961 6.5979 12.7766 5.14239 15.6756C3.68687 18.5746 7.78089 13.2001 8.92446 12.5862C10.068 11.9723 9.52296 14.5794 9.93845 15.5774L10.03 15.3783C10.1448 14.7371 10.4314 12.9977 10.9177 11.9336C11.404 10.8695 11.09 11.8287 11.9337 11.7465C12.7793 11.6711 13.975 11.6263 16.2455 12.0251L16.3376 11.83C15.8193 11.5241 13.7532 10.6384 11.5663 10.3438H11.6378C11.9377 9.46074 12.3131 8.79477 12.3131 8.79477C11.8495 8.86023 10.5296 9.47744 9.64654 10.1815Z" fill="url(#paint4_linear_667_2148)"/>
<path d="M15.1737 22.4114C15.1398 22.0282 15.1142 21.6442 15.0968 21.2598C14.6722 21.842 14.2193 22.4029 13.7395 22.9405C13.2045 23.0894 12.5926 23.0834 12.0348 23.0774C11.8251 23.0735 11.6153 23.0739 11.4056 23.0787L11.3154 23.2771C11.8344 23.5443 12.3441 23.7086 12.8878 23.8202C12.447 24.2216 11.8578 24.5269 11.4437 24.8068L11.3528 25.0018C12.2399 24.7921 13.4082 24.4153 14.2786 23.9017C14.7315 23.9217 15.1543 23.8917 15.4649 23.8302C15.7755 23.7687 15.5577 23.6278 15.5577 23.6325C15.501 23.4321 15.3226 23.3099 15.2705 23.0293C16.0861 22.3961 16.6773 21.8189 17.3593 21.1329L17.4541 20.9339C16.7801 21.3988 15.9619 22.038 15.1737 22.4114Z" fill="url(#paint5_linear_667_2148)"/>
<path d="M22.648 7.50488C20.8953 8.53556 20.3582 8.6224 18.4518 9.7633C19.562 8.55894 19.9481 8.04594 20.6347 7.03797C18.8773 7.13148 16.3236 7.34256 14.5001 7.74669C16.0872 6.89902 19.234 5.95651 20.8953 5.73207C20.5098 5.20037 17.3924 3.51173 16.6169 3.18642C19.085 3.37813 22.1016 4.3006 23.5645 5.19502C24.1396 5.01534 24.7381 5.00665 25.8089 4.91113C25.5363 5.37938 25.5243 5.65058 24.4736 6.34728C24.7648 7.12547 24.0695 11.4065 23.495 12.5401C23.4743 10.7492 23.318 8.48747 22.648 7.50488ZM9.81222 22.863C8.80492 22.4896 8.07949 22.0547 7.2806 21.3079C7.51973 20.648 7.79293 20.1323 8.2378 19.471C7.5261 19.5724 6.81657 19.6884 6.10964 19.819C5.53518 18.8144 5.27467 17.8438 4.9821 16.4938C4.82579 17.9246 4.76634 18.9466 4.96807 20.0855C4.32013 20.2659 3.8619 20.4228 3.32886 20.6626C4.07565 21.1195 4.67817 21.4716 5.51247 21.8603C5.96001 22.8222 6.42358 23.4708 7.17572 24.2116C6.99938 23.5804 6.95262 23.0787 7.02476 22.4167C7.95659 22.6879 8.75415 22.8309 9.81222 22.863ZM12.4347 8.62507C12.1207 9.03254 11.7567 9.79136 11.6585 10.144C14.2549 10.4967 16.3383 11.83 16.3383 11.83C14.0672 11.4272 12.8715 11.4773 12.0246 11.5535C11.1829 11.6323 11.0092 11.7312 11.0092 11.7312C10.3974 13.0738 10.03 15.3783 10.03 15.3783C9.61717 14.3823 9.02 12.3878 9.02 12.3878C7.87443 12.9996 5.23927 15.4785 5.23927 15.4785C6.6881 12.5775 8.15831 11.2569 8.15831 11.2569C7.65266 10.7446 6.32606 10.4887 5.35549 10.446C5.85915 10.2402 7.15168 9.99976 8.14429 9.95434C9.13823 9.92562 9.73941 9.9824 9.73941 9.9824C10.6258 9.28236 11.9704 8.69387 12.4347 8.62507ZM15.1887 21.0641C14.7637 21.6461 14.3095 22.2064 13.8281 22.7427C13.0413 22.9729 12.225 23.0861 11.4053 23.0787C11.9025 23.3327 12.4326 23.5164 12.9804 23.6244C12.5042 24.0631 11.9901 24.4587 11.4441 24.8068C12.3318 24.5964 13.4988 24.2196 14.3678 23.7059C14.822 23.7233 15.2462 23.6939 15.5568 23.6325C15.476 23.3693 15.4265 23.1729 15.3604 22.8309C16.1787 22.197 16.7725 21.6232 17.4539 20.9338C16.7641 21.4251 16.0315 21.8532 15.2649 22.213C15.2296 21.8308 15.2042 21.4477 15.1887 21.0641Z" fill="white"/>
<path d="M39.2667 10.7399C41.0054 10.7546 41.642 11.108 41.642 12.0545C41.642 12.3157 41.5618 12.5475 41.4082 12.7245C41.0749 13.1253 40.4263 13.3323 39.5993 13.2802H39.5566L39.071 14.5454H39.5566C40.5164 14.5187 41.3508 14.8206 41.7796 15.3443C41.9773 15.5828 42.0768 15.87 42.0768 16.1626C42.0768 17.1525 41.2051 17.6635 39.4858 17.6635C39.1965 17.6635 38.7256 17.6635 38.433 17.6541C38.3917 16.4388 38.3679 15.223 38.3616 14.007C38.3616 13.3831 38.4023 11.9937 38.433 10.8074C38.6314 10.766 38.9607 10.7399 39.2667 10.7399ZM36.047 9.83016C36.1005 10.7687 36.1546 13.1413 36.1546 14.0063C36.1546 14.8039 36.1546 17.4731 36.0143 18.624L36.0056 18.7142H40.1758C42.2265 18.7142 44.3934 18.077 44.3934 16.2561C44.3934 15.1172 43.5684 14.2749 42.0254 13.814C43.1703 13.5067 43.9325 12.7252 43.9325 11.8301C43.9325 10.3438 42.2258 9.78473 40.6213 9.74599H36.0223L36.047 9.83016ZM54.0182 9.74599H51.9889L52.0711 12.0078C52.1112 13.1253 52.1486 14.2749 52.2274 15.391C52.0965 15.041 51.9742 14.8613 51.357 13.9636C51.355 13.9322 49.2462 10.6878 48.5134 9.7667L48.4934 9.74599H46.1381V9.83016C46.2129 10.7687 46.243 13.142 46.243 14.007C46.243 14.8046 46.243 17.4731 46.1308 18.624L46.1107 18.7149H48.2088V18.624C48.0893 16.4351 48.0893 14.2261 48.0893 12.0832C48.1628 12.3431 48.2549 12.5662 48.5856 13.0558C48.613 13.1139 52.2274 18.3756 52.4031 18.6768L52.4211 18.7149H54.1024L54.0997 18.624C53.9715 17.4731 53.9608 14.8046 53.9608 14.007C53.9608 13.142 54.0182 10.7687 54.073 9.83016L54.0997 9.74599H54.0182ZM59.5223 10.8281C60.6913 10.8067 61.5082 11.0432 61.8963 11.5342C62.074 11.7452 62.1722 12.0238 62.1722 12.3431C62.1722 13.641 60.712 13.9228 59.4916 13.9228L58.996 13.8948L58.7922 13.8747C58.7836 13.5742 58.7836 13.1787 58.7836 12.7352C58.7836 12.1707 58.7836 11.5008 58.8096 10.8802C59.0458 10.8474 59.2839 10.83 59.5223 10.8281ZM56.445 9.83016C56.5271 10.7687 56.5585 13.1413 56.5585 14.007C56.5585 14.8039 56.5585 17.4738 56.4356 18.624V18.7149H58.9318L58.9212 18.624C58.8357 17.7958 58.7922 16.2167 58.7836 15.0103L59.2551 15.0337L59.6078 15.041C62.8916 15.041 64.4887 14.1727 64.4887 12.3431C64.4887 10.2623 62.2483 9.78473 60.3807 9.74599H56.445V9.83016ZM72.3267 10.8281C73.499 10.8067 74.3146 11.0432 74.7074 11.5342C74.8878 11.7452 74.9779 12.0238 74.9779 12.3431C74.9779 13.641 73.5197 13.9228 72.3147 13.9228L71.8204 13.8948C71.8204 13.8948 71.6895 13.8834 71.6133 13.8747C71.6 13.5742 71.6 13.1767 71.6 12.7352C71.6 12.1654 71.6 11.5008 71.6227 10.8802C71.779 10.8575 72.0489 10.8281 72.3267 10.8281ZM69.2541 9.83016C69.3329 10.7687 69.3783 13.1413 69.3783 14.007C69.3783 14.8039 69.3703 17.4738 69.2407 18.624V18.7149H71.7389L71.7242 18.624C71.6447 17.7958 71.5993 16.2167 71.5993 15.0103C71.7155 15.0156 72.0489 15.0337 72.0489 15.0337L72.4109 15.041C75.6933 15.041 77.3045 14.1727 77.3045 12.3431C77.3045 10.2623 75.0514 9.78473 73.1764 9.74599H69.2541V9.83016ZM81.2509 12.3872C81.4493 12.8147 81.965 14.007 82.5448 15.4298C82.4552 15.4338 82.343 15.4338 82.343 15.4338L81.2509 15.4485C81.2509 15.4485 80.1207 15.4338 79.9316 15.4298C80.4032 14.2922 80.8701 13.2642 81.2509 12.3872ZM80.6437 9.74599H80.611L80.5936 9.79074C80.1287 11.0672 77.1342 17.602 76.6599 18.6027L76.6205 18.7149H78.7466L78.7647 18.6655C78.9517 18.0503 79.2035 17.3569 79.4774 16.6168C79.5622 16.6168 81.2509 16.5914 81.2509 16.5914L82.7198 16.6021C82.7198 16.6021 82.9562 16.6168 83.027 16.6168C83.4051 17.5807 83.6957 18.3074 83.8219 18.6768L83.846 18.7149H86.3101L82.3297 9.74599H82.2802H80.6437ZM87.3114 9.83016C87.3829 10.7687 87.419 13.142 87.419 14.007C87.419 14.8046 87.419 17.4731 87.2827 18.624V18.7149H89.7943L89.7836 18.624C89.6507 17.4651 89.6413 14.8046 89.6413 14.007C89.6413 13.3838 89.6614 11.9944 89.7228 10.8709C89.9139 10.8575 90.2037 10.8281 90.4001 10.8281C91.5624 10.8067 92.384 11.0465 92.7674 11.5342C92.9518 11.7459 93.0346 12.0305 93.0346 12.3424C93.0346 13.3791 92.0681 13.9041 91.167 13.9509C90.865 13.9636 90.6406 13.9242 90.6406 13.9242L90.4656 13.8948L90.5618 14.0591C91.4535 15.3596 92.7868 17.6114 93.3379 18.6768L93.3533 18.7149H96.0365L95.9697 18.594C95.8602 18.443 94.1127 15.8707 93.3699 14.7718C93.3699 14.7718 93.3379 14.7404 93.3052 14.705C94.6812 14.2922 95.3458 13.5227 95.3458 12.3431C95.3458 10.2777 93.1054 9.78607 91.2137 9.74599H87.3041L87.3114 9.83016ZM99.5875 9.74599H97.1961L97.2095 9.83016C97.2709 10.7687 97.319 13.142 97.319 14.007C97.319 14.8006 97.3083 17.4651 97.1954 18.624L97.1861 18.7149H99.6656L99.6529 18.624C99.5574 17.4651 99.528 14.8006 99.528 14.007C99.528 13.142 99.5881 10.7687 99.6529 9.83016V9.74599H99.5875ZM105.145 10.7399C106.896 10.7546 107.534 11.108 107.534 12.0545C107.534 12.3157 107.454 12.5475 107.294 12.7245C106.978 13.1253 106.304 13.3323 105.482 13.2802H105.442L104.959 14.5454H105.442C106.405 14.5187 107.232 14.8206 107.66 15.3443C107.869 15.5828 107.969 15.87 107.969 16.1626C107.969 17.1525 107.093 17.6635 105.364 17.6635C105.087 17.6635 104.619 17.6635 104.327 17.6541C104.255 16.3329 104.255 14.5454 104.255 14.007C104.255 13.3831 104.277 11.9937 104.327 10.8074C104.516 10.766 104.844 10.7399 105.145 10.7399ZM101.926 9.83016C101.998 10.7687 102.041 13.1413 102.041 14.0063C102.041 14.8039 102.041 17.4731 101.915 18.624L101.895 18.7142H106.072C108.114 18.7142 110.289 18.077 110.289 16.2561C110.289 15.1172 109.462 14.2749 107.906 13.814C109.053 13.5067 109.824 12.7252 109.824 11.8301C109.824 10.3438 108.114 9.78473 106.524 9.74599H101.915L101.926 9.83016ZM115.398 12.3825C115.599 12.8 116.111 13.9943 116.692 15.4204C116.603 15.4204 116.495 15.4298 116.495 15.4298L115.398 15.4445C115.398 15.4445 114.255 15.4204 114.085 15.4204C114.503 14.3993 114.941 13.3865 115.398 12.3825ZM116.43 9.74599H114.751L114.741 9.78607C114.239 11.1441 111.076 18.0235 110.81 18.594L110.763 18.7142H112.901L112.914 18.6608C113.093 18.0462 113.341 17.3569 113.619 16.6021C113.687 16.6021 115.385 16.5754 115.385 16.5754L116.857 16.5987L117.169 16.6021C117.555 17.566 117.842 18.2987 117.967 18.6614L117.989 18.7149H120.462L116.485 9.74599H116.43ZM121.162 12.0652C121.162 13.641 122.74 14.2749 124.138 14.8547C125.226 15.2882 126.364 15.7444 126.364 16.4959C126.364 16.723 126.319 16.914 126.192 17.0483C125.93 17.3569 125.401 17.4865 124.56 17.4397C123.727 17.4063 122.788 17.1438 121.731 16.6569L121.317 16.4578V18.4116L121.599 18.4838L121.764 18.5118C122.285 18.6414 123.293 18.8785 124.294 18.8785C126.928 18.8785 128.5 17.8278 128.5 16.0911C128.5 14.4599 126.877 13.826 125.443 13.2542C124.387 12.826 123.294 12.4019 123.294 11.7025C123.294 11.5008 123.294 10.9123 124.659 10.9123C125.664 10.9123 126.641 11.3217 127.196 11.5335L127.703 11.7459L127.699 11.4092V9.78473L127.196 9.69389C126.685 9.59035 125.831 9.42002 124.952 9.42002C122.679 9.42002 121.162 10.4935 121.162 12.0652" fill="black"/>
<defs>
<linearGradient id="paint0_linear_667_2148" x1="14.7025" y1="-0.664426" x2="14.7025" y2="29.3207" gradientUnits="userSpaceOnUse">
<stop stop-color="#007348"/>
<stop offset="0.6" stop-color="#8DC9AB"/>
<stop offset="1" stop-color="#00925B"/>
</linearGradient>
<linearGradient id="paint1_linear_667_2148" x1="14.6577" y1="-7.02231" x2="14.6577" y2="26.6728" gradientUnits="userSpaceOnUse">
<stop stop-color="#00925B"/>
<stop offset="0.3" stop-color="#8DC9AB"/>
<stop offset="0.55" stop-color="#00925B"/>
<stop offset="0.835" stop-color="#007348"/>
<stop offset="1" stop-color="#009C6D"/>
</linearGradient>
<linearGradient id="paint2_linear_667_2148" x1="20.0551" y1="24.8122" x2="20.0551" y2="3.00748" gradientUnits="userSpaceOnUse">
<stop stop-color="#00A678"/>
<stop offset="1" stop-color="#00925B"/>
</linearGradient>
<linearGradient id="paint3_linear_667_2148" x1="6.52667" y1="24.8135" x2="6.52667" y2="3.00221" gradientUnits="userSpaceOnUse">
<stop stop-color="#00A678"/>
<stop offset="1" stop-color="#00925B"/>
</linearGradient>
<linearGradient id="paint4_linear_667_2148" x1="10.7407" y1="24.8088" x2="10.7407" y2="3.01184" gradientUnits="userSpaceOnUse">
<stop stop-color="#00A678"/>
<stop offset="1" stop-color="#00925B"/>
</linearGradient>
<linearGradient id="paint5_linear_667_2148" x1="14.3841" y1="24.8115" x2="14.3841" y2="3.007" gradientUnits="userSpaceOnUse">
<stop stop-color="#00A678"/>
<stop offset="1" stop-color="#00925B"/>
</linearGradient>
</defs>
</svg>
