<svg width="129" height="38" viewBox="0 0 129 38" fill="none" xmlns="http://www.w3.org/2000/svg">
<g clip-path="url(#clip0_667_2173)">
<path fill-rule="evenodd" clip-rule="evenodd" d="M21.5248 0.516479L7.91806 19.0602H0.452393L14.0592 0.516479H21.5248Z" fill="#008CCC"/>
<path fill-rule="evenodd" clip-rule="evenodd" d="M34.8908 19.0602H27.5455L19.7186 8.58423H27.0639L34.8908 19.0602Z" fill="#0057A6"/>
<path fill-rule="evenodd" clip-rule="evenodd" d="M11.8917 19.0602H19.3574L27.0639 8.58423H19.7186L11.8917 19.0602Z" fill="#008CCC"/>
<path fill-rule="evenodd" clip-rule="evenodd" d="M34.8908 19.0602H27.5456L14.0592 37.4835H21.4045L34.8908 19.0602Z" fill="#008CCC"/>
<path fill-rule="evenodd" clip-rule="evenodd" d="M39.1053 19.0602L42.9586 24.238L32.9642 37.4835H25.4985L39.1053 19.0602Z" fill="#008CCC"/>
<path fill-rule="evenodd" clip-rule="evenodd" d="M32.9642 37.4835H25.4985L11.8917 19.0602H19.3574L32.9642 37.4835Z" fill="#0057A6"/>
<path fill-rule="evenodd" clip-rule="evenodd" d="M14.0592 37.4835H21.4044L7.91806 19.0602H0.452393L14.0592 37.4835Z" fill="#0057A6"/>
<path d="M61.0206 27.2483H62.7064C63.7901 27.2483 64.5126 26.6463 64.5126 25.4421C64.5126 24.3584 63.7901 23.7563 62.7064 23.7563H61.0206V27.2483ZM62.8268 21.5889C65.4759 21.5889 66.9208 23.0338 66.9208 25.4421C66.9208 27.9708 65.4759 29.4158 62.8268 29.4158H61.0206V32.4261H58.3715V21.5889H62.8268Z" fill="#0057A6"/>
<path d="M77.0357 32.4261L75.1091 24.9605L73.1824 32.4261H70.4129L67.1617 21.5889H69.9313L71.8579 29.5362L73.9049 21.5889H76.4336L78.4807 29.5362L80.4073 21.5889H83.0564L79.6848 32.4261H77.0357Z" fill="#0057A6"/>
<path fill-rule="evenodd" clip-rule="evenodd" d="M52.8325 26.8871V28.9342H54.2774V29.7771C53.6754 30.0179 52.9529 30.2587 52.4712 30.2587C50.7854 30.2587 49.4609 28.8138 49.4609 27.0075C49.4609 25.2013 50.7854 23.8768 52.4712 23.8768C53.4345 23.8768 54.3978 24.238 55.1203 24.9605L56.6857 23.1543C55.602 22.191 53.9162 21.4685 52.4712 21.4685C49.22 21.4685 46.8118 23.8768 46.8118 27.0075C46.8118 30.1383 49.0996 32.5466 52.2304 32.5466C53.6754 32.5466 55.4816 31.9445 56.5653 31.1016V26.8871H52.8325Z" fill="#0057A6"/>
<path d="M49.4609 10.7517V13.2804H54.0366V15.4478H49.4609V19.4215H46.8118V8.58423H54.3978V10.7517H49.4609Z" fill="#0057A6"/>
<path d="M64.8739 14.8458C64.8739 17.7357 63.0676 19.5419 60.1777 19.5419C57.2878 19.5419 55.4816 17.7357 55.4816 14.8458V8.58423H58.1307V14.8458C58.1307 16.4111 58.9736 17.254 60.2981 17.254C61.5023 17.254 62.3452 16.4111 62.3452 14.8458V8.58423H64.8739V14.8458Z" fill="#0057A6"/>
<path d="M74.0253 19.4215L69.2087 12.7987V19.4215H66.8004V8.58423H69.0883L73.9048 15.3274V8.58423H76.3131V19.4215H74.0253Z" fill="#0057A6"/>
<path d="M81.0093 17.254H82.8155C84.3809 17.254 85.5851 15.9295 85.5851 14.0029C85.5851 12.0762 84.3809 10.7517 82.6951 10.7517H81.0093V17.254ZM82.8155 8.58423C85.9463 8.58423 88.2342 10.7517 88.2342 14.0029C88.2342 17.254 85.9463 19.4215 82.6951 19.4215H78.3602V8.58423H82.8155Z" fill="#0057A6"/>
<path d="M93.8936 11.3537L92.4486 15.3274H95.3386L93.8936 11.3537ZM91.6057 17.4949L90.8832 19.4215H88.2341L92.6894 8.58423H95.3386L99.6735 19.4215H96.9039L96.1814 17.4949H91.6057Z" fill="#0057A6"/>
<path d="M109.307 10.27L107.862 12.1966C107.139 11.3537 106.176 10.7516 105.213 10.7516C103.647 10.7516 102.323 12.1966 102.323 14.0028C102.323 15.809 103.647 17.1335 105.213 17.1335C106.055 17.1335 107.139 16.6519 107.862 15.9294L109.307 17.6152C108.223 18.8193 106.657 19.5418 105.092 19.5418C101.961 19.5418 99.6735 17.1335 99.6735 14.0028C99.6735 10.872 102.082 8.46375 105.213 8.46375C106.657 8.46375 108.343 9.18623 109.307 10.27Z" fill="#0057A6"/>
<path d="M116.531 15.9295C116.531 18.2173 115.207 19.5419 112.919 19.5419C111.474 19.5419 110.39 18.9398 109.427 17.8561L110.631 15.9295C111.354 16.7724 112.197 17.1336 112.799 17.1336C113.521 17.1336 113.882 16.7724 113.882 15.8091V10.7517H110.39V8.58423H116.531V15.9295Z" fill="#0057A6"/>
<path d="M122.673 11.3537L121.228 15.3274H124.117L122.673 11.3537ZM128.452 19.4215H125.683L124.96 17.4949H120.385L119.662 19.4215H117.013L121.468 8.58423H124.117L128.452 19.4215Z" fill="#0057A6"/>
</g>
<defs>
<clipPath id="clip0_667_2173">
<rect width="128" height="36.9671" fill="white" transform="translate(0.452393 0.516479)"/>
</clipPath>
</defs>
</svg>
