<svg width="129" height="64" viewBox="0 0 129 64" fill="none" xmlns="http://www.w3.org/2000/svg">
<path d="M35.0354 28.2091H21.6808V32.1717H31.1528C30.6834 37.7184 26.0616 40.0992 21.6968 40.0992C20.314 40.1053 18.9439 39.8358 17.6664 39.3066C16.3889 38.7773 15.2297 37.9989 14.2564 37.0167C13.283 36.0346 12.5151 34.8683 11.9974 33.5861C11.4798 32.3039 11.2227 30.9314 11.2413 29.5488C11.2413 23.5499 15.8856 18.9312 21.7096 18.9312C26.2024 18.9312 28.8498 21.7952 28.8498 21.7952L31.6232 18.9216C31.6232 18.9216 28.0605 14.9568 21.5645 14.9568C13.2925 14.9568 6.89355 21.9381 6.89355 29.4784C6.89355 36.8672 12.9128 44.0725 21.7736 44.0725C29.5677 44.0725 35.2733 38.7328 35.2733 30.8373C35.2733 29.1712 35.0312 28.2091 35.0312 28.2091H35.0354Z" fill="#4885ED"/>
<path d="M45.9764 25.3387C40.4958 25.3387 36.5684 29.6235 36.5684 34.6187C36.5684 39.6896 40.3764 44.0534 46.0404 44.0534C51.1668 44.0534 55.3662 40.1355 55.3662 34.7275C55.3662 28.5408 50.4809 25.3376 45.9764 25.3376V25.3387ZM46.0297 29.0144C48.7241 29.0144 51.2777 31.1936 51.2777 34.704C51.2777 38.1387 48.7348 40.3808 46.0169 40.3808C43.0302 40.3808 40.6836 37.9894 40.6836 34.6763C40.6836 31.4336 43.0089 29.0144 46.0382 29.0144H46.0297Z" fill="#DB3236"/>
<path d="M66.4361 25.3387C60.9555 25.3387 57.0281 29.6235 57.0281 34.6187C57.0281 39.6896 60.8361 44.0534 66.5001 44.0534C71.6265 44.0534 75.8259 40.1355 75.8259 34.7275C75.8259 28.5408 70.9406 25.3376 66.4361 25.3376V25.3387ZM66.4894 29.0144C69.1838 29.0144 71.7374 31.1936 71.7374 34.704C71.7374 38.1387 69.1945 40.3808 66.4766 40.3808C63.4899 40.3808 61.1433 37.9894 61.1433 34.6763C61.1433 31.4336 63.4686 29.0144 66.4979 29.0144H66.4894Z" fill="#F4C20D"/>
<path d="M86.5032 25.3494C81.4728 25.3494 77.5198 29.7547 77.5198 34.6998C77.5198 40.3318 82.1032 44.0672 86.4158 44.0672C89.0824 44.0672 90.5011 43.008 91.5358 41.7931V43.6384C91.5358 46.8672 89.5752 48.8011 86.6163 48.8011C83.7576 48.8011 82.324 46.6752 81.8163 45.4699L78.2195 46.9632C79.4952 49.6619 82.0638 52.4747 86.6462 52.4747C91.6595 52.4747 95.459 49.3248 95.459 42.7179V25.9115H91.5507V27.4966C90.3454 26.1952 88.6942 25.3494 86.5054 25.3494H86.5032ZM86.8659 29.0187C89.332 29.0187 91.8643 31.1243 91.8643 34.72C91.8643 38.3755 89.3363 40.3894 86.8115 40.3894C84.1299 40.3894 81.635 38.2134 81.635 34.7542C81.635 31.1616 84.227 29.0187 86.8659 29.0187Z" fill="#4885ED"/>
<path d="M112.927 25.3269C108.182 25.3269 104.198 29.1029 104.198 34.6709C104.198 40.5653 108.639 44.0608 113.371 44.0608C117.331 44.0608 119.771 41.8954 121.211 39.9541L117.976 37.8016C117.137 39.1029 115.733 40.3776 113.392 40.3776C110.761 40.3776 109.552 38.9376 108.802 37.5402L121.349 32.3349L120.709 30.8096C119.497 27.8229 116.669 25.3269 112.927 25.3269ZM113.09 28.9258C114.8 28.9258 116.03 29.8346 116.552 30.9248L108.173 34.4266C107.81 31.7152 110.381 28.9258 113.079 28.9258H113.09Z" fill="#DB3236"/>
<path d="M98.2067 43.5061H102.328V15.9253H98.2067V43.5061Z" fill="#3CBA54"/>
</svg>
