<svg width="102" height="64" viewBox="0 0 102 64" fill="none" xmlns="http://www.w3.org/2000/svg">
<g clip-path="url(#clip0_667_2197)">
<path d="M91.5208 57.4923C91.8566 57.0272 92.2292 56.5793 92.6395 56.1545C93.0516 55.7284 93.4866 55.3384 93.942 54.9863L93.4542 56.9383L91.5208 57.4923Z" fill="#D3D2D2"/>
<path d="M94.9011 58.3357C94.3312 58.2778 93.7569 58.1792 93.1833 58.0358C92.6083 57.893 92.0531 57.7104 91.5201 57.4923L93.4542 56.9383L94.9011 58.3357Z" fill="#4F4C4C"/>
<path d="M93.942 54.9868C94.1761 55.5098 94.3777 56.0563 94.5405 56.6239C94.7039 57.1936 94.8241 57.7655 94.9017 58.3357L93.4542 56.9383L93.942 54.9868Z" fill="#918F90"/>
<path d="M90.8372 61.5045C90.4995 61.0419 90.1878 60.5488 89.9112 60.0276C89.6332 59.5046 89.3973 58.9697 89.202 58.4284L90.9078 59.4947L90.8372 61.5045Z" fill="#918F90"/>
<path d="M92.6841 58.5501C92.4526 59.0748 92.181 59.5903 91.8681 60.0917C91.5546 60.594 91.2092 61.0655 90.8372 61.5052L90.9078 59.4947L92.6841 58.5501Z" fill="#4F4C4C"/>
<path d="M89.2026 58.4283C89.7731 58.366 90.3544 58.3439 90.9446 58.3642C91.5367 58.3849 92.118 58.448 92.6841 58.5501L90.9077 59.4946L89.2026 58.4283Z" fill="#D3D2D2"/>
<path d="M94.4426 63.3946C93.8981 63.5739 93.3328 63.7168 92.7515 63.8192C92.1676 63.9223 91.5863 63.9814 91.0107 63.9993L92.5524 62.7062L94.4426 63.3946Z" fill="#4F4C4C"/>
<path d="M92.2032 60.7251C92.6306 61.1077 93.037 61.5251 93.4174 61.9777C93.7977 62.4311 94.1398 62.9049 94.4426 63.3945L92.5524 62.7061L92.2032 60.7251Z" fill="#918F90"/>
<path d="M91.0107 63.9988C91.1278 63.4373 91.2868 62.8771 91.489 62.3218C91.6919 61.7654 91.931 61.232 92.2032 60.7252L92.5524 62.7062L91.0107 63.9988Z" fill="#D3D2D2"/>
<path d="M97.3535 60.55C97.3554 61.1239 97.3173 61.705 97.2359 62.2895C97.1532 62.8766 97.0305 63.448 96.8689 64L96.1146 62.1355L97.3535 60.55Z" fill="#918F90"/>
<path d="M94.1233 61.8553C94.6187 61.5666 95.1415 61.309 95.6885 61.0878C96.2386 60.8655 96.7945 60.6866 97.3541 60.55L96.1146 62.1355L94.1233 61.8553Z" fill="#D3D2D2"/>
<path d="M96.8689 64C96.3703 63.715 95.8863 63.3913 95.4207 63.0274C94.9539 62.6629 94.5208 62.2704 94.1227 61.8548L96.1146 62.1355L96.8689 64Z" fill="#4F4C4C"/>
<path d="M95.5472 56.9027C96.0948 57.0778 96.6348 57.2942 97.1658 57.5523C97.6988 57.8127 98.2031 58.1066 98.6789 58.4301L96.673 58.5704L95.5472 56.9027Z" fill="#918F90"/>
<path d="M95.7909 60.3785C95.6694 59.8176 95.5861 59.2405 95.5448 58.6517C95.5034 58.0606 95.5053 57.4761 95.5473 56.9022L96.673 58.5704L95.7909 60.3785Z" fill="#D3D2D2"/>
<path d="M98.6815 58.4301C98.2567 58.8151 97.7962 59.1761 97.3071 59.5065C96.8168 59.8374 96.3093 60.1281 95.7903 60.3785L96.673 58.5704L98.6815 58.4301Z" fill="#4F4C4C"/>
<path fill-rule="evenodd" clip-rule="evenodd" d="M67.0503 61.8282L67.0452 61.4643H64.4275V60.0835H66.9117V59.725H64.4275V58.4716H67.0147V58.1079H64.0417V61.8282H67.0503ZM78.378 61.8242H81.3767V61.4605H78.7583V60.0792H81.2425V59.7215H78.7583V58.4681H81.3462V58.1034H78.3729L78.378 61.8242ZM62.2939 58.0878H62.8393V61.8237H62.4567V58.5978L60.7996 61.8237H60.4424L58.8014 58.5924L58.7915 61.8237H58.4077V58.0878H58.9692L60.6319 61.3376L62.2939 58.0878ZM72.1052 58.0898H72.6509V61.8257H72.268V58.5998L70.61 61.8257H70.2538L68.6136 58.5948L68.6028 61.8257H68.2193V58.0898H68.7809L70.444 61.3393L72.1052 58.0898ZM74.2466 58.45H75.9059C76.3282 58.45 76.6297 58.5973 76.6297 59.0537C76.6297 59.5513 76.2964 59.719 75.7755 59.719H74.2466V58.45ZM73.865 61.8232H75.9313C76.5031 61.8232 77.1569 61.54 77.1569 60.7604C77.1569 60.2847 76.8624 59.9252 76.3746 59.8519C76.8154 59.7357 77.0119 59.3995 77.0119 59.0376C77.0119 58.5084 76.7079 58.0992 75.979 58.0992H73.865V61.8232ZM74.2466 60.0698H75.9632C76.4102 60.0698 76.7448 60.2213 76.7448 60.7604C76.7448 61.2742 76.3676 61.4722 75.869 61.4722H74.2466V60.0698ZM84.4079 59.8425H82.9317V58.4674H84.4626C85.0496 58.4674 85.3358 58.6793 85.3358 59.1153C85.3358 59.6047 85.0318 59.8425 84.4079 59.8425ZM85.7562 61.7045C85.6957 61.5882 85.6748 61.3579 85.6684 60.756C85.662 60.3885 85.4611 60.12 85.1412 60.0022C85.5584 59.8152 85.7288 59.437 85.7288 59.127C85.7288 58.4383 85.3091 58.1029 84.4428 58.1029H82.5444V61.8237H82.9317V60.2064H84.4371C85.1005 60.2064 85.2575 60.3394 85.2747 60.9175C85.2881 61.5219 85.3148 61.7201 85.3949 61.8002L85.8198 61.8237L85.7562 61.7045ZM2.56474 58.0786H2.21047L0.5 61.7996H0.920103L1.44902 60.6499H3.32346L3.84592 61.7996H4.27571L2.56474 58.0786ZM1.61125 60.2929L2.38512 58.5934L3.16322 60.2929H1.61125ZM20.6654 58.4644C21.2528 58.4644 21.5377 58.6761 21.5377 59.1121C21.5377 59.6015 21.2347 59.8392 20.6103 59.8392H19.1338V58.4644H20.6654ZM18.747 58.0997V61.8208H19.1338V60.2035H20.6401C21.3037 60.2035 21.4602 60.3364 21.4763 60.9145C21.4913 61.5189 21.5179 61.7169 21.5986 61.7972L22.0214 61.8208L21.9596 61.7015C21.8987 61.5852 21.8776 61.3547 21.8711 60.7535C21.8654 60.3853 21.6637 60.117 21.3439 59.999C21.7608 59.8122 21.932 59.4338 21.932 59.1238C21.932 58.4351 21.5116 58.0997 20.6468 58.0997H18.747ZM15.7822 58.6152L16.5601 60.3138H15.0086L15.7822 58.6152ZM15.6076 58.0997L13.8976 61.8208H14.3175L14.8466 60.671H16.7203L17.2433 61.8208H17.6733L15.9611 58.0997H15.6076ZM10.5276 58.0997V58.4644H11.9685V61.8208H12.3506V58.4644H13.7923V58.0997H10.5276ZM6.58169 60.5995C6.58119 60.9679 6.6905 61.2394 6.90541 61.4568C7.19186 61.7442 7.70212 61.8908 8.34262 61.8908C8.70082 61.8908 9.92936 61.8113 9.92936 60.7922C9.92936 59.8954 9.11078 59.8122 8.38905 59.7394C7.64348 59.6641 7.09296 59.5821 7.09296 59.0756C7.09296 58.8244 7.22213 58.6433 7.48823 58.5203C7.76177 58.3941 8.05738 58.376 8.36374 58.376C8.59969 58.376 9.03198 58.4122 9.2762 58.6562C9.38902 58.7685 9.44715 58.9494 9.44715 59.127L9.82252 59.1312C9.82252 58.8582 9.7343 58.5829 9.5624 58.4108C9.24841 58.0967 8.72072 58.0309 8.33264 58.0309C7.80025 58.0309 7.27504 58.1452 6.95311 58.4674C6.78416 58.6356 6.69845 58.84 6.69845 59.0756C6.69845 59.9538 7.59279 60.0251 8.29416 60.0884C8.62583 60.1182 8.93906 60.1468 9.1719 60.2487C9.41834 60.3555 9.53257 60.5336 9.53257 60.8084C9.53257 60.9828 9.47469 61.1294 9.36021 61.2437C9.08839 61.5162 8.52318 61.5455 8.31826 61.5455C7.8117 61.5455 7.40377 61.4362 7.18785 61.2208C7.03184 61.0643 6.95311 60.8717 6.95063 60.599L6.58169 60.5995ZM52.7831 58.0997V61.8208H55.7862V61.4568H53.1682V60.0753H55.6526V59.7175H53.1682V58.4644H55.7557V58.0997H52.7831ZM46.0841 58.0997V61.2051C45.8456 60.915 43.3918 58.0997 43.3918 58.0997H43.0035V61.8208H43.3868V58.7166C43.6253 59.006 46.0791 61.8208 46.0791 61.8208H46.4667V58.0997H46.0841ZM36.602 58.0997V61.8208H36.9859V58.0997H36.602ZM33.1232 58.0997V61.8208H35.7996V61.4568H33.5095V58.0997H33.1232ZM29.6123 58.0997V61.8208H32.2934V61.4568H29.9999V58.0997H29.6123ZM40.0695 58.6152L40.8433 60.3138H39.2918L40.0695 58.6152ZM39.8894 58.0997L38.1788 61.8208H38.6057L39.1292 60.671H41.0023L41.5315 61.8208H41.9551L40.2496 58.0997H39.8894ZM26.5273 58.6152L27.3011 60.3138H25.7484L26.5273 58.6152ZM26.3484 58.0997L24.637 61.8208H25.0638L25.5877 60.671H27.4609L27.99 61.8208H28.4127L26.7086 58.0997H26.3484ZM47.6745 59.966C47.6745 61.1413 48.4897 61.9003 49.6908 61.9003C50.8076 61.9003 51.4838 61.1443 51.574 60.3982L51.5857 60.3078H51.1827L51.17 60.3754C51.0416 61.0916 50.4746 61.5363 49.6908 61.5363C48.5349 61.5363 48.0728 60.7239 48.0728 59.9635C48.0728 59.0338 48.7423 58.3849 49.7045 58.3849C50.4374 58.3849 50.9646 58.7345 51.1141 59.3208L51.1298 59.3829H51.533L51.5099 59.2828C51.3268 58.4811 50.6684 58.0215 49.7045 58.0215C48.3386 58.0215 47.6745 59.0289 47.6745 59.966Z" fill="#231F20"/>
<path fill-rule="evenodd" clip-rule="evenodd" d="M101.416 58.1009H101.539V58.9419H101.451V58.2152L101.079 58.9419H100.999L100.628 58.214L100.626 58.9419H100.539V58.1009H100.666L101.041 58.8326L101.416 58.1009ZM99.9051 58.9419H99.9923V58.1804H100.322V58.1009H99.5757V58.1804H99.9051V58.9419Z" fill="#231F20"/>
<path fill-rule="evenodd" clip-rule="evenodd" d="M15.5229 31.3216H26.8281C25.7549 29.5333 25.1381 27.4398 25.1381 25.2027C25.1381 16.0209 32.5812 8.57862 41.7633 8.57862L98.6783 8.84122L95.7406 19.0829H84.5122L78.0626 41.5638H65.98L72.427 19.0829H61.0828C62.156 20.8717 62.7727 22.9647 62.7727 25.2027C62.7727 34.3828 55.3295 41.8259 46.1482 41.8259L45.8493 41.8241L0.5 41.5638L9.88414 8.84045H21.9695L15.5229 31.3216ZM37.0505 25.2031C37.0505 21.3897 40.1423 18.2986 43.9557 18.2986C47.7697 18.2986 50.861 21.3897 50.861 25.2031C50.861 29.0166 47.7697 32.1079 43.9557 32.1079C40.1423 32.1079 37.0505 29.0166 37.0505 25.2031ZM42.3563 26.3911L46.2046 18.673C46.6791 18.9045 46.9983 19.4103 46.9983 19.9736C46.9983 20.2406 46.927 20.4911 46.799 20.7045L43.4867 26.2175L44.6054 26.0448C44.6631 26.0359 44.7226 26.0317 44.783 26.0317C45.4083 26.0317 45.9151 26.5392 45.9151 27.1645H49.0325L48.7522 26.8117H48.1821L48.0567 26.6391H49.7137C49.8926 26.9372 50.2106 27.1429 50.5782 27.1645L50.5249 27.3372H43.5165L46.4152 29.5614C46.737 29.8079 46.9387 30.2011 46.9387 30.6377C46.9387 31.0135 46.7891 31.3598 46.5429 31.6065L42.1981 27.3372H37.3871L37.3337 27.1645L42.3563 26.3911Z" fill="#1A3171"/>
<path fill-rule="evenodd" clip-rule="evenodd" d="M15.9004 0.000684738H16.8217L15.5539 4.42236H14.6325L15.9004 0.000684738ZM62.9888 0.737356L63.2007 0.000684738H61.0828C60.502 0.000684738 59.9008 0.279248 59.7318 0.867796L59.5314 1.56885C59.3935 2.04985 59.6685 2.48805 60.3562 2.48805H61.3889C61.5362 2.48805 61.7404 2.57029 61.6242 2.97325L61.574 3.15089C61.4803 3.47588 61.1902 3.68575 60.9238 3.68575H58.9256L58.7145 4.42236H60.9318C61.5156 4.42236 62.1946 4.1943 62.4174 3.41998L62.574 2.87512C62.7958 2.10372 62.2448 1.75094 61.7144 1.75094H60.7412C60.6038 1.75094 60.4108 1.71691 60.489 1.44293L60.5629 1.18579C60.6622 0.837205 60.8511 0.737356 61.1131 0.737356H62.9888ZM47.3188 4.81606e-05H48.24L46.9717 4.42236H46.0505L47.3188 4.81606e-05ZM36.1355 4.81606e-05H37.0572L35.7889 4.42236H34.868L36.1355 4.81606e-05ZM43.6352 4.81606e-05H44.5562L43.4998 3.68575H45.5251L45.3139 4.42236H42.3667L43.6352 4.81606e-05ZM23.1821 0.000684738L21.9154 4.42236H22.7998L23.3021 2.67268H25.5492L25.0474 4.42236H25.9315L27.1996 0.000684738H26.3156L25.7604 1.93607H23.5128L24.0677 0.000684738H23.1821ZM54.2906 4.42236L55.5589 0.000684738H58.6929L58.4817 0.737356H56.1911L55.9002 1.75094L57.8027 1.75049L57.5916 2.48754H55.6893L55.3457 3.68575H57.6363L57.4246 4.42236H54.2906ZM48.6301 4.42236L49.897 4.81606e-05H51.0515L51.9782 3.31688C52.0547 3.5894 52.0547 3.68575 52.0547 3.68575L53.1123 4.81606e-05H53.8993L52.6323 4.42236H51.4483L50.5492 1.10699C50.4846 0.867286 50.4781 0.715474 50.4781 0.715474L49.4175 4.42236H48.6301ZM21.3019 0.737356L21.5141 0.000684738H19.3959C18.8153 0.000684738 18.2141 0.279248 18.0452 0.867796L17.8445 1.56885C17.7064 2.04985 17.9821 2.48805 18.6696 2.48805H19.7018C19.8493 2.48805 20.0538 2.57029 19.9375 2.97325L19.8869 3.15089C19.7934 3.47588 19.5035 3.68575 19.2369 3.68575H17.239L17.0276 4.42236H19.2454C19.8292 4.42236 20.5077 4.1943 20.7308 3.41998L20.8873 2.87512C21.1092 2.10372 20.5581 1.75094 20.0272 1.75094H19.0543C18.917 1.75094 18.7239 1.71691 18.8022 1.44293L18.8763 1.18579C18.9759 0.837205 19.1644 0.737356 19.4265 0.737356H21.3019ZM12.2169 4.81606e-05H13.1379L12.0811 3.68575H14.1068L13.8956 4.42236H10.9487L12.2169 4.81606e-05ZM3.72667 0.737356C4.0161 0.737356 4.0638 0.985263 4.01784 1.14477L3.87126 1.65604C3.75102 2.07148 3.37489 2.21133 3.17092 2.21133H2.04974L2.47257 0.737356H3.72667ZM1.769 4.81606e-05L0.5 4.42236H1.42145L1.86838 2.85597H3.26384C3.71599 2.85597 4.51048 2.63541 4.70178 1.96832L4.93282 1.1622C5.17877 0.304689 4.43521 4.81606e-05 4.10852 4.81606e-05H1.769ZM38.6322 0.000684738H40.972C41.2987 0.000684738 42.0408 0.304054 41.7961 1.16169L41.6537 1.65853C41.454 2.35666 40.6019 2.42547 40.6019 2.42547C41.2801 2.70544 41.3037 2.87016 41.2185 3.50119C41.134 4.13222 41.2242 4.38808 41.2627 4.42236H40.4267C40.4267 4.42236 40.2553 4.18437 40.3733 3.56581C40.5142 2.8222 40.2931 2.76783 40.0876 2.76382H38.7565L38.2845 4.42236H37.3635L38.6322 0.000684738ZM40.59 0.737356C40.8793 0.737356 40.9266 0.985263 40.8814 1.14477L40.7348 1.65604C40.6334 1.93359 40.2938 2.02626 40.0893 2.02626H38.9684L39.3361 0.737356H40.59ZM33.7617 4.42236L33.3016 0.000684738H32.288L29.2484 4.42236H30.2272L30.8098 3.50043L32.8027 3.50119L32.8413 4.42236H33.7617ZM32.7749 2.83785L32.6872 0.736591C32.683 0.637504 32.7021 0.508777 32.7021 0.508777L32.5618 0.737356L31.2289 2.83836L32.7749 2.83785ZM6.96996 3.68506H8.22013C8.55276 3.68506 8.9381 3.41597 9.06925 2.95913L9.51896 1.39027C9.63197 0.997731 9.30081 0.743078 9.09831 0.743586L7.82632 0.746067C7.47354 0.746766 7.09321 1.03996 6.99432 1.38454L6.56653 2.87461C6.40604 3.43409 6.72801 3.68506 6.96996 3.68506ZM7.9195 0.00640631H9.16121C9.80961 0.00640631 10.5686 0.59699 10.3544 1.34479L9.81953 3.21175C9.61207 3.93519 8.82604 4.42236 8.0949 4.42236H7.11954C6.18866 4.42236 5.4764 3.75209 5.72831 2.87461L6.21723 1.16964C6.42468 0.446707 7.19135 0.00640631 7.9195 0.00640631Z" fill="#1A3171"/>
<path d="M0.5 50.4789H98.6783" stroke="#231F20" stroke-width="0.441125"/>
</g>
<defs>
<clipPath id="clip0_667_2197">
<rect width="101.04" height="64" fill="white" transform="translate(0.5)"/>
</clipPath>
</defs>
</svg>
