<svg width="1372" height="607" viewBox="0 0 1372 607" fill="none" xmlns="http://www.w3.org/2000/svg">
<path opacity="0.992" fill-rule="evenodd" clip-rule="evenodd" d="M249.958 216.413C237.802 227.75 227.635 240.75 219.458 255.413C198.738 307.851 208.904 353.184 249.958 391.413C215.754 416.148 178.754 420.981 138.958 405.913C90.6254 382.199 68.4594 343.365 72.4584 289.413C82.2884 235.583 114.121 203.75 167.958 193.913C198.546 190.223 225.879 197.723 249.958 216.413Z" fill="#E51B23"/>
<path opacity="0.992" fill-rule="evenodd" clip-rule="evenodd" d="M250.958 391.413C264.433 378.841 275.266 364.174 283.458 347.413C301.599 296.313 290.766 252.646 250.958 216.413C275.005 197.73 302.338 190.23 332.958 193.913C378.748 201.704 409.248 227.537 424.458 271.413C437.176 325.109 421.009 367.609 375.958 398.913C337.625 419.58 299.291 419.58 260.958 398.913C257.378 396.636 254.044 394.136 250.958 391.413Z" fill="#F89E1C"/>
<path fill-rule="evenodd" clip-rule="evenodd" d="M249.959 216.413C250.292 216.413 250.626 216.413 250.959 216.413C290.767 252.646 301.6 296.313 283.459 347.413C275.267 364.174 264.434 378.841 250.959 391.413C250.626 391.413 250.292 391.413 249.959 391.413C208.905 353.184 198.739 307.851 219.459 255.413C227.636 240.75 237.803 227.75 249.959 216.413Z" fill="#F26521"/>
<path opacity="0.962" fill-rule="evenodd" clip-rule="evenodd" d="M726.959 237.413C733.959 237.413 740.959 237.413 747.959 237.413C747.959 283.413 747.959 329.413 747.959 375.413C740.959 375.413 733.959 375.413 726.959 375.413C727.124 372.395 726.957 369.395 726.459 366.413C715.4 377.365 702.234 380.865 686.959 376.913C664.24 369.343 652.906 353.51 652.959 329.413C653.004 304.533 665.004 288.7 688.959 281.913C703.45 278.824 715.95 282.324 726.459 292.413C726.959 274.083 727.126 255.749 726.959 237.413ZM699.959 300.413C722.99 304.107 731.823 317.44 726.459 340.413C719.716 355.669 708.216 361.169 691.959 356.913C675.866 348.205 670.7 335.038 676.459 317.413C681.084 307.194 688.917 301.528 699.959 300.413Z" fill="black"/>
<path opacity="0.933" fill-rule="evenodd" clip-rule="evenodd" d="M886.958 237.413C902.948 238.387 908.118 246.387 902.458 261.413C897.538 266.115 891.698 267.615 884.958 265.913C875.758 260.607 873.588 253.107 878.458 243.413C880.778 240.518 883.618 238.518 886.958 237.413Z" fill="black"/>
<path opacity="0.96" fill-rule="evenodd" clip-rule="evenodd" d="M568.958 281.413C583.449 278.822 595.949 282.488 606.458 292.413C606.956 289.431 607.123 286.431 606.958 283.413C613.958 283.413 620.958 283.413 627.958 283.413C627.958 314.08 627.958 344.746 627.958 375.413C620.958 375.413 613.958 375.413 606.958 375.413C607.123 372.395 606.956 369.395 606.458 366.413C599.027 374.673 589.694 378.673 578.458 378.413C548.968 375.422 533.802 359.089 532.958 329.413C533.202 304.513 545.202 288.513 568.958 281.413ZM579.958 300.413C602.989 304.107 611.822 317.44 606.458 340.413C599.715 355.669 588.215 361.169 571.958 356.913C555.865 348.205 550.699 335.038 556.458 317.413C561.083 307.194 568.916 301.528 579.958 300.413Z" fill="black"/>
<path opacity="0.948" fill-rule="evenodd" clip-rule="evenodd" d="M954.958 281.412C969.078 280.117 982.748 281.95 995.958 286.912C998.668 287.927 1001 289.427 1002.96 291.412C1000.47 297.069 997.468 302.402 993.958 307.412C981.308 300.024 967.978 298.191 953.958 301.912C946.198 310.117 947.868 315.45 958.958 317.912C968.788 319.161 978.448 321.161 987.958 323.912C1005.14 332.104 1009.64 344.937 1001.46 362.412C991.568 373.941 978.908 379.274 963.458 378.412C948.498 378.636 934.998 374.47 922.958 365.912C926.098 360.611 929.428 355.444 932.958 350.412C946.138 359.292 960.468 361.792 975.958 357.912C982.038 355.574 984.208 351.407 982.458 345.412C980.878 343.871 979.048 342.704 976.958 341.912C965.128 339.89 953.468 337.223 941.958 333.912C927.238 324.899 923.408 312.399 930.458 296.412C936.558 287.951 944.718 282.951 954.958 281.412Z" fill="black"/>
<path opacity="0.956" fill-rule="evenodd" clip-rule="evenodd" d="M1060.96 281.413C1082.65 278.357 1100.15 285.357 1113.46 302.413C1125.18 324.796 1123.01 345.63 1106.96 364.913C1089.42 378.946 1070.09 381.946 1048.96 373.913C1036.18 367.801 1027.68 357.968 1023.46 344.413C1017.09 311.789 1029.59 290.789 1060.96 281.413ZM1069.96 300.413C1091.96 303.067 1101.46 315.401 1098.46 337.413C1094.35 350.642 1085.35 357.642 1071.46 358.413C1053.77 356.891 1044.27 347.224 1042.96 329.413C1044.12 312.26 1053.12 302.593 1069.96 300.413Z" fill="black"/>
<path opacity="0.954" fill-rule="evenodd" clip-rule="evenodd" d="M1182.96 281.413C1189.3 281.247 1195.64 281.413 1201.96 281.913C1204.47 282.028 1206.47 283.028 1207.96 284.913C1206.49 291.638 1204.49 298.138 1201.96 304.413C1192.84 300.282 1183.84 300.449 1174.96 304.913C1171.36 307.621 1168.86 311.121 1167.46 315.413C1166.02 335.367 1165.52 355.367 1165.96 375.413C1158.96 375.413 1151.96 375.413 1144.96 375.413C1144.96 344.746 1144.96 314.08 1144.96 283.413C1151.96 283.413 1158.96 283.413 1165.96 283.413C1164.65 291.712 1166.32 292.879 1170.96 286.913C1174.94 284.751 1178.94 282.918 1182.96 281.413Z" fill="black"/>
<path opacity="0.948" fill-rule="evenodd" clip-rule="evenodd" d="M1248.96 281.412C1263.08 280.117 1276.75 281.95 1289.96 286.912C1292.67 287.927 1295 289.427 1296.96 291.412C1294.47 297.069 1291.47 302.402 1287.96 307.412C1275.31 300.024 1261.98 298.191 1247.96 301.912C1240.2 310.117 1241.87 315.45 1252.96 317.912C1262.79 319.161 1272.45 321.161 1281.96 323.912C1299.14 332.104 1303.64 344.937 1295.46 362.412C1285.57 373.941 1272.91 379.274 1257.46 378.412C1242.5 378.636 1229 374.47 1216.96 365.912C1220.1 360.611 1223.43 355.444 1226.96 350.412C1240.14 359.292 1254.47 361.792 1269.96 357.912C1276.04 355.574 1278.21 351.407 1276.46 345.412C1274.88 343.871 1273.05 342.704 1270.96 341.912C1259.13 339.89 1247.47 337.223 1235.96 333.912C1221.24 324.899 1217.41 312.399 1224.46 296.412C1230.56 287.951 1238.72 282.951 1248.96 281.412Z" fill="black"/>
<path opacity="0.949" fill-rule="evenodd" clip-rule="evenodd" d="M764.958 283.413C772.625 283.413 780.291 283.413 787.958 283.413C796.035 306.312 804.698 328.979 813.958 351.413C823.218 328.979 831.878 306.312 839.958 283.413C847.658 283.082 855.318 283.416 862.958 284.413C850.558 314.623 838.558 344.957 826.958 375.413C818.268 375.744 809.598 375.411 800.958 374.413C788.556 344.203 776.556 313.869 764.958 283.413Z" fill="black"/>
<path opacity="0.959" fill-rule="evenodd" clip-rule="evenodd" d="M879.958 283.413C886.958 283.413 893.958 283.413 900.958 283.413C900.958 314.08 900.958 344.746 900.958 375.413C893.958 375.413 886.958 375.413 879.958 375.413C879.958 344.746 879.958 314.08 879.958 283.413Z" fill="black"/>
<path opacity="0.548" fill-rule="evenodd" clip-rule="evenodd" d="M414.958 367.413C418.787 367.84 422.454 367.84 425.958 367.413C425.958 369.08 425.958 370.746 425.958 372.413C423.958 372.413 421.958 372.413 419.958 372.413C419.862 368.602 419.196 368.602 417.958 372.413C416.763 370.792 415.763 369.126 414.958 367.413Z" fill="#FEFFFE"/>
</svg>
