<svg width="129" height="52" viewBox="0 0 129 52" fill="none" xmlns="http://www.w3.org/2000/svg">
<g clip-path="url(#clip0_667_2145)">
<path d="M20.7195 28.2561H0.5V6.55155C0.5 3.69568 2.84181 1.29675 5.81191 1.29675H27.5165V21.5734C27.5165 25.286 24.4893 28.2561 20.7767 28.2561" fill="#B62933"/>
<path d="M5.12646 11.4065C11.9805 8.1508 20.4339 15.2334 22.9471 6.55151C15.5789 8.60774 8.72486 3.18159 5.12646 11.4065ZM5.12646 17.2325C10.4955 14.9478 15.9788 20.431 19.1773 13.7483C13.4085 15.2334 7.98233 11.2351 5.12646 17.2325ZM5.12646 22.4301C8.83909 20.7166 12.666 24.7148 14.8364 19.917C10.8382 21.0022 7.12557 18.2035 5.12646 22.4301Z" fill="white"/>
<path d="M104.453 40.7649C104.453 41.0504 104.396 41.336 104.282 41.5645C104.111 42.2499 103.711 42.8211 102.911 42.8211H101.198V38.4231L101.883 38.3659C103.083 38.3659 103.882 38.88 104.168 39.7367C104.339 40.0795 104.396 40.4222 104.396 40.7649H104.453ZM108.623 47.2762C107.823 47.1049 107.595 46.8193 106.338 45.5056L104.91 43.9063L104.111 43.1638C104.673 42.9738 105.163 42.6131 105.511 42.1319C105.859 41.6508 106.048 41.0731 106.053 40.4793C106.053 39.2227 105.31 38.1946 104.054 37.7948C103.482 37.6805 102.911 37.6234 102.169 37.6234H98.3419V38.0803L98.7417 38.1946C99.5414 38.3659 99.5985 38.3659 99.5985 38.7086V46.5908C99.5985 46.9335 99.5414 46.9335 98.7417 47.1049L98.3419 47.2191V47.6761H102.454V47.2191L102.055 47.1049C101.312 46.9335 101.198 46.9335 101.198 46.5908V43.6207H102.511C102.74 43.7921 102.854 43.9063 103.083 44.249L104.511 45.9625C105.996 47.6761 106.567 47.9045 108.452 47.7903L108.623 47.2762ZM96.6284 37.5663H89.2032V38.1375H89.6601C90.6311 38.3659 90.6882 38.3659 90.7453 38.7086V46.5908C90.7453 46.9335 90.6311 46.9335 89.8886 47.1049L89.4887 47.2191V47.6761H93.6012V47.2191L93.1442 47.1049C92.4017 46.9335 92.3446 46.9335 92.2875 46.5908V43.1638L94.7435 43.2209C95.0291 43.278 95.0862 43.3351 95.1434 43.5636L95.3718 44.4775H95.8288V41.336H95.3718L95.1434 42.2499C95.1434 42.4213 95.0291 42.4784 94.7435 42.4784L92.2875 42.5355V38.3659C95.5432 38.3659 95.7145 38.4802 95.8288 38.9371L96.0001 40.1366H96.5713V37.6805L96.6284 37.5663ZM88.175 40.4793C88.175 39.2227 87.4325 38.1946 86.1188 37.8519C85.297 37.6521 84.4501 37.5751 83.6056 37.6234H80.6355V38.0803L81.0354 38.1946C81.835 38.3659 81.8921 38.3659 81.8921 38.7086V46.5908C81.8921 46.9335 81.835 46.9335 81.0354 47.1049L80.6355 47.2191V47.6761H84.748V47.2191L84.3482 47.1049C83.6057 46.9335 83.4914 46.9335 83.4914 46.5908V38.3659H84.0626C85.2049 38.3659 86.0046 38.9371 86.3473 39.7939C86.4615 40.0795 86.5186 40.365 86.5186 40.822C86.5186 41.5645 86.2902 42.3642 85.6048 42.764C85.2049 43.0496 84.6338 43.1067 84.0055 43.1067V43.6207C86.5757 44.0206 88.175 42.4784 88.175 40.4793ZM74.2955 46.191C73.9149 46.5287 73.4325 46.7298 72.9247 46.7622C72.2393 46.7622 71.7824 46.4195 71.7824 45.9054C71.7824 45.2771 72.5249 44.5917 74.2955 44.3633V46.191ZM76.9229 47.162C75.6663 46.8193 75.6663 46.191 75.6663 44.8773V43.0496C75.6663 41.5074 75.3236 40.4793 73.2674 40.4793C72.4678 40.4793 71.5539 40.6506 70.9827 41.1647C70.6971 41.3932 70.5829 41.6216 70.5829 41.9072C70.5829 42.1357 70.64 42.4784 70.8685 42.6497C71.7824 41.6216 72.5249 41.336 73.0389 41.336C73.9528 41.336 74.2955 41.9072 74.2955 43.1638V43.735C71.5539 44.1348 70.4115 45.1629 70.4115 46.3052C70.4115 47.2762 71.1541 47.9045 72.2393 47.9045C73.1532 47.9045 73.9528 47.3334 74.4098 46.7051C74.524 47.4476 74.9809 47.8474 75.7235 47.8474C76.1333 47.8193 76.5279 47.6811 76.8658 47.4476L76.9229 47.162ZM67.8984 44.3061C67.8984 45.3343 67.5557 46.191 67.0416 46.5908C66.8131 46.8193 66.4704 47.0478 65.8421 47.0478C65.4423 47.0478 64.9854 46.9907 64.3571 46.7622V41.9643C64.6427 41.6216 65.2139 41.3932 65.785 41.3932C67.0987 41.3932 67.8984 42.4784 67.8984 44.249V44.3061ZM69.3834 43.6779C69.3834 41.8501 68.2411 40.4222 66.5276 40.4222C65.5566 40.4222 64.814 40.822 64.3 41.5645V40.4793H64.1858C63.5575 40.4793 62.8149 40.5935 61.9011 40.9362V41.2218L62.4722 41.3932C62.8149 41.4503 62.9292 41.5645 62.9292 41.8501V50.1892C62.9292 50.5319 62.9292 50.5319 62.5865 50.6462L62.0153 50.8175V51.2173H65.3281V50.8175L64.7569 50.6462C64.4142 50.5319 64.3571 50.5319 64.3571 50.1892V47.7903C64.6989 47.8247 65.0434 47.8247 65.3852 47.7903C66.3562 47.7903 67.0987 47.6189 67.8984 47.1049C68.8694 46.3624 69.3834 45.22 69.3834 43.6779ZM61.2728 46.9907L60.7016 46.8193C60.3589 46.7622 60.2447 46.6479 60.2447 46.3052V40.4793H60.0733C59.445 40.4793 58.7025 40.5935 57.7886 40.9362V41.2218L58.3598 41.3932C58.7025 41.4503 58.8167 41.5645 58.8167 41.8501V46.1339C58.5964 46.3436 58.3363 46.5072 58.0519 46.6151C57.7675 46.723 57.4643 46.773 57.1603 46.7622C55.8466 46.7622 55.6753 45.9625 55.6753 44.3061V40.4793H55.5039C54.9327 40.4793 54.1331 40.5935 53.2192 40.9362V41.2218L53.7904 41.3932C54.1331 41.4503 54.2473 41.5645 54.2473 41.8501V45.0487C54.2473 46.9907 54.9899 47.9045 56.532 47.9045C57.6173 47.9045 58.4169 47.3334 58.8167 46.5908V47.7332H58.9881C59.5592 47.7332 60.3589 47.6189 61.2728 47.2762V46.9907ZM52.3625 41.1647C52.3625 40.7077 52.0198 40.4222 51.4486 40.4222C50.8774 40.4222 50.192 40.7649 49.8493 41.7359V40.4793H49.7351C49.1068 40.4793 48.3071 40.5935 47.4504 40.9362V41.2218L48.0215 41.3932C48.3642 41.4503 48.4214 41.5645 48.4785 41.8501V46.648C48.4785 46.9335 48.4214 46.9907 48.1358 47.1049L47.5646 47.2762V47.6761H50.8774V47.2762L50.2491 47.1049C49.9635 46.9907 49.9064 46.9335 49.9064 46.648V42.0786C50.0175 41.965 50.1511 41.8759 50.2986 41.8168C50.4462 41.7578 50.6044 41.7303 50.7632 41.7359C51.0488 41.7359 51.5057 41.793 52.0198 42.0786C52.2482 41.793 52.3625 41.4503 52.3625 41.1647ZM46.5936 43.5636V43.0496H42.5383V43.5636L42.9381 43.6207C43.6806 43.8492 43.7377 43.9063 43.7377 44.1919V46.7622C43.2808 46.8764 42.5954 46.9907 41.91 46.9907C39.2255 46.9907 37.7404 44.9915 37.7404 42.307C37.7404 40.8791 37.9689 39.851 38.7685 39.0513C39.3397 38.4802 40.1965 38.2517 41.5102 38.2517C43.1666 38.2517 44.0804 38.5944 44.366 39.4512L44.5374 40.6506H45.1086C45.1657 39.5083 45.2228 38.6515 45.1657 37.7948C44.0165 37.5789 42.8507 37.4642 41.6815 37.4521C39.968 37.4521 38.8256 37.7948 37.9118 38.4802C37.2964 38.9434 36.8032 39.5495 36.4748 40.2462C36.1464 40.9428 35.9927 41.709 36.0269 42.4784C35.9771 43.3049 36.1276 44.1311 36.4657 44.8869C36.8039 45.6427 37.3195 46.3056 37.9689 46.8193C38.9399 47.5047 40.2536 47.7903 41.5673 47.7903C42.881 47.7903 44.366 47.5047 45.3941 47.1049L45.337 46.0197V44.1919C45.337 43.9063 45.3941 43.8492 46.1938 43.6207L46.5936 43.5636ZM44.9372 17.5181V16.0902C46.7078 16.2044 48.1929 15.9759 49.2781 15.2905C50.9916 14.2053 51.6771 12.092 51.6771 10.0928C51.7058 9.17645 51.5504 8.2636 51.2201 7.40833C50.3062 5.12363 48.25 3.63858 45.0514 3.63858L43.6235 3.6957V25.4003C43.6806 26.2571 43.9091 26.3142 45.9082 26.7711L46.9934 26.9996V28.2562H36.1411V27.0567L37.2264 26.8282C39.2255 26.3713 39.3968 26.2571 39.4539 25.4574V4.49534C39.4539 3.63858 39.2255 3.58146 37.1692 3.12453L36.084 2.89606V1.63948H43.9662C47.279 1.63948 48.8783 1.81083 50.6489 2.26777C54.076 3.18164 56.018 5.92328 56.018 9.23608C56.018 14.4909 51.8484 18.6604 44.9372 17.5181ZM81.3781 28.2562H70.64V27.0567L73.0961 26.4855C73.6672 26.3713 73.8386 26.0286 73.6672 25.5145L71.6681 20.0884H62.1866L60.4731 25.5716C60.3589 26.0286 60.4731 26.3142 61.6155 26.5998L63.843 27.0567V28.2562H54.4187V27.0567L56.7034 26.4855C57.3888 26.3142 57.6744 26.1428 57.8457 25.5145L65.3852 3.86705C65.9564 1.86795 66.6989 1.41101 68.8123 0.782715C69.0407 1.81083 69.2121 2.21065 69.7261 3.63858L78.1795 25.5145C78.408 26.0857 78.5222 26.1999 79.1505 26.3713L81.321 27.0567L81.3781 28.2562ZM62.9292 17.8037H70.7542L66.3562 5.86616L65.3852 9.46455L62.9292 17.8037ZM84.5195 28.2562V27.0567L85.6619 26.8282C87.661 26.3713 87.8323 26.2571 87.8895 25.4574V4.49534C87.8895 3.63858 87.661 3.58146 85.6048 3.12453L84.5195 2.89606V1.63948H95.3718V2.89606L94.3437 3.12453C92.3446 3.58146 92.1161 3.6957 92.059 4.49534V25.3432C92.1161 26.1999 92.3446 26.2571 94.3437 26.714L95.4289 26.9425V28.199L84.5195 28.2562ZM117.59 28.2562V27.0567L118.733 26.8282C120.675 26.3713 120.903 26.2571 120.96 25.4574V15.8617H107.081V25.3432C107.138 26.1999 107.366 26.2571 109.366 26.714L110.508 26.9425V28.199H99.5985V27.0567L100.684 26.8282C102.683 26.3713 102.854 26.2571 102.911 25.4574V4.49534C102.911 3.63858 102.683 3.58146 100.627 3.12453L99.5985 2.89606V1.63948H110.451V2.89606L109.366 3.12453C107.366 3.58146 107.138 3.6957 107.081 4.49534V13.5199H121.018V8.66491L120.96 4.49534C120.96 3.63858 120.675 3.58146 118.676 3.12453L117.648 2.89606V1.63948H128.5V2.89606L127.415 3.12453C125.416 3.58146 125.187 3.6957 125.13 4.49534V25.3432C125.187 26.1999 125.416 26.2571 127.415 26.714L128.5 26.9425V28.199L117.59 28.2562Z" fill="#656A6C"/>
</g>
<defs>
<clipPath id="clip0_667_2145">
<rect width="128" height="50.4346" fill="white" transform="translate(0.5 0.782715)"/>
</clipPath>
</defs>
</svg>
