<svg width="255" height="88" viewBox="0 0 255 88" fill="none" xmlns="http://www.w3.org/2000/svg">
<path d="M81.1302 42.2998H18.1602V45.6898H81.1302V42.2998Z" fill="#E20613"/>
<path d="M81.1302 47.9502H18.1602V59.2402H81.1302V47.9502Z" fill="#E20613"/>
<path d="M26.3699 30.0899L27.9299 23.1899L29.4899 30.0899H26.3699ZM31.2299 37.7899H37.6899L31.6299 19.1699H24.2299L18.1699 37.7899H24.6299L25.2899 34.8699H30.5799L31.2299 37.7899Z" fill="#E20613"/>
<path d="M69.8199 30.0899L71.3799 23.1899L72.9399 30.0899H69.8199ZM74.6899 37.7899H81.1499L75.0899 19.1699H67.6899L61.6299 37.7899H68.0899L68.7499 34.8699H74.0399L74.6899 37.7899Z" fill="#E20613"/>
<path d="M47.98 19.1699L44.76 30.3499L41.54 19.1699H35.25L41.31 37.7899H48.22L54.28 19.1699H47.98Z" fill="#E20613"/>
<path d="M51.7705 37.7898H58.0705L64.1305 19.1698H57.8305L51.7705 37.7898ZM59.4805 14.0898L58.3805 17.4798H64.6805L65.7805 14.0898H59.4805Z" fill="#E20613"/>
<path d="M166.59 19.25V29.85C166.59 31.76 166.52 33.34 164.55 33.34C162.54 33.34 162.44 31.56 162.44 29.9V19.25H157.88V30.45C157.88 34.38 159.58 37.04 164.48 37.04C169.66 37.04 171.15 34.4 171.15 30.47V19.25H166.59Z" fill="#021D49"/>
<path d="M183.12 19.25V26.78C183.12 27.7 183.24 28.81 183.41 29.83L183.36 29.85C183.09 28.95 182.59 27.94 182.16 27.09L178.18 19.25H174V36.99H178.49V29.37C178.49 28.26 178.39 27.12 178.25 26.1L178.3 26.08C178.64 27.15 179.07 28.14 179.55 29.01L183.68 37H187.62V19.25C187.61 19.25 183.12 19.25 183.12 19.25Z" fill="#021D49"/>
<path d="M195.26 19.25H190.7V36.99H195.26V19.25Z" fill="#021D49"/>
<path d="M209.74 19.25L207.53 26.51C207.24 27.43 206.81 29.12 206.64 30.21H206.57C206.38 29.12 205.92 27.52 205.61 26.51L203.45 19.25H198.65L197.48 37H201.77L202.35 26.91H202.47C202.59 27.71 202.83 28.55 203.02 29.09L205.11 36.91H207.82L210.05 29.29C210.27 28.59 210.46 27.72 210.63 26.92H210.73L211.23 37.01H215.4L214.37 19.27H209.74V19.25Z" fill="#021D49"/>
<path d="M224.68 19.1602C220.07 19.1602 217.05 22.2802 217.05 27.8602C217.05 34.7502 220.17 36.9902 224.42 36.9902C228.76 36.9902 231.95 34.6502 231.95 27.7402C231.95 22.1902 229.53 19.1602 224.68 19.1602ZM224.49 33.4702C222.81 33.4702 221.85 31.9702 221.85 27.8902C221.85 23.9102 223.12 22.7902 224.59 22.7902C226.06 22.7902 227.16 23.8402 227.16 27.7702C227.16 32.3902 226.01 33.4702 224.49 33.4702Z" fill="#021D49"/>
<path d="M246.87 22.72V19.25H233V22.72H237.66V36.99H242.22V22.72H246.87Z" fill="#021D49"/>
<path d="M152.81 27.5797C152.4 26.8397 151.95 26.5997 151.95 26.5997C151.88 26.5497 151.82 26.5097 151.76 26.4797C151.65 26.4197 151.54 26.3797 151.42 26.3397C150.3 25.9797 148.99 26.3597 148.65 26.4797C148.52 26.5197 148.4 26.5697 148.27 26.6297C148.24 26.6397 148.21 26.6597 148.18 26.6697C148.06 26.7297 147.94 26.7897 147.82 26.8497C147.81 26.8497 147.81 26.8597 147.79 26.8597C147.67 26.9197 147.57 26.9797 147.46 27.0497C147.44 27.0597 147.42 27.0697 147.4 27.0797C147.29 27.1497 147.18 27.2097 147.09 27.2797C146.96 27.3597 146.85 27.4497 146.79 27.4897C146.8 27.4997 146.81 27.4997 146.82 27.5097C147.29 27.8797 147.91 28.5197 148.28 29.3197C148.71 30.2497 149.01 31.2697 149.01 32.4197C149.01 33.6997 148.64 34.8297 147.98 35.7597C147.97 35.7797 147.96 35.7997 147.96 35.7997C147.93 35.8397 147.9 35.8697 147.88 35.9097C147.87 35.9297 147.85 35.9397 147.84 35.9597C147.65 36.2297 147.43 36.4897 147.18 36.7097L146.99 36.8597C146.94 36.8997 146.89 36.9397 146.84 36.9797C149.83 36.7597 152.69 34.9697 153.34 31.2697C153.39 31.0097 153.41 30.7397 153.43 30.4697C153.43 30.4297 153.43 30.3797 153.43 30.3397C153.43 30.2497 153.43 30.1597 153.43 30.0697C153.42 29.5497 153.33 29.0097 153.17 28.4697C153.09 28.1697 152.97 27.8597 152.81 27.5797Z" fill="#E20613"/>
<path d="M151.93 25.8801C151.95 25.8901 151.96 25.9001 151.96 25.9001C151.96 25.9001 151.94 25.8901 151.91 25.8701L151.93 25.8801Z" fill="#E20613"/>
<path d="M140.81 27.9002C140.93 28.2902 141.11 28.7002 141.4 29.0802C142.42 30.4602 143.55 31.0602 144.49 31.3002C144.47 31.2802 144.45 31.2602 144.43 31.2302C144.4 31.1902 144.36 31.1502 144.33 31.1002C144.33 31.0902 144.32 31.0902 144.32 31.0802C144.29 31.0302 144.26 30.9802 144.23 30.9302L144.22 30.9102C144.19 30.8602 144.17 30.8102 144.15 30.7602L144.14 30.7402C144.12 30.6802 144.1 30.6302 144.09 30.5702C144.04 30.3602 144.03 30.1302 144.08 29.9002C144.08 29.8802 144.09 29.8602 144.1 29.8402C144.11 29.7702 144.13 29.7002 144.16 29.6302C144.3 29.1702 144.53 28.7602 144.81 28.4202C144.84 28.3802 144.87 28.3502 144.9 28.3102C144.91 28.3002 144.91 28.2902 144.93 28.2802C145.08 28.1002 145.2 27.9902 145.25 27.9402C145.41 27.7902 145.58 27.6402 145.73 27.5102C149.13 24.5902 151.54 25.6702 151.92 25.8702C151.95 25.8902 151.97 25.9002 151.97 25.9002C151.64 25.4102 151.27 24.9202 150.83 24.4202L148.61 21.8702L148.48 21.7202L146.29 19.2102L146.28 19.2002L144.07 21.7302L143.95 21.8602L141.72 24.4202C141.67 24.4802 141.62 24.5402 141.57 24.5902C140.85 25.4402 140.5 26.5702 140.75 27.6602C140.77 27.7402 140.79 27.8202 140.81 27.9002Z" fill="#E20613"/>
<path d="M148.2 31.1197C148.14 31.1997 148.07 31.2697 148 31.3397C147.98 31.3597 147.96 31.3697 147.94 31.3897C147.88 31.4397 147.82 31.4897 147.76 31.5397C147.75 31.5497 147.73 31.5597 147.72 31.5697C147.47 31.7497 147.19 31.8597 146.91 31.9397C146.83 31.9597 146.75 31.9797 146.66 31.9997C146.64 31.9997 146.62 32.0097 146.59 32.0097C146.56 32.0097 146.54 32.0197 146.51 32.0197C145.72 32.1497 144.97 32.0297 144.76 31.9897H144.72C144.72 31.9897 144.7 31.9797 144.69 31.9797C144.51 31.9497 144.37 31.9197 144.2 31.8797C144.17 31.8697 144.14 31.8597 144.11 31.8497C142.44 31.3997 141.44 30.4197 140.84 29.4497L140.83 29.4297C140.81 29.3997 140.8 29.3697 140.78 29.3497C140.74 29.2897 140.71 29.2297 140.68 29.1697C140.23 28.4597 140.03 27.7197 139.98 27.0697C139.97 26.9797 139.97 26.9297 139.97 26.9297C139.95 26.9697 139.92 27.0197 139.9 27.0597C139.9 27.0697 139.89 27.0797 139.89 27.0897C139.87 27.1297 139.86 27.1597 139.84 27.2097C139.77 27.3497 139.71 27.4897 139.65 27.6297C139.63 27.6797 139.61 27.7297 139.59 27.7797C139.55 27.8997 139.5 28.0097 139.46 28.1297C139.44 28.1897 139.42 28.2497 139.4 28.2997C139.37 28.3897 139.35 28.4797 139.33 28.5697C139.31 28.6497 139.29 28.7197 139.27 28.7997C139.27 28.8097 139.27 28.8197 139.26 28.8297C139.2 29.0997 139.16 29.3597 139.13 29.6197C139.13 29.6297 139.13 29.6397 139.13 29.6497C139.12 29.7797 139.11 29.9197 139.1 30.0497V30.0597C139.09 30.4697 139.11 30.8697 139.18 31.2697C139.69 34.2897 141.7 36.0897 143.99 36.6797C145.42 37.0497 146.82 36.4497 147.6 35.2297C147.92 34.7297 148.09 34.1197 148.21 33.5497C148.38 32.7397 148.38 31.9197 148.21 31.1197H148.2Z" fill="#E20613"/>
</svg>
