<svg width="96" height="40" viewBox="0 0 96 40" fill="none" xmlns="http://www.w3.org/2000/svg">
<path d="M94.1832 20.0263C94.1832 19.7827 94.1832 19.5307 94.1832 19.2698C94.1832 18.9916 94.1572 18.7219 94.105 18.4612C94.0702 18.2002 94.0441 17.9394 94.0267 17.6785C94.0093 17.4177 93.9746 17.1742 93.9224 16.9481H79.3928L74.9842 23.8608H86.1489C85.8184 25.026 85.3402 26.0868 84.7142 27.0432C84.1055 27.9823 83.3751 28.7996 82.523 29.4952V29.5213C81.6361 30.2169 80.6534 30.7647 79.5754 31.1648C78.5146 31.5474 77.3841 31.7387 76.1842 31.7387C76.1494 31.7387 76.1146 31.7387 76.0798 31.7387C76.0624 31.7387 76.0537 31.7387 76.0537 31.7387C74.4886 31.7387 73.0103 31.4257 71.6192 30.7995C70.2279 30.1736 69.0368 29.3387 68.0454 28.2953C67.0194 27.1997 66.2108 25.9476 65.6195 24.539C65.0282 23.1304 64.7326 21.6262 64.7326 20.0263C64.7326 20.0089 64.7326 20.0002 64.7326 20.0002C64.7326 19.9828 64.7326 19.9567 64.7326 19.9218C64.7326 18.3393 65.0282 16.8525 65.6195 15.4613C66.2108 14.0526 67.0281 12.8266 68.0715 11.7832C69.0975 10.7398 70.3063 9.90504 71.6975 9.27898C73.0887 8.65293 74.5669 8.33991 76.132 8.33991C76.132 8.33991 76.141 8.33991 76.1581 8.33991C76.1755 8.33991 76.1842 8.33991 76.1842 8.33991C76.1842 8.33991 76.1932 8.33991 76.2102 8.33991C76.245 8.33991 76.2624 8.33991 76.2624 8.33991C76.9232 8.33991 77.5755 8.40083 78.2189 8.52251C78.8796 8.62683 79.5145 8.78336 80.1231 8.99204L79.9927 8.93982C80.6188 9.16591 81.2013 9.42676 81.7404 9.72238C82.2795 10.018 82.7838 10.3398 83.2534 10.6876V10.6614L85.2098 7.55728L87.1663 4.427C86.4358 3.92268 85.6532 3.47053 84.8185 3.07056C84.0012 2.67058 83.149 2.33147 82.2621 2.05323L82.1317 2.00101C81.2622 1.75754 80.3318 1.56624 79.3406 1.42712C78.3492 1.2706 77.3494 1.19235 76.3408 1.19235C76.306 1.19235 76.2798 1.19235 76.2624 1.19235C76.2624 1.19235 76.245 1.19235 76.2102 1.19235C76.1929 1.19235 76.1668 1.19235 76.132 1.19235C76.1146 1.19235 76.0885 1.19235 76.0537 1.19235C74.7147 1.19235 73.4104 1.31407 72.1408 1.55755C70.8887 1.801 69.6714 2.16621 68.4889 2.65314L68.6454 2.60092C67.4976 3.10524 66.4282 3.68783 65.4369 4.34867C64.4457 5.00948 63.5414 5.74859 62.724 6.56593C61.7502 7.59196 60.924 8.6006 60.2458 9.59187C59.5851 10.6179 59.0372 11.6178 58.6026 12.5917C58.1678 13.5656 57.8112 14.5481 57.5331 15.5394C57.2721 16.4958 57.0373 17.4436 56.8288 18.3827C56.4287 20.2261 56.0113 21.9825 55.5767 23.6519C55.1418 25.3215 54.2462 26.8258 52.8898 28.1648C52.3681 28.7039 51.7942 29.1995 51.1681 29.6517C50.5595 30.0864 49.9246 30.4516 49.2639 30.7472L49.1855 30.7994C48.5247 31.0603 47.8291 31.269 47.0987 31.4255C46.3857 31.582 45.6294 31.6602 44.8293 31.6602C44.8293 31.6602 44.8119 31.6602 44.7771 31.6602C44.7597 31.6602 44.751 31.6602 44.751 31.6602C43.1338 31.6602 41.6121 31.3472 40.1861 30.7212C38.7601 30.0951 37.5079 29.243 36.4297 28.1648C35.3863 27.1388 34.5516 25.9128 33.9255 24.4868C33.2995 23.0433 32.9865 21.5129 32.9865 19.8956C32.9865 18.3305 33.2908 16.8523 33.8994 15.4611C34.5081 14.0525 35.3428 12.8265 36.4036 11.783C37.4644 10.7222 38.7078 9.87879 40.1338 9.25275C41.5599 8.6093 43.0816 8.28758 44.6989 8.28758C45.3771 8.28758 46.0379 8.34851 46.6815 8.47019C47.3249 8.5745 47.9595 8.72234 48.5857 8.91363H48.4812C49.1074 9.10493 49.6813 9.34839 50.203 9.64404C50.7247 9.92227 51.229 10.2353 51.7159 10.5831H51.6638L53.6461 7.47892L55.6548 4.32257C54.9418 3.83563 54.1678 3.39219 53.3331 2.99221C52.5159 2.59223 51.6551 2.25313 50.7508 1.97487H50.6463C49.7768 1.69663 48.8464 1.48795 47.8552 1.34882C46.8813 1.2097 45.8814 1.14014 44.8554 1.14014C44.838 1.14014 44.8119 1.14014 44.7771 1.14014C44.7597 1.14014 44.7423 1.14014 44.725 1.14014C44.725 1.14014 44.716 1.14014 44.6989 1.14014C44.6815 1.14014 44.6728 1.14014 44.6728 1.14014C43.0554 1.14014 41.4903 1.34013 39.9773 1.7401C38.4818 2.12269 37.0732 2.6618 35.7515 3.3574L35.8298 3.33129C34.5255 3.99213 33.3256 4.80077 32.2299 5.75723C31.1343 6.7137 30.1605 7.76583 29.3083 8.9136L29.2562 8.93971C28.9084 7.89628 28.4039 6.9485 27.7432 6.09638C27.0824 5.22686 26.2997 4.50517 25.3954 3.93128H25.3693C24.4129 3.30522 23.3608 2.81829 22.213 2.47048C21.0653 2.10529 19.8653 1.92269 18.6132 1.92269C18.561 1.92269 18.5176 1.92269 18.4828 1.92269C18.448 1.92269 18.4219 1.92269 18.4046 1.92269H1.63159V38.0772H20.1524C20.1872 38.0772 20.2219 38.0772 20.2567 38.0772C20.2915 38.0772 20.3176 38.0772 20.335 38.0772C21.448 38.0772 22.5088 37.9382 23.5174 37.66C24.526 37.399 25.4826 37.0251 26.3869 36.5383L26.3085 36.5644C27.1606 36.0947 27.9259 35.5384 28.6041 34.8948C29.2997 34.234 29.8823 33.5036 30.3518 32.7036L30.404 32.6254C31.2387 33.5819 32.1691 34.434 33.1951 35.1818C34.2212 35.9295 35.3082 36.5817 36.4558 37.1382L36.5862 37.1642C37.7341 37.6859 38.9688 38.0947 40.2905 38.3902C41.6121 38.7034 42.9859 38.8599 44.4119 38.8599C44.4119 38.8599 44.4209 38.8599 44.438 38.8599C44.4554 38.8599 44.4728 38.8599 44.4902 38.8599C44.525 38.8599 44.5511 38.8599 44.5684 38.8599C44.5858 38.8599 44.6119 38.8599 44.6468 38.8599C46.2641 38.8599 47.8379 38.6599 49.3682 38.2598C50.8986 37.8772 52.3246 37.3207 53.6462 36.5905L53.568 36.6687C54.9244 35.9557 56.1504 35.1123 57.246 34.1383C58.3416 33.1472 59.3156 32.0515 60.1677 30.8516L60.1938 30.7733C61.0285 31.9906 61.9848 33.0949 63.0631 34.0863C64.1587 35.0601 65.3413 35.8947 66.6107 36.5905L66.689 36.6426C68.0108 37.3382 69.4368 37.8773 70.9671 38.2599C72.4973 38.6599 74.0885 38.86 75.7407 38.86C75.7407 38.86 75.7496 38.86 75.7668 38.86C75.7842 38.86 75.8103 38.86 75.8451 38.86C75.8624 38.86 75.8798 38.86 75.8972 38.86C75.9146 38.86 75.9233 38.86 75.9233 38.86C77.1929 38.86 78.4276 38.7296 79.6275 38.4686C80.8275 38.2077 81.9752 37.834 83.0708 37.3469C84.1838 36.8774 85.2272 36.3035 86.201 35.6253C87.175 34.9297 88.0706 34.1558 88.8878 33.3037C89.7225 32.469 90.4616 31.5473 91.1052 30.5387C91.7486 29.5473 92.2964 28.4952 92.7485 27.3822C93.2007 26.2694 93.5485 25.1041 93.792 23.8868C94.0528 22.6869 94.1832 21.4348 94.1832 20.1305C94.1832 20.1131 94.1832 20.0957 94.1832 20.0782C94.1832 20.061 94.1832 20.0437 94.1832 20.0263ZM9.4313 16.609V8.60076H18.3265C18.3439 8.60076 18.3526 8.60076 18.3526 8.60076C18.9091 8.60076 19.4221 8.70507 19.8916 8.91379C20.3613 9.10509 20.7872 9.38332 21.1698 9.74853H21.1437C21.5089 10.1137 21.7873 10.5311 21.9786 11.0006C22.1871 11.4702 22.2916 11.9745 22.2916 12.5136C22.2916 12.5136 22.2916 12.5226 22.2916 12.5397C22.2916 12.5571 22.2916 12.5658 22.2916 12.5658C22.2916 12.6006 22.2916 12.618 22.2916 12.618C22.2916 12.618 22.2916 12.6354 22.2916 12.6703C22.2916 13.192 22.1871 13.6963 21.9786 14.1832C21.7873 14.6528 21.5176 15.0701 21.1698 15.4353H21.1437C20.7785 15.8005 20.3613 16.0875 19.8916 16.2962C19.4221 16.5048 18.9091 16.6092 18.3526 16.6092C18.3526 16.6092 18.3436 16.6092 18.3265 16.6092L9.4313 16.609ZM9.4313 31.3996V23.1826H20.0481C20.0655 23.1826 20.0742 23.1826 20.0742 23.1826C20.6481 23.1826 21.1872 23.2869 21.6915 23.4956C22.2132 23.7043 22.6741 23.9826 23.074 24.3304C23.4566 24.6955 23.7611 25.1303 23.987 25.6346C24.2131 26.1389 24.3261 26.6693 24.3261 27.2258C24.3261 27.2258 24.3261 27.2348 24.3261 27.2519C24.3261 27.8432 24.2131 28.3911 23.987 28.8953C23.7611 29.3996 23.4479 29.8432 23.048 30.2256C22.6654 30.6082 22.2132 30.904 21.6915 31.1125C21.1872 31.3212 20.6394 31.4257 20.0481 31.4257H9.4313V31.3996Z" fill="#00522E"/>
</svg>
