<svg width="129" height="36" viewBox="0 0 129 36" fill="none" xmlns="http://www.w3.org/2000/svg">
<g clip-path="url(#clip0_667_2135)">
<path d="M44.8302 15.1711H47.9394C48.8368 15.2453 49.7334 15.0181 50.4871 14.5253C50.769 14.2688 50.9879 13.9507 51.1266 13.5957C51.2653 13.2407 51.32 12.8584 51.2866 12.4788C51.2892 12.1171 51.2187 11.7587 51.0793 11.4249C50.9343 11.0903 50.7054 10.7988 50.4147 10.5784C50.0657 10.3207 49.6706 10.1324 49.2506 10.0236C48.6981 9.88052 48.1289 9.81302 47.5583 9.82294H44.8309L44.8302 15.1711ZM44.8302 8.8422H47.6851C48.0669 8.84297 48.4478 8.80624 48.8225 8.73256C49.1709 8.66781 49.504 8.53829 49.8047 8.35072C50.0942 8.1642 50.332 7.90769 50.496 7.60491C50.6848 7.23367 50.7754 6.82032 50.7593 6.40417C50.7761 5.99459 50.6996 5.58656 50.5356 5.21087C50.3875 4.90591 50.1544 4.65026 49.8644 4.47475C49.5227 4.27837 49.1455 4.15163 48.7546 4.10184C48.2394 4.03077 47.7197 3.99762 47.1996 4.00266H44.8354L44.8302 8.8422ZM43.6294 3.02491H47.304C48.5382 2.9293 49.7729 3.20458 50.8496 3.81546C51.2287 4.1068 51.5288 4.48837 51.7226 4.92542C51.9165 5.36247 51.9978 5.84108 51.9593 6.31763C51.9886 6.92394 51.8367 7.52524 51.523 8.04493C51.1613 8.53772 50.6711 8.92163 50.106 9.1547C50.7872 9.43515 51.3851 9.88585 51.8422 10.4636C52.2877 11.0679 52.5153 11.8053 52.4881 12.5556C52.5068 13.1427 52.3955 13.7267 52.1622 14.2657C51.9537 14.7147 51.6267 15.0984 51.2165 15.3755C50.7652 15.6683 50.2614 15.8709 49.7331 15.9721C49.1011 16.0982 48.4578 16.1589 47.8134 16.1534H43.6309L43.6294 3.02491Z" fill="black"/>
<path d="M61.8549 6.87478C61.6464 6.03369 61.2308 5.25812 60.6459 4.61871C60.3867 4.3555 60.0758 4.14864 59.7329 4.01107C59.39 3.87349 59.0224 3.80818 58.6531 3.8192C58.0611 3.80321 57.4771 3.95861 56.9713 4.26669C56.4912 4.57778 56.0921 4.99887 55.8071 5.49503C55.4798 6.06574 55.2492 6.68668 55.1247 7.3327C54.834 8.82219 54.834 10.3539 55.1247 11.8433C55.249 12.49 55.4829 13.1108 55.8161 13.6788C56.1124 14.1811 56.5275 14.6029 57.025 14.9071C57.5577 15.2155 58.1654 15.3703 58.7807 15.3546C59.2402 15.3676 59.6969 15.2776 60.1172 15.0913C60.4746 14.9258 60.7937 14.6875 61.0539 14.3918C61.3166 14.0881 61.5286 13.7441 61.6819 13.373C61.8482 12.9776 61.9853 12.5706 62.0921 12.1551L63.219 12.3557C63.1059 12.9094 62.932 13.4489 62.7006 13.9644C62.4904 14.4337 62.198 14.8616 61.837 15.2278C61.4716 15.5881 61.0345 15.8676 60.5542 16.0482C59.9802 16.2531 59.3736 16.3512 58.7643 16.3376C58.0234 16.3512 57.2902 16.186 56.6268 15.8558C55.9974 15.5308 55.4548 15.06 55.0442 14.4828C54.5897 13.8385 54.254 13.1181 54.053 12.3557C53.5924 10.5414 53.5924 8.64066 54.053 6.8263C54.254 6.06345 54.5897 5.34262 55.0442 4.69776C55.4548 4.12052 55.9974 3.64976 56.6268 3.32473C57.2902 2.99459 58.0234 2.82933 58.7643 2.84294C59.3004 2.83349 59.8331 2.9319 60.3305 3.13231C60.781 3.32067 61.192 3.59243 61.5416 3.9333C61.8953 4.28498 62.1873 4.69368 62.4053 5.14226C62.6386 5.62242 62.8259 6.1236 62.9646 6.6391L61.8549 6.87478Z" fill="black"/>
<path d="M73.0031 6.8382C72.9076 6.43298 72.767 6.03973 72.584 5.6658C72.4107 5.30677 72.1768 4.98029 71.8926 4.70072C71.609 4.42529 71.2757 4.20613 70.9104 4.05485C70.5 3.89121 70.0611 3.81108 69.6194 3.81917C69.0692 3.81089 68.5266 3.94884 68.0472 4.21893C67.5613 4.50423 67.1494 4.89999 66.845 5.37417C66.4882 5.93293 66.2275 6.54755 66.0738 7.19246C65.8824 7.97531 65.7904 8.77917 65.8001 9.58502C65.8001 10.2863 65.8608 10.9862 65.9813 11.677C66.0895 12.329 66.3117 12.9569 66.6377 13.5318C66.9468 14.073 67.3882 14.5269 67.9205 14.8512C68.5543 15.2079 69.2752 15.3807 70.002 15.3501C70.4369 15.3562 70.8685 15.273 71.2699 15.1055C71.638 14.9497 71.9685 14.717 72.2394 14.4231C72.5082 14.1285 72.7185 13.7856 72.8592 13.4125C73.0062 13.0203 73.08 12.6045 73.077 12.1857V10.9849H69.7671V10.0027H74.2777V16.1496H73.241V14.8586H73.2045C72.8445 15.3452 72.3648 15.7306 71.8121 15.9773C71.1202 16.2417 70.3819 16.3632 69.6418 16.3346C68.9436 16.3404 68.2532 16.1874 67.6229 15.8871C66.9955 15.5835 66.4471 15.1385 66.0209 14.5872C65.542 13.956 65.1877 13.2394 64.9768 12.4758C64.7137 11.5349 64.5881 10.561 64.6039 9.58427C64.588 8.60553 64.7233 7.63021 65.0051 6.69276C65.2335 5.92705 65.6033 5.21091 66.0955 4.58139C66.5307 4.03201 67.0841 3.58771 67.7146 3.28145C68.3329 2.98381 69.0108 2.83078 69.697 2.83396C70.2613 2.82716 70.8222 2.92242 71.3527 3.11513C71.8332 3.29386 72.2768 3.5593 72.6615 3.89823C73.0429 4.23937 73.3602 4.64604 73.5983 5.09898C73.8522 5.58136 74.0327 6.09893 74.1338 6.63459L73.0031 6.8382Z" fill="black"/>
<path d="M46.4106 25.8198H47.8858C48.424 25.8198 48.9402 25.606 49.3208 25.2254C49.7013 24.8448 49.9151 24.3286 49.9151 23.7904C49.9151 23.2522 49.7013 22.736 49.3208 22.3555C48.9402 21.9749 48.424 21.7611 47.8858 21.7611H46.4128L46.4106 25.8198ZM43.666 33.8566V19.4923H47.6255C48.9847 19.3849 50.3354 19.7859 51.4157 20.6178C52.2144 21.4814 52.6581 22.6145 52.6581 23.7908C52.6581 24.9672 52.2144 26.1002 51.4157 26.9638C50.3348 27.7944 48.9844 28.1948 47.6255 28.0878H46.4113V33.8566H43.666Z" fill="black"/>
<path d="M54.3684 33.8566V19.4923H57.113V31.429H61.5297V33.8558L54.3684 33.8566Z" fill="black"/>
<path d="M66.9412 28.4069H69.6664L68.3336 22.5978H68.2911L66.9412 28.4069ZM63.022 33.858L66.5832 19.4938H70.1042L73.5662 33.858H70.9402L70.2436 30.8345H66.44L65.6636 33.858H63.022Z" fill="black"/>
<path d="M82.3869 19.4938V21.9192H79.18V33.8558H76.4354V21.9192H73.2336V19.4923L82.3869 19.4938Z" fill="black"/>
<path d="M87.6113 19.493H84.8667V33.8573H87.6113V19.493Z" fill="black"/>
<path d="M90.5044 33.8566V19.4923H93.5077L97.3293 28.0072H97.3681V19.4923H99.8755V33.8566H97.2495L93.0513 24.5862H93.011V33.8566H90.5044Z" fill="black"/>
<path d="M105.512 19.493H102.768V33.8573H105.512V19.493Z" fill="black"/>
<path d="M110.754 29.5987C110.719 29.8859 110.743 30.1773 110.825 30.4548C110.908 30.7322 111.046 30.9897 111.232 31.2112C111.617 31.4825 112.075 31.6282 112.545 31.6282C113.016 31.6282 113.474 31.4825 113.858 31.2112C114.045 30.9897 114.183 30.7322 114.266 30.4548C114.348 30.1773 114.372 29.8859 114.337 29.5987V23.7516C114.372 23.4644 114.347 23.1731 114.265 22.8957C114.183 22.6184 114.044 22.3608 113.858 22.1392C113.474 21.8678 113.016 21.7221 112.545 21.7221C112.075 21.7221 111.617 21.8678 111.232 22.1392C111.047 22.3608 110.908 22.6184 110.826 22.8957C110.744 23.1731 110.719 23.4644 110.754 23.7516V29.5987ZM108.01 24.1089C107.99 23.3457 108.104 22.585 108.348 21.8617C108.542 21.3018 108.862 20.7941 109.284 20.3783C109.69 19.9959 110.18 19.7132 110.715 19.5527C111.911 19.2085 113.179 19.2085 114.375 19.5527C114.911 19.7128 115.401 19.9955 115.808 20.3783C116.23 20.7941 116.55 21.3018 116.743 21.8617C116.987 22.5852 117.101 23.3458 117.082 24.1089V29.2408C117.101 30.0046 116.987 30.7659 116.743 31.4901C116.55 32.0494 116.23 32.5563 115.808 32.9713C115.402 33.3548 114.911 33.6376 114.375 33.7969C113.18 34.1435 111.91 34.1435 110.715 33.7969C110.18 33.6371 109.69 33.3543 109.284 32.9713C108.862 32.5564 108.542 32.0494 108.348 31.4901C108.104 30.7661 107.99 30.0046 108.01 29.2408V24.1089Z" fill="black"/>
<path d="M126.309 19.4938V28.0072H126.269L122.451 19.4938H119.448V33.8558H121.953V24.5869H121.994L126.192 33.8558H128.816V19.4938H126.309Z" fill="black"/>
<path d="M21.4223 35.8024L27.6126 18.1402L18.6755 14.3276L21.4223 35.8024Z" fill="#707070"/>
<path d="M21.4261 35.8024L18.6793 14.3276L0.814941 7.26929L21.4261 35.8024Z" fill="black"/>
<path d="M27.6184 18.1402L21.4282 35.8024L38.5408 7.26929L27.6184 18.1402Z" fill="#D1D4D4"/>
<path d="M18.6792 14.3239L38.5378 7.26782L27.6125 18.1395L18.6792 14.3239Z" fill="white"/>
<path d="M20.6825 0.196777L0.816406 7.27075L18.6793 14.3268L38.5401 7.27075L20.6914 0.196777H20.6825Z" fill="#0ACC8F"/>
<path d="M0.816406 7.26929L18.6807 14.3276L38.5394 7.26929H0.816406Z" fill="#8AD9BD"/>
</g>
<defs>
<clipPath id="clip0_667_2135">
<rect width="128" height="35.6064" fill="white" transform="translate(0.814941 0.196777)"/>
</clipPath>
</defs>
</svg>
