<svg width="255" height="268" viewBox="0 0 255 268" fill="none" xmlns="http://www.w3.org/2000/svg">
<path d="M0.253906 181.235L197.871 267.03L192.087 231.362L230.646 206.299L230.646 27.9617L107.256 27.9617L122.68 0.970093L0.253906 30.8536L0.253906 181.235Z" fill="url(#paint0_linear_1075_5882)"/>
<path d="M254.407 221.387L239.986 218.079V206.796C239.986 203.304 241.223 201.558 243.697 201.558C244.22 201.558 244.765 201.629 245.33 201.77C247.013 202.166 248.236 202.901 248.999 203.976C249.763 205.036 250.144 206.584 250.144 208.62V216.085L254.407 217.04V221.387ZM243.4 214.516L246.73 215.279V206.733L243.4 205.948V214.516Z" fill="#E4E2DD"/>
<path d="M254.746 191.914C254.746 193.993 254.577 195.675 254.237 196.962C253.884 198.248 253.332 199.203 252.583 199.825C251.82 200.433 250.816 200.737 249.572 200.737C248.766 200.737 247.882 200.624 246.921 200.397C244.984 199.945 243.499 199.316 242.467 198.51C241.435 197.704 240.707 196.566 240.283 195.096C239.859 193.611 239.646 191.568 239.646 188.966C239.646 186.888 239.823 185.206 240.177 183.919C240.516 182.632 241.06 181.685 241.81 181.077C242.559 180.455 243.556 180.144 244.8 180.144C245.606 180.144 246.489 180.257 247.451 180.483C249.402 180.922 250.894 181.544 251.926 182.35C252.958 183.156 253.686 184.301 254.11 185.785C254.534 187.27 254.746 189.313 254.746 191.914ZM250.929 191.299C250.929 189.532 250.887 187.772 250.802 186.019L243.57 184.364C243.499 186.273 243.464 188.012 243.464 189.582C243.464 191.123 243.499 192.883 243.57 194.862L250.802 196.516C250.887 194.777 250.929 193.038 250.929 191.299Z" fill="#E4E2DD"/>
<path d="M254.407 164.112L254.407 178.66L239.986 175.352V171.004L250.717 173.486V163.285L254.407 164.112Z" fill="#E4E2DD"/>
<path d="M239.986 153.86V147.561L254.301 143.913L254.407 143.934V148.367L251.565 149.024V157.147L254.407 159.119V164.06L254.301 164.039L239.986 153.86ZM242.934 151.145L248.363 154.92V149.766L242.934 151.039V151.145Z" fill="#E4E2DD"/>
<path d="M254.407 138.032V142.188L239.986 138.88V131.796L251.777 127.831V127.703L239.986 125.01V120.832L254.407 124.14V131.224L242.594 135.211V135.317L254.407 138.032Z" fill="#E4E2DD"/>
<path d="M254.407 119.831L239.986 116.522V106.364C239.986 103.89 240.368 102.08 241.131 100.935C241.88 99.7894 243.103 99.2168 244.8 99.2168C245.606 99.2168 246.489 99.3299 247.451 99.5562C249.275 99.9662 250.682 100.532 251.671 101.253C252.661 101.974 253.368 102.956 253.792 104.201C254.202 105.431 254.407 107.078 254.407 109.142V119.831ZM243.655 113.023L250.717 114.656V105.07L243.655 103.437V113.023Z" fill="#E4E2DD"/>
<path d="M249.975 91.5377C248.674 91.2266 247.705 90.6187 247.069 89.7138C246.419 88.809 246.023 87.4941 245.882 85.7692L245.309 78.4738L242.955 77.9224C243.011 79.93 243.103 81.8034 243.231 83.5424C243.358 85.3097 243.57 87.1406 243.867 89.0352L240.049 88.0172C239.781 85.0623 239.646 82.3123 239.646 79.7674C239.646 77.6749 239.943 76.1126 240.537 75.0805C241.117 74.0484 242.001 73.5324 243.188 73.5324C243.584 73.5324 243.98 73.5819 244.376 73.6808C245.634 73.9636 246.588 74.5503 247.239 75.4411C247.889 76.3318 248.278 77.6184 248.405 79.3009L248.978 86.7448L250.823 87.1689V75.7168L254.407 76.5227L254.407 92.5769L249.975 91.5377Z" fill="#E4E2DD"/>
<path d="M254.407 69.0478V73.6074L251.502 72.95V68.3904L254.407 69.0478Z" fill="#E4E2DD"/>
<path d="M239.646 54.3534C239.646 51.7378 240.049 49.7937 240.855 48.5213C241.661 47.2488 242.983 46.6126 244.821 46.6126C245.627 46.6126 246.504 46.7257 247.451 46.9519C249.36 47.3902 250.837 48.0193 251.883 48.8394C252.93 49.6453 253.672 50.7198 254.11 52.0629C254.534 53.392 254.746 55.1381 254.746 57.3012C254.746 59.931 254.343 61.8821 253.538 63.1546C252.732 64.427 251.41 65.0632 249.572 65.0632C248.766 65.0632 247.889 64.9501 246.942 64.7239C245.033 64.2856 243.556 63.6635 242.51 62.8577C241.463 62.0376 240.728 60.956 240.304 59.6129C239.866 58.2697 239.646 56.5166 239.646 54.3534ZM243.358 54.9472C243.358 56.4883 243.386 57.994 243.443 59.4644L249.487 60.8853L243.379 51.8297C243.365 52.4942 243.358 53.5333 243.358 54.9472ZM251.035 56.7286C251.035 55.5269 251.014 54.3251 250.971 53.1233L250.95 52.1902L244.864 50.7905L251.014 59.8462C251.028 59.1817 251.035 58.1425 251.035 56.7286Z" fill="#E4E2DD"/>
<defs>
<linearGradient id="paint0_linear_1075_5882" x1="230.646" y1="134" x2="0.253906" y2="134" gradientUnits="userSpaceOnUse">
<stop stop-color="#2C0F6C"/>
<stop offset="1" stop-color="#C72AC4"/>
</linearGradient>
</defs>
</svg>
