<svg width="74" height="76" viewBox="0 0 74 76" fill="none" xmlns="http://www.w3.org/2000/svg">
<g id="Logo Poland 2.0 white">
<path id="Vector 1" d="M0.698242 51.4928L57.1475 76L55.4953 65.8116L66.5098 58.6522L66.5098 7.71014L31.2635 7.71014L35.6693 0L0.698242 8.53623L0.698242 51.4928Z" fill="#E4E2DD"/>
<g id="POLAND 2.0">
<path d="M73.2046 57.826L69.0852 56.881V53.6582C69.0852 52.6606 69.4386 52.1618 70.1454 52.1618C70.2948 52.1618 70.4503 52.182 70.6118 52.2224C71.0924 52.3355 71.4418 52.5455 71.6598 52.8525C71.8779 53.1554 71.987 53.5976 71.987 54.1792V56.3116L73.2046 56.5842V57.826ZM70.0605 55.8633L71.0116 56.0814V53.64L70.0605 53.4158V55.8633Z" fill="#E4E2DD"/>
<path d="M73.3016 49.4071C73.3016 50.0008 73.2531 50.4814 73.1562 50.8489C73.0552 51.2164 72.8977 51.489 72.6836 51.6667C72.4656 51.8404 72.1788 51.9272 71.8234 51.9272C71.5932 51.9272 71.3408 51.8949 71.0662 51.8303C70.5129 51.7011 70.0888 51.5214 69.794 51.2912C69.4992 51.061 69.2912 50.7358 69.17 50.3158C69.0489 49.8918 68.9883 49.3082 68.9883 48.5651C68.9883 47.9714 69.0388 47.4908 69.1397 47.1233C69.2367 46.7558 69.3921 46.4852 69.6062 46.3115C69.8202 46.1338 70.105 46.045 70.4604 46.045C70.6906 46.045 70.943 46.0773 71.2176 46.1419C71.7749 46.2671 72.201 46.4448 72.4958 46.675C72.7907 46.9052 72.9987 47.2323 73.1198 47.6564C73.241 48.0804 73.3016 48.664 73.3016 49.4071ZM72.2111 49.2314C72.2111 48.7266 72.199 48.2238 72.1748 47.723L70.109 47.2505C70.0888 47.7957 70.0787 48.2925 70.0787 48.7408C70.0787 49.181 70.0888 49.6838 70.109 50.2492L72.1748 50.7217C72.199 50.225 72.2111 49.7282 72.2111 49.2314Z" fill="#E4E2DD"/>
<path d="M73.2046 41.4654V45.6211L69.0852 44.6761V43.4342L72.1505 44.143V41.2291L73.2046 41.4654Z" fill="#E4E2DD"/>
<path d="M69.0852 38.5368V36.7375L73.1743 35.6956L73.2046 35.7016V36.9677L72.3929 37.1555V39.4757L73.2046 40.0391V41.4506L73.1743 41.4446L69.0852 38.5368ZM69.9273 37.7613L71.4781 38.8397V37.3676L69.9273 37.7311V37.7613Z" fill="#E4E2DD"/>
<path d="M73.2046 34.0155V35.2028L69.0852 34.2578V32.2344L72.4534 31.1016V31.0652L69.0852 30.2959V29.1025L73.2046 30.0475V32.0709L69.8303 33.2098V33.2401L73.2046 34.0155Z" fill="#E4E2DD"/>
<path d="M73.2046 28.8164L69.0852 27.8714V24.9696C69.0852 24.2628 69.1943 23.7459 69.4123 23.4188C69.6264 23.0916 69.9757 22.9281 70.4604 22.9281C70.6906 22.9281 70.943 22.9604 71.2176 23.025C71.7386 23.1421 72.1404 23.3037 72.4232 23.5096C72.7059 23.7156 72.9078 23.9963 73.0289 24.3517C73.1461 24.7031 73.2046 25.1736 73.2046 25.7632V28.8164ZM70.1332 26.8718L72.1505 27.3383V24.6001L70.1332 24.1336V26.8718Z" fill="#E4E2DD"/>
<path d="M71.9385 20.7345C71.567 20.6457 71.2903 20.472 71.1086 20.2135C70.9228 19.9551 70.8097 19.5795 70.7693 19.0867L70.6058 17.0028L69.9333 16.8453C69.9495 17.4188 69.9757 17.9539 70.0121 18.4507C70.0484 18.9555 70.109 19.4785 70.1938 20.0197L69.1034 19.7289C69.0266 18.8848 68.9883 18.0993 68.9883 17.3723C68.9883 16.7746 69.0731 16.3284 69.2427 16.0335C69.4083 15.7387 69.6607 15.5913 70 15.5913C70.113 15.5913 70.2261 15.6054 70.3392 15.6337C70.6986 15.7145 70.9713 15.8821 71.157 16.1365C71.3428 16.3909 71.4539 16.7585 71.4902 17.2391L71.6538 19.3654L72.1808 19.4866V16.2153L73.2046 16.4455V21.0314L71.9385 20.7345Z" fill="#E4E2DD"/>
<path d="M73.2046 14.3103V15.6127L72.3747 15.4249V14.1225L73.2046 14.3103Z" fill="#E4E2DD"/>
<path d="M68.9883 10.1128C68.9883 9.36566 69.1034 8.81034 69.3336 8.44687C69.5638 8.08339 69.9414 7.90165 70.4664 7.90165C70.6966 7.90165 70.947 7.93396 71.2176 7.99858C71.7628 8.12378 72.1849 8.3035 72.4837 8.53774C72.7826 8.76794 72.9946 9.07487 73.1198 9.45855C73.241 9.83818 73.3016 10.337 73.3016 10.9549C73.3016 11.7061 73.1865 12.2634 72.9563 12.6269C72.726 12.9903 72.3484 13.1721 71.8234 13.1721C71.5932 13.1721 71.3428 13.1398 71.0722 13.0752C70.527 12.95 70.105 12.7723 69.8061 12.5421C69.5072 12.3078 69.2972 11.9989 69.1761 11.6152C69.0509 11.2315 68.9883 10.7307 68.9883 10.1128ZM70.0484 10.2824C70.0484 10.7226 70.0565 11.1528 70.0727 11.5728L71.7992 11.9787L70.0545 9.39191C70.0504 9.58173 70.0484 9.87857 70.0484 10.2824ZM72.2414 10.7913C72.2414 10.448 72.2354 10.1047 72.2232 9.76145L72.2172 9.4949L70.4785 9.09507L72.2354 11.6818C72.2394 11.492 72.2414 11.1952 72.2414 10.7913Z" fill="#E4E2DD"/>
</g>
</g>
</svg>
